<mxfile host="65bd71144e">
    <diagram id="1d4vps18lBdoaXprQjvr" name="Page-1">
        <mxGraphModel dx="1890" dy="3518" grid="1" gridSize="10" guides="1" tooltips="1" connect="1" arrows="1" fold="1" page="1" pageScale="1" pageWidth="2350" pageHeight="1150" math="0" shadow="0">
            <root>
                <mxCell id="0"/>
                <mxCell id="1" parent="0"/>
                <mxCell id="2" value="" style="shape=image;verticalLabelPosition=bottom;labelBackgroundColor=#ffffff;verticalAlign=top;aspect=fixed;imageAspect=0;image=data:image/png,iVBORw0KGgoAAAANSUhEUgAAAggAAAHICAYAAAAr/BJKAAAAAXNSR0IArs4c6QAAIABJREFUeF7snQeYHFeV/X/VOU2OmhlplGVZsmXJlpwjxhEwLLCGXVhy8PInLF68ZDDBmAxLZlkwBps1JuOMA3KQg2RbWVbWjDQ59nTurur6f/dV9XgsDJZshenRq8/zSdZUV706VV3vvHvPPdewbdum/LangBWGYVjlN3Q9Yo2ARkAjoBHQCEx+BIwyJQhrgVM0QZj8D5geoUZAI6AR0AiUJwLlShDWuQTBLE/Y9ag1AhoBjYBGQCMwuREoV4KwHjjZMAxNECb386VHpxHQCGgENAJlikC5EoSNwDLDMAplirsetkZAI6AR0AhoBCY1AuVKEDYBSzVBmNTPlh6cRkAjoBHQCJQxAuVKELYASzRBKOMnTw9dI6AR0AhoBCY1AuVKEJ5xCUJ+UqOrB6cR0AhoBDQCGoEyRaBcCcJW4ETDMDRBKNMHTw9bI6AR0AhoBCY3AuVKELYDizVBmNwPlx6dRkAjoBHQCJQvAuVKEHa4BCFXvtDrkWsENAIaAY2ARmDyIlCuBGEXcLxhGJogTN5nS49MI6AR0AhoBMoYgXIlCLuBhZoglPGTp4euEdAIaAQ0ApMagXIlCHtcgpCd1OjqwWkENAIaAY2ARqBMEShXgtAJLDAMQxOEMn3w9LA1AhoBjYBGYHIjUK4EYS8wXxOEyf1w6dFpBDQCGgGNQPkiUK4EYZ9LEDLlC70euUZAI6AR0AhoBCYvAuVKELqBuYZhaIIweZ8tPTKNgEZAI6ARKGMEypUg9ABzNEEo4ydPD10joBHQCGgEJjUC5UoQel2CkJ7U6OrBaQQ0AhoBjYBGoEwRKFeC0A/MMgxDE4QyffD0sDUCGgGNgEZgciNQrgRhAJipCcKBPVy2bRtAjftTD5wNXAbI368wDEOMp/SmEdAIaAQ0AhqBcQTKlSAMugQhpe/l8yNg27YQgtcB/wycAgQAv/sz8UMShXmPYRi/1FhqBDQCGgGNgEaghEC5EoRhYIZhGMc8QbBtuxU4FThN0i7uz2w3WnAwT/q3gWt0h8yDgUzvqxHQCGgEpi4C5UoQRoDpxxJBsG1b0gFt7s9C4BzgzBdBBP7R03wn8G7DMMRnQm8aAY2ARkAjcAwjUK4EIS4TpWEYyal272zbljSApAN8wOXAa129QOgIXuvJhmE8dQTPp0+lEdAIaAQ0ApMMgXIlCGNA61QgCLZtR4HzgQuBk4BG90c0BJ6j9LwIAfusYRjfOkrn16fVCGgENAIagaOMQLkShATQUk4EwbbtGHA8cJyQG2AFcLKkSo7yM/D3Tl8EfgZ88FhK5UzSe6GHpRHQCGgEjjgC5UoQRJw4zTAMIQqTarNtOwzUAtXAPOBVbqpAIgPluD0NvNEwjK3lOHg9Zo2ARkAjoBF4cQiUK0GQ0rzmyUIQbNuWCoLXA5e4xECiBZI68L642zLpPiUph381DOP2STcyPSCNgEZAI6AROCwIlCtBkCZNTUeaINi2vcxNDcwXq2c3ZTD3sNyZQ3RQ27YxDAO7WATbBsPA8LwoaYMIQj8P/Ldus32Ibo4+jEZAI6ARmMQIlCtByImQzzAMESse0s22bakgEF3ADCEhbjmhiAiFFLyomfWQDvAgD+YQA/dDQhCEMPilQOJFb7cCHzAMQ/ph6E0joBHQCGgEpigC5UoQ8kDDoSIItm03S/0/8BZATIamzGZbRSiRBI8B8p/3JWc+dkkkxTCMoSkDlL4QjYBGQCOgEXgOAuVKEArSR+BgCYJt2+I0KOWE57qlhO2A/ASn0nMhaYViUdIJ8ExXktaqABURP8IP8HhUyuEQbGJ3LZGEXx2CY+lDaAQ0AhoBjcAkQ6BcCYIF1BmGIeK552y2bUsaQNIDi1ydgGgExIp4yWQkAjKZl7ZDNHEjx7Tcw96wbogLmkPMqA3i9TmRA8P73ExJaQyl85d0Cwf4rH4R+JIuhTxAtPRuGgGNgEagTBAoV4IgNfpSSihEQSoG5OditzGRWBBP2k1NxhNIgRqorPa9h2xlrw45TjyEKEjAYCIRmSBSVPtJGkKiChP3O7hIwyNSzmkYhvTI0JtGQCOgEdAITAEEypUgyLS3EaiSSIJbUlgWt0NNyKIJkE2W+TIpiyZA5udDE/o/KBzGCYIoGSee/+AIgtyPHrGENgxj3UENQO+sEdAIaAQ0ApMSgXIlCJMSzAMdlGUVVdmh4THwyKQspOHgJuQDPdUL7jdOWGRMhkFRqhw8HjwvLqIhokWxaP7uC55Y76AR0AhoBDQCkxoBTRCO8O2RCTmbM1W0wOfz4JUIgrtyP2oRBNvGNi2GUiZP92a4YE4lXr/3pUQ0hCB8/Ej7VBzhW6lPpxHQCGgEpjQCmiAc4dsrkYNP3LuP9y6qpqU5hldFD1R+YXxC3l80eLBDnCh8lM+WZAil40wkIrKvk2aw6BvN80hHkitOrMP30giCnHINcIVhGJJ60JtGQCOgEdAIlBkCmiAc4Rsmk/HQaJZQwEMo5Mcr5MAtSRzXAIhG4UU4HjrpApdwuN4HlmQwirC1K0FF2E9rXQifW82gyINUPFhCEooYRVtVOMjs7n1xKYb90dwHvMcwjDuOMMz6dBoBjYBGQCPwEhHQBOElAniwH1cTsksIlC2B2CCrFbxM7G66QfSCnmcjCgd6jvFogKpYcKoSxA9BTvfbjcPMqQmwpDVG0P+sUZIaT8EinrG4ffso/7KkTpGTQ0QQZOjSN+OjwE8MwxCLbL1pBDQCGgGNQBkgoAnCUbhJyv64tLn6A7NgKY7gM6Tq0MYf9DkCxoPY7KJNwbRUYYQKTBgGHokKWBb4fW6AwniOD4IQhIJZJJUp8PD2US49sV4JJn37eSUcxDD+3q43A28zDENcMPWmEdAIaAQ0ApMcAU0QjsIN2p8gyCQ90JPgGzvSfO70RizTwu/z4A8cXM8EIQiWZZHJWXSN5JjTFMEjkQjTAp9XEYf9rZbHIxrihSAVDD6PIiqBCWmIQwjRWuDVhmF0HMJj6kNpBDQCGgGNwGFAQBOEwwDqPzrkuFGSRBHEsEh8k7CxchaDyTz11SG+t3qQM9siLGuLKQGBiAqNcaMjwy1HlEyAY5eoCiHkLx4PplWkbzDD1zaN8fnT6omG/U7koKRzkH336+YopY2qZ4NoEpRYUnybDltfqhFXlyBNn/SmEdAIaAQ0ApMUAU0QjvCNGfcdkFnYLKLqHF3JgEzOogcQ0aDX51GreQoWHlnZl6IJVhGZyosYKhUhIkc5lJrOlebAOZwtx/A7OgbP4ZvsXwp61wDf0a2jXwqE+rMaAY2ARuDwIaAJwuHD9nmPrBopudbGSidg2SoNIDO7TOyW/F0MpA2beLLAnv4UJ7ZX4fM6RADDQ8G22bQ3we86M3zq9Hq12lcCRbcKQaIFhjAFrxgeeZXgcRJuwnOelnbahmGIkFFvGgGNgEZAIzCJENAE4QjfDJnIzbxJMlckGvap0L6QhGBI9AZOxUHRLKrowN54ngd2xnndcdVUVgaVsZL0TTA9BiOjOfYkTZa1ROgeytCRMDm1Ler6F7jVEG7J4/4phSN8yS90us3AWw3DWP1CO+rfawQ0AhoBjcCRQ0AThCOHtTqTEIS+kSxX3d/DLy5t5dfrhzl7ZoUSFGJajGYsVu2IUwx6uWRuJWbW5P89MsjnTq2ntTakjiGliypioHIKNj95aoB8zuSqU5ueSxBEt/Ai/BSOMCRyOrFo/ohhGD87CufWp9QIaAQ0AhqB50FAE4Qj/FiUfAdM6XdQlGhCQaUBAgEPtlnkHQ/0890z6wgFfUpfIEEAU8ofPaJBdFIFEhFQ5YkFS7VxcESFDlnwvDQHxCOMxt+c7jvAhw3DMI/2QPT5NQIaAY3AsY6AJghH+AkolRUqqUHBctssGyIXUNtYokA44sdvqPgAtkeMlBzhobI3ElGiSxAy6TzfXjvM+5fUqs9IpYP87mj0dDiEMP4VeIthGJ2H8Jj6UBoBjYBGQCNwkAhognCQgL3U3ZUGQTonWkWyeYtwyK+iAYZVxPB7VTWCLSaIbifoXMFi22CWBY1h5W4olQ4+N5KQz1ncvmuMy2ZXqH8TMiEVC05rh0kpTDxQ+Ha4JGHVgX5A76cR0AhoBDQChxYBTRAOAs/9myCVPlqajPf/vfz7831G2j3v7Eryh44UH1pej+HzkkrmicQCBCRcIKWPUung8TCayPOVp4b51Kl15AwPsYAXr1Q0SMWD8i+wHTIgVZOFIv6AV0UlJhYulClZyAEfBH6m3RcP4iHVu2oENAIagUOEgCYIBwGktERW8X7JB0gUwDCUJ4FTfyhlhuAtOpEAERLKv0saweNO6Kq/As5nlC2yVSQY8DKayvOu2zq58ZXtRILOBO84HzkVj4W8hWHZvOWeLn50YQsxqXhwXQ9lH6l6kNP9131dvPmEWk5ojjCWzBML+wiIZfPk9EE4EOTl8m82DOPfDmRnvY9GQCOgEdAIHDoENEE4QCxVJEAIgkQFJB3gNegdynLtujjfOLMBv9+DZRYJBLyqK6Jp22SyJl9d1c/HzmnG4/MS8BnqdxIZkK6JpU1SDnuHMrRVBVDFjrL8Vw2bnECC9FRQXSBHskinhY6RLKfPqVL7eMQaWZknGWzuTtJaHaTSA19cM8y7TqyhpTqoUhNlvj3gui9uL/Pr0MPXCGgENAJlg4AmCAd4q8YJgtejfAuGE3nCAQ89/SlmtlUylrG4acMQV51Sj8/vU+F/WeXnC0UCQS+Gck30OLbIrtCwdGrHG8FyBIjYpNMFoiGfEhzm8hY3rx1kxYwKFjSGGBzL0xkvcEp7TH28ZJIk/RskVaGsFEWr4KYe5FxTgCDIpYqZ0ut16+gDfGD1bhoBjYBG4CUioAnCAQLoWCQ7k770Lrjij3v5yopajqsOQNhPzrTZO5hlbksEo7Tql7SDZePzuZUIVpHHdsQ5dW4VvqB//MzK0yCRxYgG2D2Q4eV/3sdTb5xFJOhj30iWj927jx9d3EZldWjclrlkz6z+lBRCSZNYKnmQo7v/NsmNkg7wDozv9jHDMK4/2A/p/TUCGgGNgEbg4BDQBOEA8VIEwa0+EA3BvdvjquPi+XMl1G9TKNp0J0xmVAdUGkFpB7ImecOgKuRV87joEv68bYxXzK/E6/eqlITqtiiaA7FaFl2C4aFnKE1bfYThVIHKgEe5Kga9hjJBknPZqpRR+i040QJlrSzXoWonRdxY6u8gTRrc4x/gdZbBbgVASiFfaxhGogzGq4eoEdAIaATKEgFNEA7wtimCIL4FMtF7DJ7cl8Kwi5w8vUJN7kNpiy8/2scXz25S+oKNfRm+vaqbi+fV8Ial9WqVLz0YhCQoTyPgx08OMLc6yPkzYxiG9E3wqAIGIQFijvTtx/r51wWVNNWFnW6OQgbc8kUJZiiyIFqFYlE1dCqRhfEGUCUtQ/lrEJ7vLvW6ROFPwBpgp2FI7EZvGgGNgEZAI3AoENAE4QBRVGkAqRxw5mWKbrtmNTFbRSypaMibeIM+ZaUsLon/s26E/zirmahUJogrYsHia08M8dYFUeqqAphZi8FUgdu2xTmtOcwJc2vH3RKViZJtK3Gj6BKUsFG1YhZ3RYcYDAxnqKl0hI2qrLFUTSGdHgsW3oDPKYgo3yqGA7w7arfHgB8AdwFxwzCkTFJvGgGNgEZAI/AiEdAE4SCAK5iWSgOI6E9W7VJtYJk2v1g3xKUzY2qy9lg233iwizcsqWdbvKD6LAT8TkpA5vnOoYyKBowmCyxqjbJub0I1ZbrwuFrCQZ+KMEj6wS6I6NCpPrDzJkbIrwSJsknKIWsVufreLj59Sh2NNaFxq2X5vWkW+fgjA7x7cRVzGyPlbpp0EHdIZXLGgH7g18AvDMPYejAH0PtqBDQCGgGNgIOAJggH+CQoi2TTIpsxCYcdbwH5t5xpcduWURrDPjaP5nnHklpV5SC9ERQnEHdEj3ADw0kTAFv7Uly3sptvv7yFos/L7c+M8i9L6lUfhYKIGiWTIKkDldWw+crj/bx3WT0NVUE12efNosomSLVDUHoveAwVRVA2jJICsWFjV4pZ9SHVMbJELA7wUqfSbtLTYQvwIHA38IBhGMmpdIH6WjQCGgGNwOFC4JglCEpT4E7YapXu/jiRekc0WMr3q/08HlKJHP/5YC/fOG8aoYCHouEhnTV5fM8YS6dF6E/kmdMaU+mFzT0pmsNebto2xj8fX0Nd2KsmblExiLjxO0/0EcbgyiV13LpxmFcvqMZTLHLHnhTnt0XZGDc5pT5AQ3WQtXvGWNwaUx4LibRJxipSXxFwCIcMXHwSlL2y9GtwhImmaB3crEMZGyUd6uc+I8ZLwG+AjUCXYQgN05tGQCOgEdAI7I/AMUkQbJn8S1vJDtmynUnW9SkY75CkhH5qFiaXM1Vb5aBqpiSOiDZdQ1luXDvIx85vVcSg6PfQMZDhpjV9vOXkBmVg9PV1IzRSJOA12JUu8t8XtyqjpY6+ND6ziBHwcXdnioe7UsyOeviv05v5654EtX4PK+ZWK2dGVV6JwcZdo2xNWLz2xFpFCMRZoWhAZ1+ah3qyvOmkOsdnYYLNc5laLR/Ob6s8AKJRWAd8zzCMXx7Ok+ljawQ0AhqBckTg2CQIpeiBWCGLmVGmQOdQltnTYqrpkRIFuutKIQ2S85eUQSZjcu0D3Xzm/BaCqv+y2lPpBXzSA0EcFA3467ZRcpkCP908zHcuaSca8irh4sce7GFRU4RPntWMtHt++292cEZrjMaKAK+ZX0VO0go+Q6UN9gxmGM5YyiBJyRSlAsLnURoI2aTiQc4uo7VsGErkWdOZ4OLFdep3nvJu1nSkv0ujwDbgLxJdMAxj7ZEegD6fRkAjoBGYbAgckwRBpRTc9ELOstkzmuPH64b54plNapXvkaizKwiUCVmqBrKFouNHYNvsHsmxuivJG05qwCdEoRSk9sDK7aN874lePrC8iatXdnNqS5T3nFjL8FiOiGnRYRo8NJAnls5y5+5RzppTy8KmCAnbw+nNYZY3hbhl/SDnzqvmqZ4MF8ysoKoi6CRAlPeyJCkklyBpEKe0sWhaJHNF3nvXXr55aTv1YR8+VS+ptxeBgNzNp91qiDuBTYZhjLyI4+iPaAQ0AhqBskbgmCQIJdMjZYVsGI5tgFgTS7vkUqtk1WzJ+XfZ5471g+zNFXn30jo+eH8PlzUFuXRRLX5J9ItgMW9hew2+/ng/bdVBzm2L8uM1/azbl+CNJ9Zzw+ZhPrCohnWpIu9aXM2+gQxbh7PsGspJ2QHvPH0alWG/Sg1c9+A+RlIF4hZ87dwWqqrCiHJRujg6dsyORsLw+xTRkfJJ2zVMkjEYtjHlCMJ4V0xl/OCmfdyyz8P8DRSL5/8DvglIG+qc1i0cZsT14TUCGoFJgcCxSRBEg+CmGVxnAzVh/2l3ivcsqxtPFyiCoByWbfKmrdIRspYvqL5NRW7YNMIZzWEW1gZ4oDPJ3uEcbVVBzptXRdBjc+fWUW7fMkwOD9ee28Kdu8aYXxPktNYI/khAlS8+3Z3GSudZMrOaQNSPUbDI2Qa9wxnVurmxMsgdW0cpGAZXLqhUREFpCkS74No1P19L6ammOxjXjThyEGc7MgSh9EWVioghYA/wP8BvDcOQ1ITeNAIaAY3AlETg2CQIpc6Myl0IbLNIPFVg01Ce09pjeFWdoTsLuakItVI3iwynLToH0ty6cZAPnTENr8/g608MELFtZkU9/Pf6IS6fXc2C5gi3bR7C9sB7lzayaFqUn20a5YL6AHd1Z7igvYK+ZJ4HOhK0xfxcubBGOSau7kiysDFMhZAF6Rrp95DPmiqLEQl43cILiXZ4nOZMx8imtBfST9spHnVbYh9VG2khB2LOdBvwiAgedWThGHkY9WVqBI4RBI5JgiB+Bmoh6pYJyuQvjoUy9zgljqJBcP5UDooyJ1k2Vt7k5g0jTAt5uLsnw2fPaqJrOEv/aJZi0EdLxMt7bu/gzOkVvPn4aj77YA9L26K8/eQm9ozklE/C6+ZUKCvmdCrPVfd289WXtdKVMvnCUyPcckkrf+1Isaw5REttSJ1TzJhknM5QXUdFKWF0ScxUixQ83/duvCTVLCqba6djpXeydancDPzUJQxSPqn9Fo6Rl6i+TI3AVEXgmCQIZq6gBIfrOxIsnlmJ32s4ZkLu4vQ5/ggSzbdRBkmRoJdCpqDKDveN5bn2/r3EsgWmtVXykdMa1aq2UCjy/TX9jCVzXDavhmzBpLU2zLvv6uSKudWcOqOCE+sCvP3+Pr50cjVjRYMT2yvJZYt8+fF+Pry0jmjUryoXvB43ni7VEoYYI5nsGchwfJv0bnCEiseCjfJEgiASzdV7U8xtCDleEJOrWkNumKQipITyD8B3DcN4fKq+PPR1aQQ0AlMbgSlHEKRHguUKDr3K4Mh1EJIggITsxR/AtNjTl+b725J8YnkdFUGvaryE9D2QfdzUg5QLivdANp3nffd08bpZUS46vlYdcyRpcu6P13LZgnqKHtjcneD0+fV8/IxmNvem+eR9ndTXR3jbvEp82Lzvnk5++eo5yha5KuhlY0+a5pifb6wZZGF9iLecVM+W7gTzmqKqRFH0B8IPpLxRxiMr5+6RHH/cneKqJdXKyVFFPI6BPgvjBMFttb11IEtrhZ/K6KQjCM/3thBh41NuZOF2wzCGp/YrRV+dRkAjMFUQmHIEoW84w6p9KS5fUI3f9yw5kLC0+AXkc47i/9uP9vK2+ZVU1Uf46zMjPNwZ56MXziBiwD3b40S9BmfPq1ZRAWl8NJzIccfuJG88oVY5FMbzFtffv48HB7Pc/qqZDKULjNoekbhzUn2IvtEc7bVBda6b1w9w/5Yhvn7pTDoyRZoqQ6rSQSb/wXiOeMFmXmMY07J4ZEecs+dW41ONlp4tVVRWz5LyQHSKRzX3PlWe/aNxHSnX8vn3gEQWOgzDyB+NgehzagQ0AhqBF0JgyhGE0XiWbf0ZlrVXOGWBJTvlok3Ggv/4yz7+6bhqzm2PqZW6t1ikAIyMZnioM8Vlx9USCHhUlMEXlA4HBjt6k9ywYYT/XFbLXXuSvPqEehUV+L8NQ8T7k3jqYpxQG2BmbYiLfrmFH5zfyudWD3Dnvx6nKiL2DqQIA90Jk66CzayaIAubokpTIBO+ODBKqeTa/gwfvXs3d71podIYTLRIlkoKIThyPZogvNBjXTa/7wB+KG6ObvmkJgtlc+v0QDUCUx+BKUcQRO1umyaGV5wNi+NiQ5mJ5e2bSOSIRPyExfnQrWOU/P4dW4b497v2cM+VCwhYFv+xNs4NFzTht20VbahIZ+j1BeiK5/jWK+YQ8hms3DnKVXfsYkVVkM2pAu9Z3sqW/hQfPbOZ61YPKhHj9t40X3isj0+d08Yvn+xhfnMF7z+rhUzOUnbN0l9BUhaSW8/nTQaSBVqqQ/jEDVG8DfR2LCAgkYW9wErgJmCVYRjySOhNI6AR0AgcNQSmHkGQiEHeVHoCWW1LFUCpr4K0Upb/90heX7VstpW5kSzNE9k8w6N5qioCXPdoH69sj3Dv7gSb+1N89vQmvvTkID7Do7QCqwdyXNIWYfdQhvf/cRstdVHm1EX4yDlt3LJpkCUNYZIiZjQM4l4fl06P0lzh58anBjh/fg2LpsVYtWsMy2NwXntMiQ3zRYMbn+xjWWOYnWMmrz2hFt8xVMY48RtQ8nWY2E9Cfj/JBImH60srcaLtwL3AHaJfMAyj53CdTB9XI6AR0Aj8PQSmJkFwr7Y0wYg4UVUI2vaz9gbKY8CHWSw65fUUGRzLU1cZwGtaqmXz1v4Mv9o0xLWXtDMSz/Gm3+4gY9l88dxWKgJevvH0EO+ZV4HpMaiJBZjfWsHVd+zh/57s5qI51ezM2Pz8VbNpqQvJ4XmiO8O5M6L4RRRZcvuRCgUhMmaR3pRJQcyTBgu8al4lXhXlOPY2EZqqTYyQSimiI2uKNNlA/xPwMyngAPoNw5CsmN40AhoBjcBhRWDKEYT90VIGRzIBF+3xCgVFHNyujemxHN6In0Imx9vu6uKr57XwYGeSNy6uJZ/O88C+FIvrQ0yvDdE1nOHCX2xRjZg+cmYrd+5N0zOUIp41WdxSwS3/soBvr+ziT5sGSBaKhH0e2luqWFYb4ANntRAI+ZW3gqFsk5+d/GVCtE1bVUOobpJCZCTFcAxUKDzf0120nL4XYlglUR4HlGNemCmsSbwV9gE3AD83DKP/sL4d9ME1AhqBYxqBY4IgDI1k+OW2Md4vrZDdwgBL+ifY8Jm/dvPps5uUoHF3f5qYF54eLnDh3EoVdbhpdS/5os0Fs6u5Zf0ANz7Zw4eWTyMfCrCk2qcqHpKJDCfMruXl82q49sFu6gIe3nhSA2NZi8e6klRFArztpFrCAemdgIoMTCxPVCRGiIPyCLQxZCqQplFlQhBkMhcS5jVkzC+9SdSuwQz3dGV4x4IKx/a6FE04BJ4Hiiy6Roxl3vFSvBbWAA8A9xiG8dAx/SbTF68R0AgccgSOCYKQz+TZO5JnZmMYb9EmbRYZzFiqz4H0Q/CHfCq0/63H+zm9NUJNwENzxMf6nhSP7UsykDZVW+bj64OMZCx2JQo81ZmgujLE2t4kzUED2+/jI6c28f0netkxmuPKRfX8ZleCk1sqeOsJNbTWhlRTKGkUqVbDE/QF430GSg6O7m0uF48D6UuhqjGkKuQQEIRstkAiX6Qm4lOkQ83oUtp5CAhTqVRUxus/BGM95N/IF39AqYj4IyAllFuBXm39/OLB1J/UCGgEVDS7lOQtbzhU3tqyJdWvjIVsWc2KlsDrwSza+GVh64oU1+wc5Rs7kry5LczsmhBRigQifl57Vxd3vmoGazrHuGVLnE2dw7S11/L15XU81pWmq+jh3SfX8cHfbGfrcJp3rWijwmMz5PezqTdDfzbPV85s5s5Nw/QXijRWBPineZWEpf1ywKfsnMf7DE3PUZhIAAAgAElEQVSY7J63U6G6jslbxaDGLJiLEDNt8uOtCT6wuIqQKg39x9vfNF7aL31gWRa25XS3tgumg5v8vIgIwvg4XVNKeT7u70ixvD5AVSwwVVMXcpn3AdcbhnH/C90P/XuNgEZAI/B8CJQ1QSg57KnSRqeFj1ptykQifRM+s2qQTy+vwR/2K58BIQoSvv7LjlFeOT3CUM5ShkV/eibO+dOCdKSKtNSHaYz5uXP7GOu6EgS9BiExMIpb/PiyGaSyJr/fNMzvto/w3iX11IV8JG0PZ0yP8YOn+/noqY38tTNFRcDD7X0F2kIGKxpCnDO7Uo1LTXJ/ZzUs1zNRuf9iJsQj9ZiPT7xSwG8WeWYgy6KmCH7/Cwsrbcut4Ct1ZhRc9idMck8NuGvHGA1+g5NnxPBM0G0cyHVOHGPJRztbRHXunFblV82vROsxxfUN3W6b6lslwmAYhpRT6k0joBHQCLwgAuVPECS8LVbENoiL4n17kvzzknoVzpeGSOKmuLovwynNEQIBH2beJJvM8v2nhqj2Gyrd8OrF9bzzz7sYSOR4w+JGlk2Lcv+OYeqrQmzpSTKQNfnuZbO4Y9sINz7ZqzQEXzu7lbv3jLF6pMDXL2hjbnOM99+xm8+c3kR9jUM62rxQUxsmGPDQXhcZb7rkkR4KBznZveCdPMI7jNsfW0WKhqF+pErE+wKlmaK1kMhDqVmWIkWChZAmt5RRHdt0PCwkfSEf8fsPXrSpIhWiOVDE0QEoL22ypcRV7KylfGXqE4SJT0bWrYS40/VckA6U4sGgN42ARkAj8DcIlD9BkMnGluyCzVCiwNPdKV62oAaj6PRduH/rKNc+1sPvXzOHmgo/G/sy/PzRbtbGs3zj7Db8PpjfGObRnjRv/M026ivCnFzp5bbdcd54cgsfXVbHWx4Z4MwaH3fvHMPM5vjkyY3c0p3noiY//7cryR/eME+FwR/cMsSpM2J8e/0oi0Nw2owKPvZQD5fOr+Vlsyqcng8+r1plT+bowIF8T0qTr1J9llR/B5AWsdSkDYNjWbpGCixpr3DmbtEvuN00n+294M7sYiEpFQ0HmXKZSBBUu2gxpJI/nbad+OXMMvYXmb44EJwm+T5x18nx51IdYRhGYpKPVw9PI6AROIIIlDVBUNOHEAQpi3PD9zIRSE68Kuzk+3PSptk0CXk9PLQ7odT2t3ckMfIFHtub4H9fO5cNvRkW1gW5+r4uBoek3XJUNQL6zZYBPrG8mWUzqyjmCnzu0V5afGB5fbxqbiU/2jjMipnVfPzsFhUOv3XdAD9dN8CFLVGuOrNFEYHX/HYX3zizifc93MetV8xSHQilfG9ihcLzyUAmO4EYJwjqYRWzKWl29cKTeIkgDMezyvdhYXMESzpXStWG3EN1U93lfqn19t8pc5yI2/54jZMM9Yw4Blljgym6szbzpkXxSRSnFFrwOBGFY3iTiogB4FHgRuAuwzCkK6XeNAIagWMYgbIkCMpYyJ1IVHmg26ZZxIlDyTyfvL+HL1/YQlRW6rbF954cYmGlT4WXNwxleffiGn709CCzKgPURnxsj+fpSlvMqgnxZMcYiaLNK+ZUEbNM/t/de4iG/Zw1s5rmiJeHd42SLxQJRgI0RQN8+eIZrOpOq/TBfXtTxEfTzKkNq6qGa8+dxrr+LNWGzerRAlfMrSLo9+LxGSqfLmMXNdnekZzSRpw9uwKf8knwlkWnxucQGzeK8EITreopIWTC5QFyjBs3jPCG+RVEo0Gnq+bfiRTs37xKpQ8mnFf+qp6Mou2UW0q0wutV+0jkIJ0u0GPC7KqAU3HhcoIXGvMx+H4Q3YKUUEoq4l7DMKQjpd40AhqBYwyBSU8QJtrulu6N/JtpQyFv8edNw7z2xFq1IheiIJNPPlNQjZacSIKP0WSOrz3SRxiLU6ZXsHhahB+v7uctSxv50ZMDjA0l6c3bfPD0ZvpGcuxMFrhh5xjvnl/Nj1Z18sqFDZzfXsGobfCJO3fyzhVtSDL3bUsbmFkb5Op793FeQ5DTZ1Xx3fXDvHZeJes6E5zQHCUY8rNqIMdFLWFaa4MEfB4nxSCiSUuEeDb9YwX29ac4ZXalmrhKZg0HG1Ivh2dX7p0Qtd1DWeZU+TH8XopmUTWnUvpNYX6uRuAfXU+pEkJ2L5q2qnjojudprAyoRlqS8imxELWPyiY4Bgge8bGUc02tMsfDefulR8QtUgAifNYwjPThPJk+tkZAIzA5EJj8BKHoiNSKhngHOWFoFUEQglCwWNsRZ9msKrXqlFW8lTXx+D2YOYur7u/hexe1ErQtugfTWD4fMduivwCtNSGuuX0X58yo4quPdbGkNsx9XQmW14X4yuWzyRoevvBwN+2eIivaq4iFfPx+yyCP703w49ctIBXP0lEweNOJddz+dA8/3pnmp5dMJxrxqfp6J2zuURGBAgZfXdXLvy2uZVq1QxJEKOeY9jgGSeIeOB5id8PdSmE/xTa1mreKPLxrjFObQvgiATVRq74Ywo3cVtYvtKoXgiA6RokZSCRAggU3rh/mzYuqHSMq+ZVoF0QioYiAQwpK2Qs5l/JY0NuBIiA8S/qdDboNpb6le0QcKHR6P41AeSIwqQmCU6Zmq/JEZ+KQxeWzk6ZyIJRwtSURBbEo9BBP5omFvKobYipjEo368UpZnVWkcyTHv9+5hzedUM8dexL07BshGg2xayzHSc1RXtkeUy6KccumtTrI7x7fx6Xzavnl1mH+Y0ULv90+yinTYng9Nn/ZPMDLFtTx5VfM4eYNwzQE4Pw51XiNIt94cph/P7GGimgAW6IEHg8F02JkrEBdTYiA5L/3N0oan7ncB0ny8VOQIAg5cPQBDhmQ+6KqClwBYanyUe7fP9okPTOSyPNIX5ZXzI6pZ6OgIhFeVQEhOg/HmtKJGkzFaMxRfuWIRmEnsA74FXC3YRiZozwmfXqNgEbgECIwaQmCihIUi1iFIjdtS/D6OVHCYf/fiPtEoFiyKk5kTL67fpR3LaigtiqgGiJJvl95I5iWck98tCPJwsYQOwYynFgX5L1/3s3l86rx+L18e2UH586t4YNntPKLZ0bZsHNYRR129o/xv6+ay5g/oMokv7N2kFOr/BzXXsWVJ9SxZssQK4dyzK0M0lYTUFbJ8xrCbBzMsmJ6TEUGUukCH76/m2+/vJVYVFbNzyU6pXC4U/83uU2SDvT5KxE8ZzkvF+WE+XcOZWmN+ggFnTSAKyFhz0BGkcH2+rAieBIA8Jdg2s9MSYSHw2M5VvZluWJm9NmIzHg1hEfyTeNljCrW4PpM7B+dELIh4kmJKKjfudUUB3qdej+FQB/wF0D8FjYBuw1DmYbrTSOgEShTBCYtQZDwu6wuJb2wqSPOwtaYSh34fM869Y0bJdk2vT1JPvxwL//7ynbVCEkIwVdWdjN7Zg2vmRHihs1x/ml2lDfc001DNktH1uTlc2oJp7LcP1zgnQuq+cO+NImhJD1Fg9+9sp33/LWXgbEcbRUBrlxYw5z6MNfcv5dXzq7ie+v6+ePr5nNCa4xcoci+4RzttUGVVhCfg66RHF9cPcTXz2smFPAwKnqIkBjzeJVi/4VC6GX6PD1n2BMrCdQvChZFn5dPPD7IhxbEaKoKOj4FkisIeBlJFUjnijRV+slkTN794AC/uqgZI+D/m0m7KC29TUsxiGK2gO33I1xCtAyuyYKj5XB/ShoECVrs3+OiYyDFdesSfP+c+vFeHR6pf9XbS0FAKiK+A0gnypyuingpUOrPagSODgKTliCoqIBKMtsqTG9JB0TbxjfhxV2KMtiFIhsGsjzdl2L3WIG3LqikOWDwtUf7uHNvgrvetIBnOsb41u4sn19WrdTyd2wY4LMP7uPq5U08sifOmS0VeCMBlrdEuPqeDqJeOHNGNfd1jvH9y9oJeAyuXzPIeU1h7to9xluWNXL2vBr8XkON7/ur+wgWLN51TpvKp4svg8Rgg16PWul+YdUA17+sRSoB8Uolw0HW9B+dx+OlnVURBEkBuWWGZjqPL+wnr2wNnu3bUIo05C2bax8f4DMn1+EJeEnnLSpDXqcDpt/3HFLlRI6KZMeyfOyRfj5xRjP1QjjkfMICSiWSrhGSWHFLFUMo5HuOD4USTeYtElmT2pjfuWDVdGrq6T9e2t18UZ+WeJh4K0jXyd8BvzAMY+OLOpL+kEZAI3DEEZjUBKHk9T+uLJN39wQHQnm5FywbT7HIQCLP411JVrREqAp4+PPGIX6zbZSuZIFzGoNcdnw9S1pj2KJNyBfZ2JfmBw/vY2+qwBVzqvj17oTyOFjcFOO42gCfuW8PLzuuka9dNJ2YBzb3pPnltjjXXzSdm58e4ITpFZwkpMLnxS5YdA5leKo/y6sWVjOUtphW6Vdhb7U6lhh6KV5esDBCgWMrguDqSKS/xetmRwlGA8/xOpAIjJDBsaxJzGcQDPtVlEUwi+csBrNF5taHnoOZ9GsoWjYrt4/SOZDi4sUNymNCsE6mCnSmLI6rC6hHxy+iRRtu2xpnaWuEGdVBlwc4gle1U6nUQXYUwasmCIfjZSQe26JZkA6U9wKPaHOmwwGzPqZG4NAgMPkJgruiG18Z7vfizhSKjCYL+LF4qitFQ6Wfnb0pVnanubg9Rk+ywModw6wezPOVc6ezNWlyQrWP33UkecvxtRwvVQtrBnnTnChZKb+LF9jUneCuzjFOaYhy9uxq1g7muKM7zR9fM4uwV4z3pFQONg7mWVIfZFe8wKLmCEbBpG+soBoXffrUOrzB0orUWZWWVPWHqjPhoXkEXtxRns/c6W+OJOkDIUYep8xQvAh8YhIl/+OaV8i8/ItNo5xR7eOGPWk+s6JelSRIcyvZ1nUlWTNc4B0n1jqiRncz81InYjOcyvP5p0f58hkNKLkJBp95YogmLF41M8ZvuvN8eGm1M+E7xQxK6KoaREpTr5KXghy3NKz99A4vDiH9qQNAQKqFfwHc7OoWhrRu4QBQ07toBI4QApObIAgIbsfAcTxKpWmu6n/HvjGuuHMf71lYw3uX1/PgzjifeWAf7TEfoViQ717eztBwhvfc3sGSxgjH1YfoLaCqDPamLWbUhvj12gHu3pOkdzDJ+W0VtFf6OX9JI/dtHeFrq7p559JG7urL8d3zp/G+e/aSw+CmS6azqjfDpXOr2dSd4rQ5lRh5C8J+NWTVb2HiWPf7e7lrECRkr3wcrCLDaZP6Ssd8yOP2xsjnTEaSBVVFosSIQhSkWgFluOgwBjVBOz0zApJ2MZxmVeKNoJpWuTddlUZKXWImjzfkVxkE+V8xrLr24V4+tKyO6ojfaRTlljwKH0hmLPb2p5jXEnU8kySt4X/WNVHOIdchlRWJlEl1RNIYqHSG3o4oApJLFDfHzcAPgJ9ponBE8dcn0wg8LwKTmyC4k4iaRdSq00kxjK9ebZt7tgwRKpisHMyzoydBtuBUK3zqnFZOnh5TosEvP9hFe8yvzJX2xXNsjBf4r9Oa+M2mET5wRjO3bRrkD9vivGJ2FevEL8EsEqkKsbQhQrVd5IGhPP+2sJpUzmJedYDHOxJEYgFevqCGvqTJH7fFuerkOigUMWQCe4GGRVPhWSy5EyYSOX6/J82bFlYpUiSTcL5g8T9PD7O0xs/02hBN1QEV4hcyIQ6SiiBMsCCQW/vrdUNcsaCSkJAD0Q3Ij+qb4JCB258Z5aSGEM0VPse/wO9V9ymZzBMJ+9XE7gs8V9shosfOvhSz60P8z6Y4H1hag0fabk+IQkkFQy5X4Lo1w/zX0hqiEb9OLxz9B3RYAnTAPcDthmGsPfpD0iPQCBx7CExuguDmh1V/Hzcn7SwfXXtlWQHmChQ9Bis3DXHNvXu4+fXHkcgWMM0iy2ZVEs/bXH7TM1w+u0qJ4zpSJv++pJ5s3uSbWxL832Vt/HL9EHv2JXh0OMvnz25lKGvRnzG58sQ6PvWXTlLdcfJNNewZSPCyWdV88twW1b1Q/A0GB9I8M2ZyzqwKNfF5gs8txZyqj5Sz8nbug1rruykUIQnKxCpnKqGh8pJ2HS7/tG2MWq/ByW0RKmMBFW0Q0EzbICXNmzKWapzluGI6EQTFEbFZ35Ui6IG5DWHV2VH+/emOOG1hL9/fnmKmt8hbljfhdVMTgruULhYKRfX5eLJALObH7/UqIiObRDzkOqScVvQMyjtBfBmkeZPWIEymR/cpV+R4O7BV+y1MplujxzKVEZi0BKEEum2aao6R8jfxLlgsQkOJVnsNZZJkmiYer4eP3t3BKdUBrlhSr17277mzk3csb+LWtQNUWCb1DTECsRDLQjbXrOzm5Sc08PHTmvAbNlf/cScPbR/msjm1NLdW0p22OGtamAvnV/GHjcMsrA6otMOqwTyntUaIBr3cun6IPhPOagqTyRW5rzfDx8+aplo7HwsK+L8pYSzdMGUf7ZACuU+JVIHBVIEZDRE1Gd+xYYiKoIcLjq9XE7dsBdOmbzSrIjrvXdGIP+RULEirZ5W2kLbPBYtvbhjlQ4uqCQYMZa+8ZzhLQ8hL3rRUBOCL57UQjri6D9ed0jQtMskckcowq7aN0lgfVh4VqtxRSIiQlAndKBXzULbP2mVxkr74JLrwaeCXQNIwDBE+6k0joBE4DAhMGoIwbqrjWu3aYnKj4suQzJqs6xijq2BwxXFiq+xMGk91p7lv1ygfOrWRt/9xN1e0x8jasHb7EH14uXROJQODaTYO5yHip1iw8ebzPDKQ4Z+XtbA+XuCGl7fwrl9t5uFdI5zQUsXrT5lGQ9CrJv/XzqugK1HgfzfF+daFLdy/J6kqFT58aoM6t5CG6mgAqcnvSxZImzaL2ioUYSnnbXzylwm0lNrZr63zuPLf7bSoRKTu5mSEbJ7uTTPNYzNqonQAsms+a1H0GkqXUEJJ5AlrpXdFXZBALKAqGiQddNP6QaZVBrlobpWTVjKLpKXSQdpmB31qcu/tT1MrzbGKRcdIS0V2nMldBJJF0+TuZ0a4eGEd8YypyhxD4r5k265Y8dmGTyoy5RKEY4HklfMzCgwBG4CfAL81DEMEj3rTCGgEDiECk4cgFEyn1EyEa679rioR9EDHcI4fbhji3xfXkCoazK2XFaDNnv4MX36ij+9d3k7/SJaIz+C7qwe4f9cIyYLNea1RFjWE8YYDnFbn5x13diIFbv92Yj3nzq7kHQ/08uUV9XzqoS6e6kpww2vms7YnxZODGW78p7l85K89zAx7eOXMGLMkcmHJHCVeDF7+um1UldK9c3kDds6kP2Pxw7VDfPKcafjKXINQ8i+QidaSskxXXKgaSSmfAYkQiEbALeEshQtkXpYKAek/YcPKHaPcsztBe02Iq5bVqdv7RHeatqoALVEfW3oztMR8VEZ8DulTH3dSC+JNcMeWEebWBtkuxHBGRKUxfvzkAPNiPs47rlZ1brzjmVG2jZlcuaCS6XVhPK7/hHxHRPcgPTyEWwTk4G4lhe1WUPg8HhWdkuuQKMYT+1KcOj2qtAwTLb0P4fdNH+rwINAB/Bn4DbDKMIzC4TmNPqpG4NhCYPIQBGWo4yjKs0WISJjXbcokGgNJZq/uTLJmb5K3ndqsGh6JMn7t7hEG80WWtcVIWjZtlQGlgr/l6QEe2DXK+jGT82qD1Ed9/G7TAF99eTsntFdSGfTQM5Ql6PeojotPdiYZy5n05WzOq/fRUBfls6sHueaEKmqrggSkZFFWpLLylA6EQmIkGu16/ssq2JQ20G54vJwfIyeaU1QTtThC1kR8hFSLao/qkCnYiY21CgmUSg/l/rn9I4TgqaIFn4dEKseafWnOm1OJZXhIJ7L4g35lPNWXyFMT8vJ4d4bWqJeZdUFVCikVDfsGM0rjIH4SnWMm81qjTmRB+ix4DHb2JOnOG5zVFlaiUPG3ULUHko4o2nQOZtk1kuP8mVG2DOZY3BTGEL2DWeSZgSz1PmiSyIMas6H8Krb0ZTjO3U8ThLJ9gvcB3wX+D+gxDEMaTOlNI6AReBEITB6CILa5BgwPZfj0ulG+eVaD8uNXZWtmkUd2jXHDtjiJ0SzffuVsmioDagJbuWOET965G+k/+4a5VUqx/ooljfz5mTg1HtEi7CZWEcTOm1zcGqUvD5+5oI32miC218v77+qg2u/h0+e0cN/2OBfMihFRTZaKFKwifp8H2ycleCK+c8VtluW0ZXZbTKsFdKniYgq48DkRBEutvG/ZPMppLRHV/VJIw7WPD/Jfx1cQqAypCVm8CWzTYmNfhlm1QSoFO4ksqBg/ZHIFBhMFWmtDTupFXBWLNumsxbvv7+GnF7eSSRcYKdhc9UA3C8IerlhURx1F2hsjVFcEpZ4RRHwo1tuGB7NgctOmOJfNjCoTpFqJQLg9FORPISfZnEk2XeD3OxKcGPOyfEGtElM+sH2M2YoweomGnv2ccusEtvemWdAUxlfysHgRXyr9kUmBQMrtPPk50StoojAp7okeRJkhcFQJQql5jppLZFIRi2LTYixXpCLsUytFmZRkulm1a4yagEFj1K+aIJ01p4rBZEGtbh/bMcKuoSw3bh3lvNYIF82q5KuP9fPZc1pUpUGV2C4/uI/TZ1Txu54sb51Xwa82DfOhFU3MqgrwZHeKjqTJKxdU80BnkrDX4OWzK4lFfdy3Nc6y5hCVFUG+8Ug/H1peT0CiBGL/W8p3C1OR/LWjfJsSCnjRgMjqWkL9SvVfSv8oZ0hDCRHXd2c4aVpY6QP+ujelTKOaxM1QVZo4VQQ/XTfEPy+oojLsdyyThVAUbfLS8rkzxbkzY2pfsaUeGswQCHlJ4KE66KHC71EEQMidE63wUCxYSp+QMh0Tpv/dnuAjJ9e66QQRrtp4pHhCiIRZVCmNE2oDVEWd89+zK8EZ06Oqfbc4cLo8RpEPE4OHOxKcPbNi3Khp4vdZCxfL7O327HC7gAddQ6YHDMMQ8qA3jYBG4AUQOGoEwemjIIp3Q4XtDfdl7bQAdiYQMS+6pD2q6t5lVSiWxj97so/79ya44dVzuOaxAa49uY77dozyWE+af55dwSfWDPLO+ZVcsqhetYDeNpLnJ08PYFi20jCMWTYttWH6xnJ8/akh6gIGi2rDnDuzkkUtUVbvifPD9SP84OWtVNWEuH93gqX1QWoqggwn89TJRCNhaZnVpBRuYptm1VZ4aqjfx6MApftTci0SzuZaE/9w8xjvmB9T6QI1gSvfAhVOwZJyQikvTBWoDvvGSYaUh/5iwzCXt0epqXCskEuahQ/9YTv/urSJM2ZUYAgxcLs5yn23vB4S6QJ3bB7inNlVXPNgL9efVs+tu9O8ZX4FBb+XrAn37hrj7SfXqxSIpBrEzCkg5kiiWDAcfYToHBxDJVulsRRpsZ17l8ubPNSZ5LyZFSqNpSJFurJhKr1IJQVxE/BrMWbS4sapdGv1tRxqBI4qQZCLycvLN2exqjPBWdOjEPLjs23VPOeTDw9w3VmNhIMe7tk0TEfGJFoocGp7JYWizZz6kMJjS3eSBwfybBvK8bbjKvjd7jTvX1LLO+/rpoIil7VXMK8mwAP9eTKJHOfOqqQi7OVLawb5zlmN+AyDuroIqoOfiNyyBfwRJ4WhJhQ31y4rSDVh6E2VLOZMZ7INqAiDUw1QzJnKxKiImCY5pYQq/O+aXQmmYxmTSNCNDHg8eKUxU8bkuof7+PhpdQQjQbcE0sBbMFVVgunzsHlvgnu2jfC+UxvZPFKgMeanwQuDBUhYRY6rD4tXFZ68qQyrntoxwuNjRd63okGNS6IOQ4k80xujZLIFNvWkWTGrUhG9EtfLFoqs60qwdFqUoBCEUndIt7pG3/ophYBEFq43DEM0C3rTCGgE9kPg6BEE10JZVqNmzuSePSkumhnF4/c6nvpFe4LLsk2mYJPJ5lWoWKoa7t06yohls3Mkx6WzKpSJzm3b4+yIZ+kfy3GNCBkDPhZVeDHDAbwYtNUECAe8/OLpIZbXB/jOxhHesbiWE1piquxOOfhJHb/qteBYJY+7Nrp18zrM7DxBQhBkMvVL9YFgUyySyFns6UuTlenda3BSW8whDy7RUpEi8TeQ/y9Y7OpNq9X9jIYwf9kyzFkzKwkGvTy+L8Wfnxnhvcvq2T6a52WzKjANVBrpj1tGeNOSem7ZGuf9J9exdzSHX8SMdSGe6suxsMpPJOxTfOSxvUkWNYaoiviV/kFIyGA8x6MjBS5sDpEo2OzJFIl6bJa2xfC7JZtqnJLRUM3B5JmwxHhDeyNM3dendJuUksmfAbdqvcLUvdH6yg4OgaNGEJxJo6jy9crJzrXVlTe7vMxVqaO8pt1iedsUfUJBCQvFNEdaAUvEQJLPLVE/n3+wm5DH5pLZ1fzPxmE+c8Y0bt46yoX1PuK+AM+M5rlgViWnT4+q3HVHPM+3Hu5SVQtfvWg606tDjn5Azl+KEpTaBk/AVBMEBwwhTql4ltt3J3nd8dXqno0k83zt0X6uOrGG6pqQWoGrSVcIhcejKlTkvm4dytEQ8VEXciyVRc8hLbEjkYBKLYmTpQ9bGVI9snuMgaTJYNbkA6c1ccOmEd68sIrV3WnOnlXBb9cNcXd3hs+f0ahcM9tiAZ7oz3BKU5iH9ya5dH41mbxFVVgEicoNm7u2jBD3ennD/Er6x/IqhVVXHVR/qtTRuLW3oylRm27gdHBvlvLduxu4DbhFqnINw0iW76XokWsEXhoCR4Ug/I0Ln8pDS2zYo8Rvqn69KFGDItGQdzzPn0zk6E+bXPtoHz+8dIZyLXSMfAyKqRwP9eX48iPd3PrKdiIhP3/dl+LpfQlOmxbllr1pvnlus9IeBIMBqvwop76RtElzbZjfbxnjtMYArfURlYsuaQwUgSm1BD6GJ4mJmgSVThAHxLxFwSwSDnmVxsMSEWHeVGWHEmGQP73qZjoixNUdCcaSBcJRH20VflpifrxBH7uHssyuCrC9O6FEoqbfx1XLGxhK5rl58yhXzKlkekTGkm8AACAASURBVJVflSmKCFHcGTd0JZk3LcZHnxjkPxdWsjthsqkvzUUzKxjx+ljeEOTh/pzSsHz58QE+dVqDKn+Vey4PmcgTvYoMCHlxPBjknquIwYSujuM9QLT18kt707ikcvwgrnZnklta9wLfdF0bB7S/wkt+BPQBygyBo0cQlOGOq44vlQlK5EAt4Gw2dyW45v5ufv/6OXgDHtIFm7fdtZfrVtTxiVX9/OT0WqKNMSVyHIvn8fkM5UHw2K64qm5YWBuiO2Py9KjJlXMq6CvYqs3zFx7pVQ2WPv+yVlqqg0rEJtuuwRytFX529aWZUR8mGguoEsfnpBnUQvLY1CAoZ0u3e6P0KrBlHhVSIGRBiJNb1SHtmZsjXnrSFsc1hukdyalyRUkj3daZ5mUzoqrvgtgqL2yLcVZ7BV9euY9Pnt+qJu1dfRlm14WIj2b4f3fu4dXLmjixMconV/Xxw0umUxf0kItnyAUCVHkNJV6UMtSReJY9Q1mWzKjgj9vGeNnMCmqqAvglpSHeCkpL4BCbcWtlqciQrVROK6JZ18Z7//t8uO67pDNUT4iJkasye4kc6HAnuqWWiJcKzkxu8qVkMyJ1Av4X+KnuNHmgd1zvV+4IHF2CUCIGpRCuG9KXVekjO0a56ck+fnDlfKVFkPK2sXRelT/uiuf53ZYRFlT6OHVWNV3xnNIbtEW87I3nGBvNcEtHhlfNq+Kp3jRvXFjDvrE8Z8+MMZA2+fnTg3zozGlK7yCGR+v2JenJwXkzoty3J8mJ9UHmNMecMku9OSkCEQsqe4SiMoeSLP1PN45w6QwxMLJYP5jj5bMrWNOV5vgqH2N5S6WDbtwwxIdPb2bnaJ67diX40IoGpQ3YN5bj0ulRQrEQhlGkP5Fnc3eKn2wY5uoltXSlLYZSeWZOi3F6U4iRjMUfOtO0emzWD2W45sxp/GFXmtcvrMawLB7vzVLhM1QlyqqdcR7rSXH1uW1OF0nbdsbsGkCVFIlq0pd/cyeobCrPL7cllNDVFxHPzcO/CTEQi+6I6F6m2PM2rt+ZAGPp30rYqzYYz3Pdh4uQHYI72gM87Box3ab1CocAUX2ISYvAUSEIahGnuujZTl5alOyygnJfFNJ1cddAhnt2jqlQ861bRrnliS7aq0KcPquSZS0Rbn5qgJ+s6+UrF8/mypMa2d6f4ltrhgjZFv+6oIpNI3neuLTBqd/PF/jh+lHeurSOsNejvBZ+un6Et55Up7QMV929l0tmVvG6xbVUSbhcVsTSdvgYjRY839NaKJjcsGaQe/aM8f0LW6iuCrGzN0VrTZCBlKVcEU+ZWekYTGWcifbtJ9U57oY+D50jeTJWkVk1QaXzkPTEex4e5EdnNTCYKahVfipf5JYNg2JPiSeTY05ThBkRL7/YEufDyxuIGPDL7QkG8xYzfHDhcfXsGMlz+XwpSfQ6FQdFm9GcxRMdY5wzr0YJXiVVJeJUNRGZjnW07OdV0YNnPR4cJiQ+Dx5nnyOwiRnXEyMWp9W6vh9H4JxH6hQT27KLQ6Z8FeU+701azKxwvl/KC0Wl8dRj4nQBL59UnqQgpBfEr4DdusvkkXqy9HmOFAJHjSDIilReBKMjWdb0ZbhgQbWzYrdsTDfvr/iCVSSZtchkCkqPIKmE/17ZxQ37MnzvnGaOnxalJuzj+rv3sKg+xKLplVy/doTvn9tMMOhDJrafr+7j4vYY31g3yifOb6U+YNA7kmGwYNCRtriwLayslCXH7ZXUh5g6Bn1TxtPgUDxMhbzJWL5IKpmnQVwsDYOBoTTTGqPq8OplLyWhXiUtVRUO0hRJdWw0DEUI0pZNZ3eCdQmbKxdVqz4JMmnfvmmY/v4kacPDJaI3UL02DDp7x7huwxifPLme/3hsgFsun47HtChkTR7sz3He3GrVyKteKlBE1Or3ql4MloxFJviC0/DrS5sSfPT4CqV3EEKaSuSorgmPT0bOX1wfB5nF5BqOUNhbzKTyRVQqxOdWfByK+zWZjiGYS5RJlcVaJtsTFgvrg2waKaiFwYL6sCIOYZ9TOVRGBKEEs9g5DwDXATcYhiHGrnrTCJQ9AkeFICiTJHl5eyCeKLBrrMCSlogKB1t5CwJelZNd3ZVm+bSIWhmKkVI6U+Cx7jTnzqpgOF0gYMPqvozy2f/iPXs5riHEG08SgySD+pqQmiwKls03H+pmRXOEefUhtg/lCIV9SBvgLz3eyzfPa2VecxSflLG5q0aZ6FQUYYqFfJ050Fb9DoR4SeWBMgpyJ0XlVyD3RS3lZMIv8vNNcc5vCTG9Oug00pJGTAWpMLFVT4Mav6HcLH0egxufGSPmgX+aX4lfOiYWbbpTJnVhL9tHC1R5bD73SB9fOKeZv3SmecPCShImqvrkoY4UzVGv0jWsi5s8M5zj48vryBYs8nj47YZh3ndGI13xPD94coh/O6mOqM/Lz7aO8dnT6tW5fr1JBI0xrntikA+cXE9tLKB6SuXSBX6ycZSrTmlQxOWBPWNcMrsSj5gxyb12v8bqOXNECk7kaWIHy/18EBzRpqMdEKLjkYjE32nSpZ5397D7pxGU6ZRjLzUlIlaqIkmyNqqvlzwnKEfLVd1Z7utIckpjQPXYWDotwuO9edqq/CxpDKo0S22w5Jnh6kTkOJLMkuiQEDa3s+gkJxDSZXKN69r4G00Wyn6OPKYv4KgRBNUMSPnfG+RzBQJBnxIMfvahXj64tJZQ2M/7V/bxg7PqVW8E6SooHRt/sXGID5wxjR893stgMs8TPSl+feV8/rRxiHv2pvjC2dNob4yxeyRLddBHpaqCcMops3lLTR5n1AdIqHzzKLe+fq5q1iR9H46FlIJMVulUXvlHLGqKOC0MJpTyOROj84KWKMG2vjTTKgKq5FAWuKIFeWo4z4m1QhjgxqcGuaAtwvSmKA9tH2HXYJY3S2oh5Fdk46YtozwzVuD0hiBLm8Iq2uMPehlNFKip8HHT+hHOaIvSPZLl5OYwwYhfujozkCxw/aperl7RqNI+e4ezLJ5eoZ6Db22IY2UKnN0SYW51kJYqx95533CWxsoAv980wuLmCAubw+MTixgjBSIBNcls60vRM1ZgaUuESvk3A3I5S/knlNo9q7eCDERdtMS/n5tyUqJN4VkiMHTTFv5/QBBy4ugoOoMpmraamE4owSYEQbCRPhvDiTy9eVsRypV7U/zTnEpFROV7J46n3fG8athVGQuwZShHJmdyZktYfSeFyHq8z1YzTXKCMHFC2Qv8XrwVhDRo18Zjeq4ty4s/qgRBXrBjaZP/ur+Lb146Q5nu9A2kqKkMqtBxdcyvXsLyUhUTnm8/3sd/rqhXPvmPPTNIQzRAb7rAWfNryVs2V9/XxRfObKKiMsT3nhjglMYgp82owCudCKV1sajwJReqqidsioWi01dBOjQG/GV5Aw920PIizyTzakKeLQShlIN388HiVyDRGtUdWXkXOMtBx5IY7EyBuzrSXDSvQpU2DmUs1ozkuaAhyI6hLE/sS/C642rYNJxjYUOYu3fGmV3pY7fpYXHU4MFdY7xpRbMqHFB5Z78PmWwTGYtwwOCxjgSLG8PKk2BbV4ITZ1axck+CP+xJ8q0LWlSKoL97jPc9Psw3z55Gc22ImqhflT9KuWIxb+EL+cbJjLg6SqdGEb5KikFOurs3RTqZZ05bJZGon0y+yKvv7OJPl7YSFdGCCvU7EZRMxiQc9SuCOZFAqvJat0/IzZtGuXxGhNqa8PPeDokSZC2b0FQnCEpxaKgSVykn3TGSoznmJ5cqsHHM4syWEE/uS9CRtrl4RoRQJEBQOmkWi/ylM8OQCa9qDSgidceOlPreigPqvBrp/inmWx7n1qiIV9kRejFjuh74MZDRlRAH++bS+x8NBI4eQRBxoogUDYN4Kk+1uN3JqizoJz6a5bonh7junGZuWD/MtKCHC2ZX8kxXgkXTY/QMZXj/yh6unF+jiMPOjMVVi6pVm+juREGV1vnDfl5zfI16oUiqQdIHUot/5zOjJEybNxxf7QgRS22K/87q72jclMN5TnkZF9J5HujKcOGMCB7VJdF5sQtxktRPUVonT8zLi/9A0SY+kuGJYZOLZsecBbZlq06MHRmLm9cOcvb0GH/YOsJXzm8li0HMC1ff380JzWHetriGPaN5Pr9yH/9xZiu/2jDAqxuCnHVKM//9aB/xeA4jGiBVELMjH4/uGsFTHWNh2MM1ZzTyg3UjbNoXJ+T1cvncKv68J8X1501TK1CPz+AHTw+ryf3KWVGiEZ8TOfB5eGJvit5Ugdt3J/juxdNV1cqDe5KcPyuGL+BV1y5KhZGMSZ08g3ZRRQuc1uM233pyiA8sq8MvmpQJq/+JBEHSHo1RHyGJmhzDW6lKZMNAlkA2p2yuZ0R9LGoK0RU3FbZ1YQ+RoE/17+iMm8yoDuCVypTBAvOqffSPFQh4bKqlQ6cN8WyRwYJN91hBRZrqwyItVbWo5RrxSwBixvQtt8ukNmI6hr8zk/3SjwhBeI4xUqn5jS1dGlWiUtW/j3v2m+K971HaAZmkbts2imH+f/bOA9yuq7rzv3N7L69XvacuS7KKe8Ede2xMSYBATAKBEELKMGEGGMgMZJLAkIQAYQJJgBBCbzbFNqa5d1u2bPXe9Xq9vZw631r3Plk2zcaWLcvvfB8gpHfPu3fvfc9e+7/+xeWixWn+/sFx/vKsFv7ukSlKuSp/cH4P6bCf6zdP8e4LujhcddV052XdMSV8RSNB1emLBl565tI2LpRMLHHOiwsJsdGDV0j9xfvAeUZrTObCrNvcfbTC5VIgzCEIygf1NPK6vyXCyvaGs2SjQS4piS71qsWE6dETaxA4BX2Q/bRiObzrJ0f52ws6VIYqm7NZNbn1YJFF7THWdkYIiKTU9fjPjVPEgwaxoKG+Bf/tom7uOVzm3I4QD0+YnNkZ4WP3jfCyRVnO7QyzbbLOsvYIP9gxq/4K4qMQjEfYPl1nVUuIUNDP1qESsViQsdkaW0bL/OG5nUQFLfAZFKu2EiQjhkc4HubodJXv7inwrrPb1elR/RwadIJjnAxlWDS5AVbdxi+OkEF/g5PQ5BI0jrGN7sNcjpXGk79ErsZ3utmOapog1U2HYMDg8ckquybr6jvSkwhx96TJxW1B9tcaLSrLQ4tAUaWMWR4pz+HOGYfz24JIcGdPzKf3mai6igwlQj5u3FPkgr6YkhurDmSi0vKSVNGG1Xdjmb7oZMnjwE+AGyRt0jAM8VuYv+ZH4KQZgeelQBDIUeRlSmhvOtW5NGRtE/k6gbCPrnhQSV5yohc1g8DCnuGpFe5rfjzM73eGWdyfYKJsaeHwg/1FPnFJJ4fLHjftmuWjl/boifEnO3NcsTSt3AZ5pgcCfi0Wns7D4+n8zEkzc7/hG5EHu2x68lQVZEXbLY0KrYHoCLHMMAjJXqeOkvro1f7+nokKFy3NcOuhkr7mmiVJ/XdHAo6OFFnRHaXowj1Hynxv9ywX9sRY1xXn3N64OlYKmS+Jx6zp0pmN8JG7hvmzM1q1nbRtvMo/bprmxt9ayMfvOMr7L+ulaHq8/eYDvPOMTi5fkiboN5iq2PSkGjyFzcMV5SX8YOcsly1M8vEHRtk8VeFL1wzSmQwyVjBpjQaIxkL6WeX6xwfGidoOb17fpv1uce6UNXKMqSjGSoIqWQ513QMNwlJc4lG1PTKJ0BNGS0/ZkF4K62du2WmBIMW9RIJLe8fzFCEKeC7DZYeV2YAajR2uuLSEfVTqLqGQj86IBGMZWowKIXS2YvKz4SpX98eouT4G0iEqkutRdThScVmd9jNStEnhMFprcJbEOlt6YGf1xRWJ0MJMSMXCU3jxXuKv8G9NcuPwPF/hxTuRp9I7f14KBGV8207DcW9OyojH/skan3t8hm1lk56Aj3+7uk/DeoQRLiiCbdl86K4xDeXJpEQ/72KX6gqB/+7Nh9k1W+OhN59GIuQnLJG+jsv2kTLL+5L8j3vHeF1PlEuWZXQDOBUVCb/JQtQWg+kwXTC58VCJ15+W4Yvb8rxrbVr5ALLnqfPgMStc6cn7tIfv1Gwttj63eZY/FCKpOk2CJakZ2qqBm7dM8tUDFT55SScfvWeYVy5Mc81pLfztplnWBFwu6I3T3i7OihYf3jDFHyyK8ZWtM/zh+g7akkGVRkoK43f3l+jqiLM45Clf4JqVrRrWdPPBIq9ekWXnjMmm6Tp/f0Uf4ptBVbQOHh/dkqNcsvg/57dxZKrG4o6YEl7lqpdNLGmpSJFUs1V219EWa7RTjsvdkPGRXInP7ynx8s6Qbnint4TUfOtD57YdKyaeLynkbzLPJ+o1T5gfNTIrpLacKppsnbW5tDusrSXht+wrOFzSH2PDpMm5LX7lhcgwT1UEMfTIVRyO5Op0RgxaQz5CqQjpoKGowHTFJmRAzjFYkBLFkavTs3PGwjZtVraE2DVV1VbF8vYGkVHMrk6B+VCrCED8FT5hGMb/O1HzOH/f+RF4OiPw/BUI0tsO+BFjGIlzbgQyOQrRmpbD0dk6izrizfQ8OcU28hjEmW+dsNtFNmeIpEydbyh5BobtMGYZ/OvGST5xRe8x50M5FYskUloLc73jl9Lp7ldNvEYymzam6SirvDMWYKxqM5gSJYAY1rjHsjBEnKfAj8Q2C6HfB7myxb6JCmcuzjBdsMjGA3qy1/mqW4o6f2PbLBcNJBR1KFRdLl+WZaxk8vhYVcl6nQlp/bhcsCDBJ+8b1d9xdm+Mq5Zm1MTqCw+Pc9dwmYDtsKYrzh+f1c7fPDjBO9e1kokI6dDj+p2zjFRd/seF3ZSqNo9O1Xn9oji7pmq0xAPcfbCoUss3nN6mxaEQET98/wQfOLeVVCzIVK5GyXTo70w0zJz8vka7wGtwYwTa9kSdIDCU23RilDHQddjEVV58kPbTeSb80p+RtaOeBjLJIjt2PQ07i5kWB0qO5qSszgRY2B7V9FUpRh8aKiOZalcsSjAxWSaQiNAe9+PaHtsnayRDPmZrDsvawmqzHYoGaJM2VdDPQKpRVOSrNhvH6qQMlxEhMi5OqCGXpHee0Rlmb8FhRWtE202n2CXeCiKZ/Cpw83xw1Ck2uy+Cj3PCC4Tj+QfThTq37ivw26e3NmKARXMf8lMsmXx96yxvX9+qD/OvbJzkTevaVFsvD2R1w20a3smfx/N11d5LVLCcLqyqrdkJysiXR0qzN6qJkPLCp0jUXgTzcsLeohYIlqPjIrwC5V6IakEers0UQzWfdD1KJZPPbJwi7Pfx2sVJFnXHufdoWTf5S3pjXPnNPXzzlYP0t0U0eVP4Hq7jkMvVlBMgngOxcOP0XrBctk/Vubg/rix3gaTHyxbffGySgZYIL1+SZqRka2HXkQhycLLCRzdO8Q9ntLBmcYYt41UeGq7QGvFTNF3O7orSEQ+qGZa0GwR9aLjyoZyV3ZNVlvQkCAUDus6kLXJRb4ywUgkaELcgUX7xL1BTLOG9uNRNm72TNU7riOr6U2BhrsktA9Nk6mv75XkyUzphi+EZ3Hjue2zariIv947VOD3tIx32sWWiRnciqARTKc4XJQM8OFIjnQxxetqv3hU2Bt/eW+CK3hhrOqPKA/3urhKvWpYkGvRTr5p8aXue316aoCMZ5O4R4RJFtH1w/1CVtohPOSgbJ2pcOpCgVKmzM+fQEvRpO0li4ENNDsgpehiQYuFLwHeAXfPFwjNYvPM/+huPwPNTIDSdUwS2vXeoyjVLEk+w5JsEOGGxZ+QUi8FU0aI1FVLiopxeNQgo4FfoW/78D/eO8oalSQa6Eg33OZXiPWHTOqeT1tbGi8e29TeexGfyQjXtaY7L3OuEpCe9eI3clg3Rcvi7Byf4y3PbtQCTU3RAXBHVG0HoB0LudLllb5HL+2MkoiJV9HCbeQeu7bLjaIG/fXyWj13UyRe35fiLtVn+dcs07zu/i5HJCv3dCW7bPsUnN8/y1WsXsGvWZGS8xIznY/NIkfed1UEqGeLBwwWW9yTYlrNZGoGNU3UOTVb4n5f0ctO+Ale0BbUVIeiUbPbTZZtU0OCrm6Z4y5kd6q8hy0PQDSEaKrlSiiPtoUtB0eRZiI9Crq5ciXtnXP5weVx76I2aU+DrhhxPr1N8Tc0VA3MWTtp2sm1FDiqmy6YZmzOT8O87S5wv8+86evKXNtRMzeWsnij7ZurKU5lxDPbmTc5pCamRmdx7f9FmIObnOwcrXLck0Sj+bYeDZYcQHoW6w107ZjljSYYL+2IcKdo8Oi5olE13NsKVfRF2zZhq6b2mJ8HtI3Uu6AwxYxn0xoXg6G8Ui6fuPM0AH2uGR80ahtGwDJ2/5kfgOR6BE14gHP9+51z8ZOOX9oDAlEosaj58RWInJ1khKIrV8fEPYj35CjfBlVOew70Hi1y8MKkEtFP0xPAcT/Uvvp3CxjKujssXt8zwB6eltaf/749O8q7zOxVev/VwmSsXJggex9LX+ZBb6iYrdYVBXY7y0g7G4I4jJc7tCOvmsOtQnjtGqxTKNZa2xhiM+DBjYXXJvO9AnkUtYX42XOFTl/XwwbtG+K9rW/js5mmOFE3OzgS5e9rim69dpEqIb2+e4pKuCI/M2lzYGyMRELVKQxInJ9t/35YjZNkMCiqxKKmtg6/tyvPW5Sl8gmY0LP6a0oMnQ1MHZ+uYnsHCtojmNMg6PdUClJ7OopojIEoxKJOrc23bOhabJuvarlmUDamZkfAFCy4sT/qxDF8jNMvnMZAK8uXdRd65MqGowoGCy+Kkn3QsqGtty3iN9X0xXV+7ZixaIj5Fp7IRP2d0RqjWHfKuj6ivkZkhqoXtMxbndodV0nppd5QjJYeYH9rSERYlfNiGXxUnInedkzafws8Gqd/ywA7gP4GvzAdHPZ3VPf8zz2QEntcCQU+vTU3YRK7KobzFGd2x5inNUJtl2XSCYoEr7OTjvAn0ISXeCeKlX3f43/eNqSlSOiVpgC86edMzmaMT+rONwqvRVxbOQF9GCi4fnmUrH0Sm6/4jJS4YSB7jeJiWq6ZWcmyRgk0KAikOvrVrljXZIGcukNAm0ar7ME1LUZ9yzdF7vffecfyOwwfOaCVne+RNlweGK9Qth796eR+3HyxxZKTAeYNp7hsqc/v+WX7vtBZKhp/fW9vaMLvyGfx4b46y6dCaCJHAVUMssU4en66za6bGJYtSDa6Az2DzWI0zuqONVoEUp03r47JIGEWxEfIraXG4YrMgG8bfZMMrd/EUtNv+dQuq8T1tkBAFQcrVXR45WtTMhCHhGaT8ROIhCk1/AinkOhMh1mRDjJZtRvMm6/vibB6r0BoL0J8MqgLkaM1lcdTQ9lU85NMCTFoIwiF5cLLO2pag+pr8eH+J5R1RzmoPk4r62TZrMRjzM1myaY/5+P7hKlf1RYmFfOyctVjTGlJb9rI/yMJUgAWJgOY6iIz1JfRsEBXEj5spk/fPWzz/ulU+/+9PZwSe1wLhCUjbZcdIiS8+NokRifCRizsUut56IM+X9hX5+0t7tLcsHIO5L3jjVCNbkmjUBXwQGaQUEacEe/npzNUJ+xkdW+GDHNeuUSMgMZcyba7fXeR1p6XVXVHQhm/syPPKBXG2T1bZX7F5y5pWDg0XuX2kwjvO7QCrUXCIsuHzj0/THvbx6tUtehKs2i7XHywTrtb56VCFVy/LKHTss2weHq0wkA5Tx6BQs1kZgbxj8FDO5ncXxjmrP8GOnM3y1jCf2jTNu5Yl8QV9msdwWSagfJaLl7UoArV1qs5kxeLKZdmG6ZEUPaLOaAYCCZP+mzuLDEbR+5rFOtsLNmf2NdpWarT0Er1EPSSFlRRtN+wuqWfBdNXmsv4ou2Ytzu4MU3Zg76zFsmyA7VMmvYmA5in0R2DblMmUbXB2W1CLL3FLbU2HNZjpc7tLvKrdz42HK7xtbQs7x2uc3R0lZzqqUmlNhjgwa5KN+DRLQ+IZ4oZHJOynovwjUwvLMzsiHCnZOtditiTolkhSZX1umjJZlg2qxPUlVCAcv1rFjOmfBFUQU6b5lMmX6Bf5OfjYz7pAaLinNTdvlRP++gertgnqjsoYS6ZHSzKoJ8PPPzrFeR0hbjxU5q8u6SEs0PHxlxxqTFuLCSkOBM5W74TjHe7mIIq5hME5ud48yvALl8ux+ZN/Va5I48cU6JFgJscjX2n07//olsP8t7UtnLswpT9azNXYU7DpjQc0jOnMnqh6C4gR0/d2zpLxe/rgliTOa1a3MZyr8S+PTLJtts471rZx9ZKUEh4/fO8YazNBHhqr8u6z2xjsTLBzrMLbvrWDRT1pOmNBfm9FmoeHSiqFm/UFWJwN8aoVLbzxpkN86apevrq7wB+sbiEWFUdOV5GJH+2e5Y3rO7SdJajDHXvynNkfpy0VbqpnXPx4GgYm7asGot7ISxCVzUv1slVd5PHYtEVKVB0+gyWZAHceLDFetnn94ji3j1u04bC/4rGuLcTP9uaIBn08MFbFDAbow8Hy+ViQ8DNtwct6YxTxc15bSNsFMj+96RD3CAEx5FPFwrf2lFjfHmRFa1iJpzG/ocqXdb0x5ZdM1T22T9fwPIOlqQDpsIEthNO6Q1s6rDVuqWJx12hdTcDa4s2W0nET+RIrGCRVUiyeP9lMmZTCYf6aH4GnPQLPukCwLYe9k1X+fesMf3d5Q2r46xzl5CQnAU0C9wZEaSCWt9IHl1rDgN1TdRZngnx52wwLk0GuXJp5AknQk20zQEce6L+oQGiy5M26o1kLchp8iT0YnvYCeELX/qtfYlkOu8YrLEgGiQspUSyyi3X+5sFx3rOulU88Ns3/PL8D24Prd+XpDxvUgeUJH5FYmNGqS6BuMl13WZQJsWXW5M3r23n3D/azujvO0lSQm/bmef3pbdoiOLsjyj37crz1zHbec+sQ161qoac1zD0HS7x5dYY9YxV2VT2WtEb48pYpekI+3n/5AlVS/MejU7x5dZYNNoJbCwAAIABJREFUw2Vetjit5j0SlvTh+8b5wHntZJLhJ4iac6mNT3Hjeymtl2PtBFF2CPIj6Jx4RbgeR3Mm3akAUcPg0SmT9hDcerCgPARBDBYnAgyVbPZOl7l0SQszdZfBdJBMyEcqYPCdvQVeuyLDXYdKLEv52ThlccmCOPGAj7zt0ZcMqNJFbNZV8miLeVIjGlweCN2JgG700l7cMV6lgsG69ghDJYv2qJ+hvM1dUya/syCixUK+5lB3YEE6yE+PlrmsL86idEjRK9HvGr7jHDGf9rfklPhBKRTuabYgfjqvgjgl5vSEf4hnXyDI6cxpmOgY0WCjQPg1uQby8Pn+45NUMbhuRQpPN/nG6U3BCIEKLYdPPjDC2e0RrljZesyKWaHvuasZwftkj3xXi43R2Rqf31nkg+e14Rf2+jyC8KwWk2Pa6jDoC/ip1yw2TFvKHBeIV0xr+hNBDlccHfcrF6ewrYZ0smba+CMhDk1W1V455rrcebDItoLJey7s4e83TPCa3ihf3ZXj/StSfHpvSclsNcOnscz/dHkvN+4vEDD8/PnLupXtro6PpqOFpSgNxqaqiip1tUQVZv7PDeO89ZxOBUP8foNNIxWWtke45WiV31kUxy9wtEg9m7HWarctXIPj0K+X0nqZU7bULE+JfyEcJKxzqmDz2JTJq5enGJmp6gl+09E8390xzUA6QsSASjjEJUIqFHJne4S0D26ctDGnS5zVE2fLUMNue8t4BS8UYLps8b/O6+CnR6ssDYOdjGgx+dh4lfZkiLUdETaNm6wVdUo8oM6cW0ZrXNAT4adHyrT5Ye2CFOMli/50kErZYrpkEouFGKm4tPpdxqsOZ/cn2DhcIhsNatpnoulfoa2j+WeBGDFJwuTXhOQ4Xyw8q0fjKf3iZ10gHPM5kIes5rz69FT/qy49nZg2ju1StuGbj0/wJ+d1qZROvrxCjBKyopz85JZqgKLyukaP0deUm3n+n7dRbkDmDTKjZzr4NM736Vktn9Iz/Sw/nBQH4p8gcPNs3uTbB4u8/bSUFgjvu3OEv7+4i1gqzPhkhUMVl4/cfphzFmZZlQ2xpCXCaX1JfrBhmAWtUZamw/zHYxPclXO44dUL+Pymae7aOcWyTIS2bFTJiP9y7zDvvriH1mzs2HwTkJaTx388MMKBsTL9AxneeWYbOw7msf0+1oqMTtwgG+IK/KKG8aF8hPX9SS0CpJW1/2iB743U+YuzWrUFIvbSssCUn9CU5D6dVtmzHNKT5uWm41IwXRKGx61jFsFajQt6I+zKuwwkgyR8Hp+9f1gtjmeDIR4ZEqTaY2U6pMTFG3fPsLIrwYcu7OTDG6f5izVZbhuu8fKOIB/elOPa3ggPDlXYljNZGTMoGH5aIwGuWpSSWEP2TlTYPFHjjI6I+ho8krOZ8Ad578qUBjyt7YoqMiWcCLEAr9hw55EKL1sQ0+fN4byl3guW5fLYtMlAEE7ri6uVu1WscVvO5XeWphR4DLy47ZhPxJqRyfw7SZo0DDG/nr/mR+CJEXj2BYJIxmi4zh2zO22e7H/ZQAsHQSp/cboTY5w/+dkwX762XzXrAmX/9T1jvHFZSp3ZxA//mpUt6uTnNtvC5YpNOORT/oEgFj+HIIj2SoqNueX+4ouGPenWqMzLX22Y4k+XJdk1U+eirgj3Dpe4Y7TGK7vDnL1ISIwGm0YrZMM+HhyusHW0pA918Vl41fIMH7l/hH+9ekALiAwOB8oOb1zdwv7JKnccLHDxojTf2j6LmPFctyLNss6YSuk+u63A6Qkfne0xNUryqiYbJupc2J/gkckaly2IY9keUyVxqTU03GmyUFcbZQ3+E1Sr8QctEA5MVfUke2Z/QouJuw+XWJEK0tMeaxwuX2IFpfgX5C1XWwLy8WfKJtGQn/tGa9y1c5I9UxWVHx7O13nV8hZs22Nr2WFtMsCs6elX7ZKBBIMtYe49XNY21JYZk5zcB5cLBlJsna6zMOrjhzM27ZbFYCLAmv6ktilkbjaMljXYyXLBZ3sULIdMS5wFEYO2REjdF+uOq4eHguOjL+rD8jxGKo6ijfvKLgvjfs1+EB+OVdkgsUiAO/blWJQOckZ/SpGjpz4vTrov2gv3hqaBnU0zphsMwxAJ5fz1Eh+BZ1QgHCO0NR+iOnZy+pJ2oRQK0iqQ//Nrev5STHzwrlE+dE4rgbDAjjZtqaBuMBO5Ot/eleOP1rQohCy97ohY+Ur7AYNKxeTjG6Z5z9o00WRYtfE/R1J8ihHQS+2B/0zW9PFOl3OnZjUEap6k5+4lqhGxzxWPfCkJv7lpigNlmzcsTnAkL2qBtOZnCOlPgnlyNZvHRip0xHz84wNj/O0lvappv/6w/F2Q312WpOgapCR0ETgo5jnJIPtm60yVLWpVW0+Xjw+VeO1pWY5KHkJ7hErd1kTOnUWbjnhIHRsv6Iqwf6bO9pzNVNVWL4cfHa3wioEEH79/hDevbmVhZ1TXpeQsyFWzPZXCyY4oBlwi21TC69NYv89kfE/2n53zwRDegRRPQs4UHoeYWf1wzyzXbxkn7jMIp2NcOphWOeuijhg9QU/jsuVrP5Q32TZR5dKFKb67r0BPPEhbAHozIX50uMJpmSBntoW4eajKpb0xbNPhvok6p2XDitoUinWKdZuy5ycZNigWTWYxeP2SNJ3ZKHXL1eIj4PN4aLhKR9RHa9DghsNVVreG6ZdkVs9T22+ZXVl/QpoVRGLDaEVDopZmI/ozXYngcamcjZjzl1I76WmuRykWfgh8G3hgvlh4mqN2Cv7YMysQZONQxEDkAw1NuRYIx2Jwm4qGX2NtLA8l6WMLM15jngV9ENa4T/zwPU2HE3//46v9OW22sM3tuq3Fg08ioUNPTzlxCs7dc/KRji8Q9IYyH3PKlLnefFPyKP9mlursLdp0xQIarOT3XIXzRZaqyhLgwX15jKCPe/fPcn53jM/sLHBlf4yLeuP89d1DfPTyBXiuw4cemeatC+M8PFFVYtn7zmjl1rEa53VH+diGKc7pjKql7jvO7iQQCurmvXuyxp/cPswPXj2gp9zZfE2lcP+6Ncfbz2hT3b20QWo1Rw2UDu2d5PaKnz9e36rLVk6bUmj+nwcnee+ZrcqE1yhnQZuO8zx4qbQY5kyRtFCqWTqXDx0u8LGHx0kbHrmqiREJ8afr21nSnWC04rAo5HL9oSrLMiG2jVfoDRqKAFywtJWzO4J8e1+FVUm/RqqP1FwOTtXwRwKckTRY3B7lK/sqvKk3xGHDr6+9d6hCNgCtYYOaZ/Dl3Xne0B/Di4TpbYmqh8bFC2L4AwblqsUnt+S4bklKDZE2TtsMhD0qPj9LUgFyZiM9Uhwdfzpa47VdQcbFcEmSYauuFjHH7LKb36D5AuFXPkqE3PhZ4HOStTVvxvScPHZfNDd5ZgVC0zxFU9waJGPldak9vXxkgfubD9pf9aVTDoIE+/h86p/uWBIe5BKKBZ/IUUDUEE9U91ogSDNDigllNIofgqew4fwX/Nmtt2MWwgII6UxqznFD+ieWtULqcxsx3NWyxZapGut64vr/hRMijJOxXA3HMOhtiTQCnuoWO8Yr/NU9wyztSvB/X9alCpWK2DCPVhgrWwodD8Z8fG9XjtX9Ka4cSDJRsfTUP9gWV937OZkgFy3L4DMdDpUddk/XSfkNzluSVs7L4dkaXVE/E3WPTNinKomOsMFXdxf54zVZfY8l01X5pXBevrG7wBuWJPS9hAV9kvevfsoN0EQBBEWsXhoyR/1e2bZ+7rLl8Ik7j/LNHVOc15vmqqVZHh0uEoo2bM/FmEjkhpf2RvjHhyd1DRyYFPJhkHNbg9iewf2yNloivGZxgi9sz/OKvhiTrsFIyeT1q1vI+Dxu2lOkX7wLfHDfSJ2JUo1XL0lz3kCcnZN1Ds2YnNUW4KajNS7viqih2iVL05rn8J/b8lzeEWSwPYalsmeLB8frtIQMFrdF1dhKCInlms3jIxUcv4/1nRFFqY6UXVVASGbLKWzD/OweBr/81cJVONi0d/70PF/hRA3zyXXfZ1YgNNsJShjUOPimdlwIgdJWEC6CkAt/jWpAHkqj01Xd4Dtaokps+/qeAv/93PZmm6IRiiNyyScZJR3ncdBALxrs8/kC4dktqrkCQRAAOWELGS0SDlAqm9x0oMybTs/iN4QcKsmODVhe5u5jD0/xtuUp2pMBjo6XqQcCyhtQ3yXLUXb5zvEK392X5wNrW/j0Y5MEskk+cGZWsxreefcYnzizhU/tLHD5shb+dF0rX92ZY8DvckZPnO/vLRAJ+VkS8/Hhe0d47ep2urNRlqcCDHbE9EMfmary6EiJ165tV/fG+w4X2T9j8vvrW5ttg4Y6QdIZBfvaNlxiZWcMv7DdBFLXfxb0ymDvWJmJussF/XF8LxUym+dRrdXZNlLmCxvG+OmeafqSYVYOZulOhFnZHWd1OsCDw2W6o37isaByUKI+mDE9Mp74HfgpOR7dMR+3DVe5uiPEtpLDaxanODJV4fEZUwv67nSYszsjHKp59ARcbhg2iVsW6ZAoY0zsQIDuTISueJBczWUsV8bvbzgjHqk66oWRs2G45BAPGojq4izJYDA9toxVWJCV1/o18VOQzsembboihjo+Oj6D9oifkaLNmo6IFodz6/6lUgw+u6fEk14tLYj7my2IHxmGkXsO7z1/q5NoBJ55gdB887WazS2Hy1zd14hifvhoWVnu5y/NNtwNf5V5kevyjS0zqnV+27pWjX12mrK43eMVejJh0pGA+qo/2UlRGExNL/25eMeXWKreiVg7c14IghhUS3W+tL/Cn6zJNNQktkM4GtLWjzjhNdCbRoEgqM9YxaYvEVS0QeZLUXqfwUyuzi1HylzRH+WGvQXesiTBX94/wccu6yUSNNT06DMPjBJNRPjg+qxuPKGAn889NELe8PPes9r42EMTvO9lXUoiHIwHWbMgxWzNJihoRiRI2DC4dW9OtfSn94uiwtEYYZEvmg3Zu5rtSNiUxBSL4ZPo5Bdkwmw8WmJNX7xRRDTbZeLSJ2FEg5LF8GuUOCdiHk7EPX+Rz8XcNEoxb9Usbts1xRd25FnomsQyMY3cDkWCeP4AS7qkQAiq8ZUprobhgMobhdDYEvXjBALcciDHymyE314Y52DO5K5JkzctivOjA0X2VRxeMZBieLrE46MVBttiDLZGuOtAgd8fjDHqGlQsj0cmq/yXwaTGjqeijXbSlpylFs+XDSY4Ol3nDadlyNuQjQbYnzdZmgmwdbymSgpBG4MBg6OzJumIX/0YpG05kAxoSmjI5ylnRZbnHFmxYfog8uqXBlp0ItZXMw/iC5LyDuyZl0yeoFF+gW77zAsE/VIZ1Os239iZV7VBNOKnVLGVIJSIh1SbPncdIzYe60M0sFxPnerk9N/4STFCETb1/3tggqsXJ1nVl/g5DsIvG6N5BOG5WT1zm8ncBnL8XWWDFQ/9ew4WSQQNzpQWgwHf3z7La5al1RbbkQTvqqXE0y2jZXbnTF63JKneCTcdLLEg4qPoeCxLBGiN+rl/pIpRNxnsiNOeCPLFh0f5540TvOfsblWpvHFVlmA4wNcen+a6tW18fvMMZrnOuO2xVCKmwyH2H5jmdWvbNeDHwcdbfjbMJy7p4fHJGhXT4bLOCK2ZsBYvlXyNgmfQngyye6TM0t7GGtPumPyXEtYacdCnypp6UoEg2QpiNyiXBxP5Om/53j72juV5xaKsSgmTvWnWtkS02JqtWFy0NMNDh0qcG3cZ6M/wua0zDKaCHMi7mJU6r1iYoOQZqhq5L2fTGfXTEfYzmAzSFfHpRj1redx1tESr56gDphMK8aqFMa7fV0bCwEWh0B3w6GqP84MDZSW6XtEWIBIK8MWDVQYMi00lj2XZEBf1JxgpOVyyIMZ4xePu4QqL4j6OVl1da2q/7nrkHJTgeumihL63AyWHszqjDNXRtpYgZPMFwnPz3GjexQLGgc8A/2oYxrxr43M6vC/MzZ5ZgdD0GJCHizCdZYMX1nODq+jp3wlcGziO7DXnS/BkIqP0IZ6MMsgGJFkLbjNMRwTs0qqYv06OEZD5kU1jQqSEBlokfHpbgdcvTrA4FcAna8Lv4/YdUzx4pMS7Lu7RFtRth8t8f+c0H7+sF79pUw0FuFfCnzoi/NvmGd62NMltQxU2TFX51FX9qnxwg35inqe+/A8Nl8lZHq/vCvLFA2XeeVqajtZGe0FY96VqHc/yuGWkznVLk3zuoXH+4IIebj9Q4BIJDMpZKoOUelQ2D122rkfRchmeqbNc+ugTFRbPJTgqWfbU4SAcK9DlO6lKBVeVHJ97cISvbhzDwkdPLEDdgPZEhP+yIquxy5f3RpmquXREfNw5WiWFyx+d08nXt8/SEQB/NMyWsTKLWyMM50wu7Y2qkmS4aPF4weI0cUBdmGTjeJVhE87NBhgtW/g8g8FsiB8crfD6BTFu2VdgTUeU6YqpKFBarK8NGC47jJVsRXcqMh8VU58xv7OmVXkjj0yadKSjmiK5aaJCrW5TC4S4tDvMtI0WOx1+l22TJqM1myVRHzeNmVw+kKQn6mdJVvxRXnqS1ufpaSIth80idgK+bBhG7Xn6vfO/5jkegWdeIOjpQ0iKDSLb3IlL/jD3d0IU+jnugKAG8tImq/H4n1EEQeyRxQRJT3KNE46Q406Vk9xzPG/P++2kDSQ9fLdu8/kNk+z0/PzvlUlakk3ESNoOwC27Zqk4Li9fkOBw3iQTNHj/7cP82zX9fHtfkbevb+MTD0/QE/ZxaLTE94+UuKIvwdvXtbK0N9nc+F22HMyzpDuO7RqEPJePb5nlT9dk+emBEm9Y1aKEOdG7b5kos2u8yhvWtFF1DT6xcZr3n9PG0dm66t+DsZC+LyVbShFjOxyeqSuRbbxosaI/yU178lyzMEFU1q2gX6dSgaDKIw+72ZqbLNT4p/tGufXALOd2pxgpVgkGA5iex2uWZtW6+pGJmmYbSGqjuCdWXZe4kP3ao3x5xwzLWsJc2p9gvGzx0Hhdg776WsL6/TUNH+2Gw4ht0Orz2D5ZZ0lLSAuJHx+uqC+C+JtUqzbXLs9wKGdy065pfmtJmpZ0hNsPlxhIBNV74ayBtKZsClS1bUwix1PaisqGDKbrHuu744oMTeVrPDpt0h/26cFDLJuFd7C6LazKjCETtWUWC2chW+4uOlzWG9HDzbwvwgl/lEwCP2gWC4/OIwsnfLyf01/wzAuEZmEw53/QYHk1JY/N4uF4bfHxMrqa6VCtOSTiQW1DPImnIAiCFAZz+vs5X4V5W9TndMJ/2c3moGiZE/nzUwuzOUKXbMrViqmyRr+kbaoEUkhhDpbrkqvYxMN+9o+U1KdCgpyqxTqJZEhPdXcNVRgeLdHVFiVXtuhIhDi7O8JwHR44UuKtp2f1pPmB+8f548UJ9tU8VkRgS97hned38pkHxvid9e0Mj5WVbFgRy2TDoCUZ1mpVZHoS1iQkNbX+VspEgzeh4VOWw/d35LhmRUZlkuoD4Ak31tDo57nl9mLtS/8c56BJ7JXArBsem+BTW6dVOnpWNkKyK8WfrWtlerLETw+V2Fpw+NvzOpiyPIaKJjcPlVmSDPO+s7LcNmIqvF+sWvQn/bh1hy/sKzHgc7GCQXpSQWaLJmtaguppUfH7WZ0N8tXHpjmjK8JI2WG8WGddb4LPbpzgHy/sIJIIs2OqzkTRVEWLSCZLtksxEOSx4SLXLkhoUSfS1WLAz9uWJdhbdOn2e0x4fiWfrm8N8oWtOTp9DkXbY1HCT83nZ7/n562DUf59a563npZUZFKyWRLRIAdyNul4gK5Yw2dFeCjz1/MyAuJk9mFpQQCzhmE0+13Py++e/yW/wQg8swKhaXHccChsahzVQbEZwSwoguMeI3hJdX68udJ9BwvcMVrnA2e36gZz/PUkPf5xRcE8gvAbzOozeMmxDWVOwioIj+tiPIXFL9D0wakqvamQwr5Hp2q0JYLqV7Fjssra7pjKCe8ZqnB1b4S7Rmuc3yWnNIMDM3W6UiF8lsOe6RqffHiMS/oTDBlBPnROG9uHS9w7VuEd61q1VfGNvUWuW5biv94xwnnZAOs6Ywy0RBvpfGLB4TfYMl5VueN39xVZ2x7i8qXZhsWy5VIom9xytMKbT0tjiNeyMNalaBDCYnPpzsVZCxoma0xOv0KunbtebOvu2DxK4JLOXyOhUtJPJU77//70ID85XGC2VGdhR4Lz+pJ0pyOYhkGxYtGWjXBhW5g9Jry8P64M/20TNfW8SPo99hVs/vtZ7RwumsQcl7rh49GpOtFqDSsQJBL1sywbZrRiawLjtYuSpEM+RXLWdEb59q68ojhim3yk6JDA4XsHy/zWwgR3j1YpWC59IVjRGmGybHPRwiSHCjaW7fCpx6Z4zWCCkN+vSplrFiUYTDZaBNLC6In4lLOSDPrYPGVSFqJq0Md5bWElO4q9ctFy1HAt7PexbcZiVdqvJMZwSNxY50mKz+CR8Vz8aBk4DHyxmTIpqoj56yQcgWdUIPyi9y/Qs7YcHE9Jhv+0YYp3v6xLv4jH9vkm600IUuKXLgmL89DeybEajhnlqCqk0TaS66l5GjJ3X9w6y28NxkjFQ2weKikbXeKRfnKozGuWp3XjFoRBnrfCLr/3SJFKoc4Rx+CNyzOEQn7O7Arzv27ezxmLspry9+1dBdpjfvwe1OriyJhhJFfXCOaRiTLXH6lwYTbAQEuMdYNp5bfIRiOn/q9uneVVgzH15hfXPnnrtuGjWrOpOi4dmQg+z1NlwoG8ycq2Jqx8CkY5H3O/xFPuh3wt65bNDzdP8IWt08yWTVZ3xokGfGwfLTHQkSAe8VN3DZUelj1D49VP74gRtG0OFx3O7I1SqnuUTEfdC7+zv8EdqZsO8ViATWNVZot1LhlMsU6LQR8TRUudKTeOVQmHApzTE+fHB4qs74zy8GhZg9wWx3wcnK2xoj1KqWxx13iV31+ZIRHysXnGpiMEScPTELe7jpYZz9XIO/Bn61q4f9LiaKHOW1e2KNF5f8EkpHwUhwUtMU1/LFVMJmseNx+t8VuLE6zMNApZKTy2jVepgsZLC7qVjYfmC4QX9lE0A/wMuAG4bd618YWdjKf+9mdfIKhx0ZzJjKdqBoGTlcDYZIQf09k3OwjygG+QG+ehvZNhOciJ06zburHEosIr/3nylgQaSWCTOF/4bAdfKNAIxGqGOAVECikyw6bC5Y6RKv0hn/b6O5IBktGgvv7OoQoXdUdUnrg+E+TxnM2VS1Nqp/sPD03yv17WSSzkb5g02Q57p2o8Mt4wQzq9L0F7PECuatMSC+JaLq7IER2XgLwfsVCuWHx5d5E/W5fB9vvVjGd8psaNB4u8enGGTCKg9298xFNn/ckcyjgIZC48EbGc/vidR7l53wzRoJ+BiJ94Mkx3R5KgzyMBCsmXqiYSenZBV5TTF6RYkPCrZLnk8/GzA0Xes76FeDjI7cMVzk4a5AwfK1rD3DtSozsId41W+dmhAv98URdlF7blbfrEybBisbw9woquGH993yTXLUnwrc3TvKwvxsqemIYtZXRtBCnVbbVzHjddSnVXN+6Q4fH5zVMsTYV55fI0H3t0iksXpVidDvGtvUX+4aJOdudsZl2P05J+XROhSIjeZIDJ2Rp3TVqc0xpUxYqsQWkhbZ+2GIj7KNZsfa+L1OpZ4uBPnXVwMjxPnsV7mAJEMin/GTUMo/Is7jX/0udgBJ59gdD07T8WAyaQbVND/iSioiQsNuVjcz3uU+kB/RzMxQt2C8txuf9gkfGazRtWZo/ZDh8/P3JCq1QsSrZHZ9PPXkiLQ+Nl/ubxGf7t8h6FtfdOVvivPz3KD39nMXceKnLVkpRyFDSB0+djy3CJ1e0hinWXf96S0771e89tozMWYP+MxcK2kGY+pMTsxu9T2eQH7xnlT9a3qq5eCpKtY2VevSzLis44C1uj+F1HkQPJ69CHvXg2zPlkyKgGGkZJDx0ssLA1TE9L9JQrEIR8WReSr2nxpY1TfHbDKMVilTMWpNlXsnn/GW18Ycs0XdkoS/uzDERRi+rPb5rkLWvb+dLmSf77ed2szoa4e6xGoWYzXXV489Ik3x+pKYrT0xJhsupowupQ2SVrOHiWreZWf3NJN+O2mE1VGCmanNkawh9vpDMW6g4LWiNg2STx2CN8hEKdXN1jQTbMyGSZe8dqlENBzuuK0Rn3ayDUDbtmOCMbpDMZojcR5JbhGi/ritKXDtKfDNGdDGoS58FpE8tnqPR1puaoR4NkRjw0bbI06kMsEfZYBosNBzccZE02QN52aQlJGuy8VfsL9uD55b9YJJPShviE/McwDAF95q8XYASegwJBLRWbXsvyCRqktacWB/rZjuv1zRcHL8Bs/4JfORfWo0iA6xIKBY4pSI4nLsoGND5dVYXC4vaYck00flsC5Sdq9Md8amcsJ/9DMzWNdf7SY5Pql7C+N67scekHT09W+MTjk3zwwi6+9uiEchruOFqiPRZkWVeM23bNqE3uF167lGAkgOsZbBkqUHZclmeD6ss/MVPlpsMVLliYJS5gQCjAqnSA7XmbbMTH6R1RJSfOuW16AZ+aPsn/V/vuF/k6/MXmRx5Ts1X+/MZ9bBoukoqGuGpZlpZYY2zimTiFik1XOsSB8QoL0wEey9k8JMhAd4yJQo3LVrQwUbC0cFiWCbJjvEooFtBsFLFYPr8nyr9smuGP17YQ8jy2FW36UmGO5uqkYg3HwxnTpVKx2Zm3WJEJ05fwM1xxWZgK8v82TNITRBUV47kKZ/Wl6MyEuUfcF/siKmveU7A0u2Gv4+eKFBQ8HytbQ/TGAtywK0euYlEJBPntxWlO64xQs1315hAfjmuWpTXVMxAwsEyXjz40zptWpKl6PjqCHo/M2lzdH+fWI2VV0azti88jCL/mMfSL1trcS56nZ7hIJh9tGjHXD7pLAAAgAElEQVTdbBiGoAzz1/M0As+6QJh7n8cvpJ9jwDeZ1M/Tgnqehu7U+TW/jPmulgG2y/68RWfYYGS2TgkfZ/fH9ZSuRD/DYOuRPEHD4NEZUw2NhGgoWQfDU1XS4YY9rzzIHz9aIhYOkPU5THg+laVlEyFu3p3jqp6wIhB/eecQ4YCfj10zqG0DKVrE/fA/Nk5x3dIE1x+p8efrshi2FDPCQodv7ynS5ocLFyb1HspT0PaBEPbEm0Pinp+Qz2rvS4MXmvkhLzKS2jHeiBhTidul2NnlqrzjhwcVqWlNRPD8Bmd0x1nZHmVpW5g7h6qamfHKxUk+t73Aa/vCTFdd5X/sLthK8JOWwKHpOn2ZMMmYn20jVQ6WLDJ+cdGEHQWTBYkQnekQnu3SlQxwqOyxKCbR67B7qs7qlqAiQD8brTMQgp5UgIFsiEN5m9v25GnNRDmQM1kc8qhHQkxXLM5vD6k9dl9njITnKnohLo53HinSn42Q8UFX1MePDxQ4rzuOFwxw5cIEecdQEmM25GPDSJVVbSH2FRuF5J7pOoWCydl9UV2/6XiImbJFdzrEmMhvQ7L2woooqdX2/PULR0Dajtoilvwc5aU3uBxdiYB+x54wGHte2jRSLHytafG8xTCMwvy0ndgReM4KhBP7Nufv/nyOgD4QpJ8tQVqOx11HyqxO+2mPB5VjIO6GihXVbbUgrDseM8U6yViQqAT74GE7Hh97YFy18n93cRc37y8px+G601vYeCCnIV13j9Z486o0yUQQQwisrseesTL/sb/EJ1/ejy32256rLStxPpzxDC7ojeIJS911FZXwQn6qpsuu4RLrF6ZU0igb6PB0je5sSH03aqU6yVREi4pGamjDNEm9Nl6EWR4asCSOiD6UO7Jzssrbb9qvdtR/fk4XFc/gvL6o+k6MTtYaks6gj8mCyeNDZd64tpWJikM4ESbpOmydqHHJYIJo2K/yY6cxitxyoMSSkMHumscN+/P88dIES5J+0pkI1+8qkqs7rO+I6r1WZf1smLGgZLK/4vCO5Qk2Tln8l4EYj5c8RqarnNMWoo6PtmSQLUJyzYTxfFA2Hf7i1qNcOphRg6avbZ7mqpUt+ESREfARq5p882iFRamw2j2fmwky0JNkZatEQEuAm8tQwWLMNjizPcSNB8sMOiadmQjDFYf7pkxOz4QY83xclDbYOl1n44zNe89qJR4JPsnY7fn8np3Mv+uYq6oU6Kaj0mH5zozVPBanJLyt4T4qLqkvECInxYK4Nn6qKZmUOnn+eo5HYL5AeI4H9FS43ZzkVDeiuTTvJmSvCZ4N6yGVQ8qfxqar/NU9I3zw0l4WtMX0dC7f1lrd4Qc7csqgf8e5HeqBLzDy+HRFg7iSQTEm8muaYE3ULVJY+Pwa2Suow9/ddoQLFiRVI78oHeKR8SrXDCbUzEiKF3lASatD9nrH9lQdo1JH1+OugyWNCJa21te2zvC2NS0NzwZx55TsD88gX7FJiVTzRebYqYZEpqVFwv1HS3z8/mHWt4ZZ05tkcU+SzqiPe45WCLsOLRGJQPaYKJnaApJAqvU9SXzxIOvSQR4dq5KN+bXNEJZiSQooPRk2jM1kyIRXsHm8TF9rhP1TNV63Ksujk3UN71oQ85GNBfj6lhnW98b4ye48mXiQs3vjRIJ+lqYDbMvZemJfEPdjOZ4WlGKQJGRXsWker9oMT1d5+UBcDZb2TdeUWHreggS37M1rcdOfCWPK7NYtbRNdubSFlpifeFDyPwwSEakUGoXfrqk6AVz84RBhXyMzREiMkiC5Z7SME/CpZHZ5a0RVFbIW568nj8CcP4ht2xzM1ZQzJLkmsaDBcNmlbLqs6owqd0jGXFuI0sJ7/gmf+WYL4lOGYfxwfh6f2xGYLxCe2/E8Je52DMJWf+InpI/N3fcJYyw5VYikzmdQKZnEYkEtAGRjkU26UnP4zo5ZXrc0SSrsbxAI9eTeaE+Ia8p9QxUePTirMjTxVvjDc7s4rTvBZMXmIz85yIcu6SUYD+kmIUjB4ZkaKyVDIeDn1t2zXNgX103tR3tyvEFseKVYoOHH0UiOAkNUDkKcFcVNcwMsVSy+viPP29dmCUaayo0XyexJgTAxU+Y9txwkHQuSMx1euTjNku6EkjhP747yrW2zDBUt+tMhzu+I6GlfbJVXtYR4eNJUzwIZq7sPl1nTFiSTDCuq0xkXCXKj+NICwXEpWQ637ZklHvCxMWdz3bKEtiWMqkUsHaUn5uM+Cb9qDZMShYiEJuUs0kGDDdMWCT/0xPzqYLmuM0oqHNBgpU9tyXFlZ5hw0OA7+4q0hX0sjPppS4XIxgPqq9EeC/D9HbNYnsfCmJ9b9uXVkvm89giDXQnuHqlyVV9UOQidEXF+dHSa65ajPgpr28MM5+ssao+SCBh8e3uOaxbG+dqeMr+3KkNnIjSvYvgF616Iy3LlqxZf2TLNea0BNk2ZBDyX6Tq6Jq5dlmUgE6LuD9AdC2jtHXjh2jWyXDcC/wkIV+Hoi+TrfFK/zfkC4aSenhfmzR1DEGSTsAVabEQiK6LQzOCQv9N0R9noDUNPsqtbwuqiKCfz9kwEz3PZOlzEtTw1y3HErVBObE1bZkH8P/f4NPuH87xiZSsX9iUUMhbi3OntEQ7mTdZ0xdg/W2fTSIXfXpnl/qEK5/fFlEw5NlnW0KdAOIgRaOaCiBeC5TBVtmiNy8O/ac4JTIpjXypMQD6H/CLprxqS5nhynyCPyYTFbwQolC3e/bOjBGoWq3viPDBeZbAlykV9CUVlJN3SLJt0tkSZNhvtmLLtqgokFQ2wviOmaak7p2v8cNcM7z23Xf0RJCUxK4WcjGdzbBqtmAaBVQyXbh2qEq7XeWSowkBHjHP6E6xuDTNTd1Si2BL2MVq2NVFRYsP/ZnNOWxMpPxyYqrGhbPD+NUken7Tos2rcOOlw1cI4R6Zr5KUAzJnsLTu0B6EvFaRkeWwar3DtojQV1yVi+DitNcijBY83L01w21CNlw/EtNgR75U7j5TJBg1O74pqkTNbtnlgpMJAWvgGIQ2Hmq1a/HBHnjevbyOhBcLJPf/P51NAVCHytZ6qWBQtj+HZKv++cRwBaHZPV2n1XNZ2J9hXtIkmwvzukgS97Qn6kiHKjkdHrMFNeIEDz0Qe+eVm++GQYRgS7jp//QYjMF8g/AaDdqq/ZA5BUE29JgCKXkGyMQw9jYtJ0cbhCucuTKqcUFwWd09U6U+FmKo63D1U4fdPz5Av2/g9m2gowGjB4i9uH+KzV/XR1RJjumzxT3ce5TUrW+hqiZIMiMudoW2CIeEPpEMKW8r9TdtVg61oyIdjN1wCBar+4aEyr1uR0kJFofFm58Ou2aqVf9PKjL5necMWBp95eIK3rW8lK46Mx10nO3m2UbDJg9vTIuc/Ns8wEDIoehKD4Cr0LvbI10myYiCgwUoC46/siGDiY8NEnYGIx+1Hy6ySfIpwiHVtIY6UHHbPmmydrXF2ys95gyli0rqRvnKzaJqz3pbBFe6HIBEidy1XLLKZMIGQXzkMEcclE/fz9Z15lqb8dEUD7K14vH4wws0HSvSkQpzWGmao5Og9qvka167K8sBYXWPiv7V9hr6on2A4yITpUjWgxXY4UDR57WCC7UWb27ZP8qlXLGTtQIJCzWW4bjAY9xHyGWybrGmCpKzFmw8UCcVC/N7yNLeN1LmsI8DPxMvbtCh5MBDxsXna4rpVaV0L806KT3wZpLiWYnDPdJXpgsmd+3PsnakxNVXmSNVWvoF8p/rSYXI1W3lH6zrjLG+Ps6Y3xlk9kqfS9MB54QsvKRS2AR81DOPGU/25fSI+33yBcCJG9UV+zzl7bGkDiBrh4SMlypariX3/sj3PmwZj3Dxc5w9OzyikKCmecloUsyM5oSqs7zN4/EiRe4ZKvGNti/Ymf7xjhqtXtRKLBClXLd76g4N8/JJu+rqT7BmvEPUb9LdFGy0IObhKMQAcKVhafPhsm58dKinZ7rozO9gxUmZlX0IVFGoP3eQSyH5qWo5mRQjRTf5Z0AqB32VD8z/FRvpkny55YMt7NwyPf944zcZDOdZ1xPjDtVkOlRsEsgMFm/aIn2nZXEXhYRgkUyHO7YxhOg7X7ymSdi22zZis6kiol4Vh2RRsT10oR0s2Vw4mCDYDjHzBJ6zQn7BxdtVTQOqwI7MmfsNl83gN2+8j7YPF6ZD6EnxrX5mru0KKGA3lTeI+eHjGpD8ZYHmLuG+63H2oyNU9EY4aQS3wgo7DgbxFJGDoe//2zhkKkuBoGCxpi3FmOsA9k3Xed0E30/g0iElyXSSYyfQMijWHsuEjYngkDFfjnXM1V4sSaW8IKrF9vIpbtzRa/PTOmP6voEfzBYJ85QQdFFDN1e/b8ESJH2yd4o4jBVXK2LZDVC2rpe0TJF+3SETEZMpHEI9sMsIrVrRw7ao2uuMN86mTCJkRNfYW4DsilzQM48jJ/p0/Wd7ffIFwsszESfQ+dEOQHVWQV1EKNKVO+tf1xsarpkTihikIguuxd7zK4ZLFZYtS+jK/uCr6DDYeyrOmP6mb/u7xMocma6wdSNPbGiUvIU6xAOHjNnaVTopLSs1WVYN4+d8xYfLOFUkmTI9owODe/XmuXJzmm3tLvHlpnHgy1AhkmpMvNrkOAs3L7USJIY6KWimcXA+upzXr8nCWcdk7W+d7O2YIuC5/tDar4/vFHQWijsNgW1TbJVsFyYkHG20YHxwtu5yW9PHAtMXiuJ8tOYvV6SB3DtdZ1RnR6GdRL0iBcFFfTFsMkpPyVOJeQ+rWlIpK6JXnsmfWUkvkdNTPloka+bqjSNCiljC3HKlxUdbgs1tzrO5OkPZ7rGiL0OpzeXCixmA6zO4ZU+dTikd531cPxLn+QFnzIoSAKUtwSSLAtrGikhfP6UtyxekdLAh6DGTD3DdcY1U2yAOTJoMBl572ON0Rg0nL1ZaFfLbTumI8MmWSth1i0QAHCzY12+PagRixZFjXsCBVL+VLUEJ1wwdKNYtdU1Vu2DjGd7dPEPGJ6iRC2fWIhoKMTpVY1hphx2RZrbSj8gULBenKhLl6eZa3ru9U19RjpmUn38CWmsmSwlXYPO/W+KsnaL5AOPkW8Av+jp4c4NTYFJR6IBuuMpaVhdjwGlApZGPzmHtdvd54GKsVs2WrcsAxfHzm0UkCFZPfW9NKMhttBCeJ0WGTu2jJbQwD23R44/V7+cjFPSTiIQZbwpglk/vG61zSG+VhzYGINvIX5AGvD7dm9vhxsKZsatKKuGvXLJcslSyIJkP/hYc+n9EcS4EgKM2RiQpHqw7LEz7+9UCFnkSENw2G+eAjM1zZHdPT346cyW93BdlaM+iP+tgwXufGGYc39EQ5v8VPKGAwVnY5rzuKWbUwwn4CQZ96E0SDAT6ztcDHL2p/krLjeN+FOThGnAslGVNQoweGylzQHeGBcZPrh6p8+pwM4xWXHTMm94yV+eDqpEL8KzIBPnfE4i8XhvjOUJ1y1aaim3WUjzw8QWfYz7KYn66QwecOlpWcak0WKJVqnLOyk49f3osV9PGj3SWuW5lG0mETsWBD8un3Kzok4VR7pmrsm6yop8J3xm3evjhGoeqwrC/BSM1jMCXSRh+ZqF+Lg5PopPuM1sVz9cNSIMg1XXMZma3w9S3TlMbz7BwrEUpEKRsQ8vm4anGa/VN1WiMGGw7n1K/EM/xsHsuTSEZ45cp2/v6Kfkz/E+qS5+o9nqD77AfeZRjGj0/Q/V/0t50vEF70U3hiPsAvdOuTU+ScXbZA+nMbbVPoIG6LlbrDZx8a490X9yh/QFjw8gCWh5BY7mr/XxNAfRq6hKQtKsGh0VL49GPT/NGaFg7k6yxriSip8cBEmf993xgfOqedh6ct3rI8iX+uVSDSvOYQCLwthEhtLUjPXOKfJR9gqsaabBCfShwbXgiSGyG5El4TUZBap6HkPHlOk3OndsdzGSuZHMlbFMuWcg7uH6tydkeEi/ujSvi7sDfM7YfK+Gs2EVEDZELsnTF5fKzGtcvTDJdswtEgfREfw1WH9qiPtoDHwZJLUmSjPkMdMIUU2pEMqRpFTVHnHCmPX2Zqnip0SZcdkzX2j1cYqbuc3h7lUMFS2F/uJ7LGqOeRdw0OzJoqS5ysObT7PCVIZlJRFqX8FEt1NdKarDW8LcSiuzMAw4U6UzWbgY4467oTvH5Fhs5UmMMFG0ne2Je3GEz46UwEuHeoSiYi/AkfFQnrsj22jpZoiwVZkQ2xadriyoVJtuYsXrMkqYqNOUTkpVogaH6HKlWEF+ISxOUbW2aYnK5w15G8jmM8EeL1i9M8nPc4vztGPORnpFBTC/S9uTpHqza1iklbxM+yvjTXLm/l3P444RdPxoW0H6RQuAn49Hz74cn7yXyBcGL211PirnNqhmMfpilRVDhBNvinbKZSIIgET4hOGp0sm4uvkaewe6rG6r6EFhXSM2/sPj4QAmRAzv+Ghjmp/6FP+sLKy1MY3ZJwnYpJSiBheTNzffLjTI7kvc6UTP5zW453rcvqBiDogiAeUgwE5cYidWy2MITjYNYdbjtc5solKfxKiDx5CoRjY28YCvs+NFxWsmjVcgkHDM7vjXL3hMXShE+tkffkLFJBg4cn6wzGA6RCPpZnQmycsVjSGiHkOKow2T5ZRSSePU1fAXFBHJ412Vv3iLseA60RVnXHBMpRRYnq2ptF4dw6aNhzNySuolS57WCJ1oiPtlhA5/zBg0XaU2FNdTy/O8pDEyarMwFmbGgPuPq/d+zL098eU3nco4fzaqCUDhnsmqyw60hRHSHr0RBvX9nC8r4kj4xUaIkGePWKjMLXIpGt1Wx2l11WpAIqc625LoPpCE7dIhIJsGmiyuKsrBlDyZ1i12x7cOHiNFGRYzZTZo83+jklvrhP80Noked5jJclv8Jj73SVrzw2yYbREhlc+rIxFikBMcqiZJCkIDqeRxjUPturm9x6tMLYdJmZmsV5vQnOGMiypidORvgJJ1Gx/TSHRJwZxUvhK8C98+0H5BDXxJee5gjO/9ipPwLHb06iWJDN3BBzRekoSBtf/qr55T++SJDioFKqc9uBImdkAtyWc/j95Sk2j1a4/XCJ976sC9ODh/flVaVwJFdX6F+Mb+Ykh40jjacnQd2AmkjDvqE8vZmI2iv7g5L1IeDD/2fvPcAsucoz/19V3Zw65zA5J0mjnEYRARIiGDAIZEBry2EBe9dh9++1vV77b5vdtY3XCWMcYEFkRBBBIJGUxUgTNTlP90zneHPdqjr7fOfe29MSAmk03TPdPXWep59OdU+d+s6pOl993/u97xknRcYsjkkmbRNLhPQ4BYkvYCl5EFqCUhCnoaIbUq3xPzpSZFmLbIjid1z46MGU7TVgTGl7Pbh/XEsgixLik4M2l9WYZD2D/pxLxoENjUH2TzpEDQiUXKKxAH1jNsczJZY2xliRDGg8gqR6pETy6WGb7cfG6EqEGFeKD1/SwETR0+mcWMhkJOcyVoKVdUFCFeG1l656DWpzXQ0mferYJJ5l6moTcfSG8iUNeExnHe3Mfe/IJB3Nca6otfjkC+PUmx5rmmPs6kkz6QkI1ebK+iBGMsqXt/ZxcDRPS0OCT75lKd2pIPtGSzSIQGwooJ3F8ZJHZ02IH/bben5vbQtpGul9I0UW1QT4xvE8m+osag2DXVlFTdhgfdLkdNbjWF5xY1ec5rCIgf2087Pw7+4zV6jBr1oeHE6mSzx5ZIKv7B0mO5HTa291W5K3rW9iUWOU7pqwxqXYUsXkKp0WHMk7uuLh+HiRQyNFzYh6a2eMmlgIw7TmxP10DvN5APgj4GERPjUEIXwRNt9BuAgn/ZUu+UUOghAhVUhT9BuBp3TOWreXvFmK4mPRUWw/Os7OEZs1LTGu7Y7rB4o4GqGAyaHBnFZVfMuGBvJFR5c4VliPOTGYp60hSjholkPblSZCS/d9/Ri/t7mBNRWSJP32N00UTA6VCIQcO5mxqak4CeJMVJsu2auEVct5a+F2ELrYuSM9XuW9lzGLzSRq8JXDk9SpEsMl9Bv3gbEii+si2IZBvQXddSG+fjhDjaG4sjOOHTDpCilOjpUYdExWCz+FpTiVdTmZc9jSFtG6GJKD70/bHC6avGdFktM5l7aYqUW4Hhv1uLMrotkQX65Vgaw6EuO47J9waA7D6XSJ/okijjI0F8KKxii9WYetxybYXBvg/+wYoVQsMVpSOrTdakJzbYzHeya07HMsaHHb2ib+6OZOrf1RMk1iQZPOVIjnh4u4hRJZxyXriYhTmMaoyfeOZVldG6Q+EeArhyZ4Y3uUAc/kiuaojmK4pRJbR0s8fSKja/jvWpEiIuGRl1nDr3RvLKT/Vx2EyaJHRgiRfjLAU72T9IzneP2yOm5b00AsFmZ5XZiGWBDDVUy6ShNg5WxPg1Ll512jNhE8XEs4KsLEQsJoWlFWnd8Gk1BnP/AV4C8vxvSD7yDM7wX8U6N/UUBI+AFeAyCvWuYoaETHdvjK4QxXNwapD1v8oDdXDvNWz1yRV5ZUgkQQpMmbf67oaF7/Z05mWBwx6WxPVELSleeyrjBQ7BvIs6E1pjn3v7x3nNuWpqirgMd0lECiCChODeV44MAkv3VZvSZJUgGrTLMs+AfZ4Cv4AQGu/aQvzw1dMf02K6mO6VGOqvOj4RQ6C1IGH8wV7EFVB0PbXkFfusTOY+P0lhSXN4QIJcMMjBV4fsjm8qYwhyZKbGyKsLMvy42L4owVlQYiLk8FeWLQ5poWeXTL255Lz5jNoKtYVR+mUHQ4OVYg7ZmawbArGSQeMPhhX4E3L47rXHNtIlhhVKyoYE4LGU85CChK8qZ+Ksu3j07SYLq8bUMDjx2Z1NGfK5vDfHbfuOavOD5hk08XNOK931asils83pvl2EhWMzBe1Z5g1dIGFjfHuaMzwvbBIhHL4FTe0yWUDSGD7aeyPD9S1BGIS+qDPD/hsSICWdNkZKKonVlZe24wwJtXJDWh07OnMty5JM6JrMsdK+u1A6pJuSv4irky9+f7USQOmtyradtj26ksn9vWz8nhHG7Q4nevb2dVS5yaaIBUJFh24ivibPJd0jz6bpd73ZG0lxQIlXlL5L6rUi+f72uaxfOJ/PT3gX8DvnexSFD7DsIsrqgL0bXeYKoP8mqO9SxzgWUHoSzOIpv+ZK5ELFAGGsqDXpDjUyWFVVyCftgKicoZVjrtKORsTaOspEQhJPgDhQoH9MaTy5f4t4NZPrQ+VUkFCL6gTLOoHz5ahbGsCSBRiI8+fpot3UmuXJrSUIIvHZhgbcQgFQ/RUS/AujKL23xu1QiHZqh0FcNZm08ezfDW7ijPn0zTmQhycMLVvBBXtkc16dBIztGSy6KF8NipAmuFMyCtuCqsCMfDmEqxti7AP+yepDFscVVTgG1DNl31ER4+meVXVqfIegLRMOiZLFEXMGlJBhkpKVbWBDQWIfgS204n05K89P5TWZ27vrYtqgmZrmiJaozA0/15TowVNDCydzij6Zql8sFyXWIhC9tRDCv45U1NvPfSZoacMjnX6uYwj57I64VwY0uQIxMuowUH23Z1hKizMcbS2oBOwZzIeCxNBdjXn9PYBxnbvuEiy2sC/Li/wGV1Fnsynk5PfPiaNl3aKJiTi71JBEFKlIczNo8eHOVjO0YoOp5m5Lz/kkaWi2aHkojhGU6Mi91mles/CHwE+K5hGKcXsk18B2EBze701MDUZb2GKMLUw1+D0MCzDO0Y/Nbjg/zBZXV0JEVWSdc1lsP8OmxQ+XlaHl/6EYCikC398/YR3r+uji/un+CejfWai18AhBIhkLcOeRAJIFH0G7ITBfLBoC5j1M6F51EoeDokHQpaBENSNgkl22M4bevc883C6hgSvYf5TZurHQTxfiplhKO2h10skRUQZ67Ej8dc1kSFlCjMN04VuasjxGheUOgOIug8WnRYEbdY3hRh66jDjc0hvnQ4x6aGIEtrQ5r18ETaYUt7hNMFj/aY4BOUVrr8x/0Z3rU4RjJq8elDWX5zYw3bh2zWNQR1Xnl6SH4qEiNsjkppoqIdpzOUbIfv99vc0RTg80cyuqb+V1cmeXigwOmhLC2NSc1Z8PCxCZaELaI1ET58ZSsbltRoRkQh5XmhP88xLN7aEdJ0vzUBeK4nSzgSYHEywFeO5LiqJcTekSIlZeg0zLWdMS0T3R41NWGS8DpcUmOyY6zEv+4Z4z2L42xelKQuFdMO9AUQFZpzTxrB5owUXPpH8/zj1n5ODGbZ2JrgptUNbGyMEI0GSYVNAvOMWOw8GVreW/LA54HfNwxj4Dyd97yexncQzqu5Z/dk8tCWNwBhDxQUuIRZ5YX8bNXqpureq+JK+g3eY3CiSIPeUMrlgUUFW3uzGiz3lpXlKIBEEWSPrr6fSa28AAMH0w51mvQmz4b2OCEBPAqWQRLtQuEs5xCGvqE8BwdzWkDphu64rseXO3E8bfNHj/Xz21c2sbhJJJ8lUlKOMijH1aqQmv99QTgIQlJl6vz5WEEiBCVJ9PP4cJHbWiPszHjctSihNS9+cHSSRNRiUW1Y4we+cDDN5Q1BjozZmiTo4KTL1bUBeoqK9Q0hjmQ8MtkSa5rLmhSCBRDn7weni6xOGHSETY45Bg1SkBAOEvDK5aDtyTDJsKkdtqoTVmbfO5NWevzYOD84nqZ3IMu+gQz1dTG21If4Rk+GOskFhQKcHM1THw/RP1ngT29fojU4IsK+KdEphQZdnkrbpAyPAcFcREye7i+wpibI0jphaoSCpzgyUSKTLa9H2wpQFzSJBA36JkqsaQqz+3SWIQcCxSJDjsktnTHa6iIEQxWmTz+CoNkRhTXxmePjfOaFYcazJTa2xrl+UQ3v2NCAJwqrAgr+GUDV2X2azavehdJ5O/APwJcMw5AimwXRfAdhQUxj+SL0G7urODJS4Plhm3etSr4mynHkyEQAACAASURBVNMzxDgVdkLNkVSWdla2q0GKGq2eKWnkeoMI83iK5/oL3LY8pcPC2lmQyoKio9MOAiDc1pdnc2e8/D8BO0rsuuIgyFudOCGS0tDiUIaA5ZQW15EmtdajRY82oVzWjIgVuUFJaejcaAU0Od8dhIoAlhhRaI3dgs32kaIG/62tDdKTV3zn8AS/e2kDR7MeB0ZyRAwYd0xWNIVYnzI174CwHK6vD9GfdriqO0425+iqhkVCh1xyGXUMjTmYLAlexNU0zqubo5rQaFVE1pGn+QW+ejRLe8jkhiUpSoZJk3ANCLhTU1hLvllpnYyJgsNTh8f4+sFxnHwRFQ6Sy5aY9BT1QrmcK3FiNKdTTVcvqedv71xCQ31Ul58KkLRM620wmnOYzJfYOeEymS7o0kTJiUsq4oqWMMeyHptqLHozDs/0Ztk3XuSXNzYQU4rnxmzN6Hh5e5zOgNJVrQ8dSeuQ+aYOKbGFiADoLlbnoOrMVe8pR5hK8zywc5jdPeOcyDt8YEMjb1nbQGtNpExOIi8YvoNwNrvE3gpO4auGYRw9mw/OxWN9B2Euzso5jGkKYCh9VOWOz/KB+FP8B9XxTOENymH/Z49MMuYoXreqFnnPd20X17LoH8rRWh/Woj/Sl6ZjkeN7c1y3KIlVRZBX+62E1OUY7TBUIxeSRhDxGAzCUreuvaAK3e80Gy2kB/7U/Mm1ux6HhwssSVh872iaRE2EKxpCWkinLRHUFSMSJSoWHP5t7wSXd8RYGrfozyu6ExbrGst168WSYvdIgWPjDle2RIhHLM0kKA5e32SR7voIpuNp4Z3RrM2Dh9O8fWWS1oiJY5gM5ByW1cc0+HFUokg1YV0tYknkR0oxPY9P7BjlYM+4jkgc7Utz08pGDg6kkRSJRJAGRjJkQyH++qZu3ri+kWQqXKbz1iWrZayL7F/posvOwbwWk3rq2ARbJ12tDvnHm+v46okc7RGLuAXXLU7y2UMZbqm3eHbE0dTJMp4XBotEIxYTEwU++ON+3rq2kf92VaOuVNHtJZU353Crzb+PSsRH34vlqE/R8/jcrlEePTDMsbEc9bVxfv+adlY2RUlGA4QqpUQL6f46z5P2r5VSyQHDMCRAOu+a7yDMuymb/QFPr2Iob8qVXXka2l8iCqLCJ299InZjGvLwMTQA7cEdQ7x9Y4N+M5Qwpk43CCeBpBEMg/DLVRZUGA6nrk5SE5bBd4+kNRDt7pU1F8Wb33QciWzCe4bz1ATL1SA3dEYZMwIcG8oSxGBpbVD7U/snXM1DkDQ8nU56frDAlo4Yq+uDDGRLPCS0xuk817THdZrhiYESb1oc5ekBm+VRg/5MSZeFfrGnyJsaTb4zYPOrK6P0lwwNKt2b81gsMs42WvL5srqATvMUbI8nTuXpLbhsSsB3T2YoZWy+sX+ElXVRTk0UdNWEVMKsbojz17d3say7Vm/kUneimTRFz0MiEZp8qRypmrBd4rYNsTDjWYfvHBhnbVNYgyZX1IX52pFJNtSEuGVpnIGcy//dPkJ9MsiKVJAf9GS083JbR5yRQJQ3L48TkbJZ7RyUuTMu1jZV4aTVQcVxdPnGrhE+vX+EpoDB5sW1vGVNA82JYDm6V7n3L2abzcBaKQAngD81DOOBGejvvHYhDsIfn9czzt2TyR2xCFhd+UrN3aHO7siqm1RZfkGRL7p6UxdwYPVtQh7kQkykWQ0F8yBARqHglcCFaDBU8AAH+jLk8g6XLqnRxDpGQISAynrx1SapBTmnFn+SXUIe4hX1GNFlkHEEwxdHaHh69EbC6t/vy7M8ZvLjnjQ3NQYZdU2+f2KSNy+v1RLWE46iPmKysi7Ej3pzuopgW3+etK20emLfpE1LbZg9fRk2NEeRDPzRcYd1HXFUsaSVEJvjFk+dEpGngK5ztzMFDuU8VjSE2T9qs6khrLEtR8aKXNEWZcJWmlUv5Lns6M+zriHE1t4MR4Zymqsh6jgcHy/Q3RjjyZNp/vTmLm5cUUcqYpWjShJS0hTX5TVwxkFQOpVwdLzAt46muWNxkkTIYiLv6EiHRE06E+WIyTMDBWqjQpnt8XRfTpfg9udtgq6iNhrkks4kW2TNVYi29HY3jXlzdu+gudl71fGXe1RYT4+O5PnUzlEmM3lypsmHLmtiY1eNdvj17VlJSfgOwozNp5AviaLkZwzDkEqIOd/8Wp+XmSKllDxP1gM3A7cBK4Cayld0zs/qOQ5wqha/IsT0D7smuLM9xLLWxNTGLg+bfM6mL+uypD6s/64xBMC2ngzRgMma9rh+S9QQASUPfpskHu0tZ/qRodq2ozUGapJlBkTtIEjTmg1lvIKmdp5WQnmOlzhnPz7lIIhktesxXnB5uDfP1TGXL/SVuLUlzInxIvXREJsbAuwYtqlPhjiZcbimKcShSYcNLVHtqJ1KO5jKpTka4DN7xmmNmkyWDNprQpqqeTDrYJc8XdIofANSfVCrXPalHa6uD2jq6aGsoyWkr2iN6o09J+PKFvnI7gmMgi2D5G2raxnJl/jC7hHWNsXZ0zvOibEcq9pr+PNbu7l0aZ0W9tEpJOl0+lt8pcpGrltAmYWSh+O6fHbfBDcvShAPwAM7xvjg5nr2TDoMT9isqQuybdxmcDjH907lqQsZvLEjyg9OpjmYdvmDW7q4ri1GWMrzprNjvsay3zm7WM5yYFVsUQmJBJV45OA4n98zTGsyxLUdCda1JdjUHidYqVqorkXfQThLQ7+6wz8F/LlEFwzDKL66j5z/o3wH4VXYvOIwCF5Oar3EWbgLuBvY/Co+Pu8Omb5J6dCv7NnyVQkHywXJ3zMTBZ4dyHPL8hoduhXiIqmrVsJ1oMFNJo6QpqD0xi+VCJGwRUwTr5xZevmszT++MMZ/2lSnkfNljWbZTCrOgZxQS0sv/PDwdNs7nseJrIeVL9CTdTiedkkol+fSDu9ckiRvBmgPeDw/UmJJbZDVDWG+tG2ItU0ROppjbBsoks+VyEeC3N0RonfCJhwO0RqBXWMO7fGy/LEQWuUKJa2mKJGDS+sDjDiKziBs78uxfajAipYEb1wc54EdwzpC9O3DY5pAZ1VjhFFlYBbLb+/fODzOZLbIr25u5de2dBGPSLjaKjt+ldy33rSrWJLKOigDbD0e7ytyZb1F0DTYN1Rg22Ce54fy/PblTYSU4tMnCtyaVAhsfPeozd6BHLWGImLCC7bJ729uYG1bQlcraOrs6ees3IkXY069HD0oq646BpycsDk6mOHfnxsgbbv8wvoW3rmxfgrEeTHa6AI8qKXaQZayKEqK/sOca76DcA5TopSKAd2V1MTyisNwGbCm4kycQ+8X/qPVnOXLPSym8pnTHrov/Zv8S0oj7UKJ9uZ4WcNBNoaXhHoljSGKhTq0WfY+zlx89eeXEYe68BaavRFMt+VYrkTBcfVb/pMDNovjFotrA1rrQCithUPimuYIO8ZdvrNvmM2dMZoSEZY1RHQUZttoiVu6ogzmXAbHi6QxiInA05jN+rYYSQucgsMTaY+3d0Y4MF5icSqAZ5qI8xY1FL15j+Gix87TGdoseHa4yNBIlngqojeYo6cmsEsuydo4/+XKZu6+pFk7lLrEtvLmPmWtaY5eNb0g/xNA6gsDOZ4bzNMYD7IiYfGUMDsuiWm5cAFJCgFSMVtk66itwbCdUZNH+gvcsaSGX9rUSF1dROMN9Jqd5oRe7BvedGyLRPoODGR5aP8YW3vGMUNBPnhFK5s7EyjTIhGaO9Tjs3eHzbmeDwPfAv7JMIz9c2V0voMwCzNRcRwuB64Crqg4EW2AfFUr92bhzHOrS3koCQo/l7VZ35XQwLSXq6yQ46ouQTn1WUa0VyWYX04Yam5d6eyNRmxRKJQ0oc0jPXnetiyuw/DFQonHBh3W1wV0nv3QZEnjAW5rDdHWECGTdzWlcVMsoDfevAsZ2+XZ03mCJYdljRG6kwH+brfQV9dRtF22j3tsaQlyOOvSGjLYNlJibdLk2YEi3z8yxmjaZnNbHBWPEMnk+f7JNMWCrcGph4YyvGFNI/dc2qr5F3pzitUpwa2UFR6nmtQaljU7p4IIwqugUwySonJdhsZyfHJ/mpX1YZpF4XEwj1EXZ1OqrNB4SRy+1VvgkYMjdCdC/JcbOljfmdLgx3KJ7RkH4WJ3DKp21/eUSLRLikgpDfz88u5BThZc3r2slrdf2kgyHMQSp+4ix2rM3t38qnv+DPAxydYahiEgxwvWfAfhPJteKXULcGclTVF1GMRpeHlVnPM8vpk8XTXnqZ0CwRNU5ZanpSqmn0/SE3KofBcPQcrjAtPFli6CFMNL7SFMAw+dzGMLnwQet7ZFtNSubNaitlibDOkoulSUiG7DiUmHaxYl9O/jjqIpHuSTB9Pc2RnV9vzbI3l+c2mUQ2mHrqhFS9Tksf4CN7ZF+NYpmw0NIeoMh3giSGayyN88O0R7yGBHAVLpPLGaCJGQRWMkwOP7h+kdSpMJB/nQ9d28bk09R4cKnMx7vGF5ksMZD69QYllNgGRYSisNLcEtOgiuUPhWqhkErKgdIdvlhYkSVsnhn3ePcPfSWtalTP7suWEuqw3TWR9mfNLm73YOU0gXuHtpij98/VJN3qRTUGI8zZFRSWH4G92LbmfNZSJ2Ljr85RN9PNs7yX1ramlrr2FJY4yWKQ0Uf1uYyefgOfQl6Ydfr5AvCWvjeW/+SjjvJj9zQqWUAB8bgSZgI3A9sKUScbiAI5uZU+u3Fql0qEZ7ZYOX3exlHIRqSF2+P3oiQx2wqTOuiXSqoYSLAYMw3fLyRi2VIeIkHBrKYTiKb5zIsrQxyt1LYhwad1leY+LaHj88XdBloWHX5cZFSXb35zmZd1khkYKYpVUcUwZMODBW8uiIWhRcIcop6nTCrkmH5wbybGlP0BiBJw+PkS54dKQCPNyT4/cua+BDPzzFzU0RfjCYpytssvfUJG0NMf7qli7qayMkYyGt5VBjeIwSYE2NyZNDNs8fGeeKRUmSJoRCQU3xvCppMYbFZfXlt1aJJxwbLnBiwmZUSLEKrh6/EB49emickxN5EtGwxrkcsz0+saWdq5fXaTBsQDgyqumEiuJomWXTD5W/eD252rn0CjYP7hnhxyfGaUlE+J3r2lnWJKqq5eoiTUTmt7lkgVOi+yCgRsMwjpzPgfkr4Xxa+1WeSynVAmyQPRJYCywDBOPQ8Sq7mDOHleWLz5A2lV/yziy7aumVgBoP92U1/bIoyEVNQ3PvT8k+X4QENyJaJE1ktF84lebPto3y2xtqWdsc44WxkkbvCz4hh0kyaFEbgmQ0qAmQokFTMyVmbY8gioHJEnvGS2xoi7KyNkQ0ZJG1Xf59xxjvXpmkz1YEROvCNJjM2/zu90/yyxsa+MqRSVYImNELUGspugPwjRNpltRF6U6GeMv6BhbVhmhMhtg7mGco77ClM8q3juYYEerelhinMyWuagzxo0GbS1MmeyccmpJBRgseN7RHqY0EGMvZ/POzA8RjQY6PFahPBNncEuPocI6hSZvnTkwwUfK4fnk9f3BjB6lURANhBbcy1ap8HbLgLsL18ko3vVTFuI7Ddw9P8Pldw5ru+nXLGnj/Fc00xwJaoVHSPX5a5pUsecH+Lw+ErwJCwCSKkrNO6ew7CBdsrs/+xEopebGull5eDdQDtUBivqYoqmkIedgfG8wTClu0pkIEfXrXqQXiOQ65vM3jJ9McLZq8e3lCMyEOpEscnyhy07IarXD44wGbaMjk+HCeqzvjtCcC2kkQLonTGYdvHs/SETGoqYkQ9zxWt8bY1pul4Hk0xIKcEtXFkTzDpkXfUJpUwCCnTLaemqQrGSaTLxEJWizpquF/XdPIdwdcEnicGCuyqiXG3tEiNzYEMMIBTaIkof9Y0KIxEeLYaIFP7J/k2jqLlpowRdGaKLmsbogQtQwePZbm6RPjrK2LaCzCt3uyrBLOAxHz0gyLDh/Y1MhtG5qwhCojYPoaAWf5CBEHYThT5PO7R9jZn9Vzee/6BpbVR2iIB7ECVZnmhV8tdJamm4uHDwH/A/iKYRj9szVA30GYLcvOcr9KyZaKVFHIl6QpxHF4HSAYh+Qsn35GuxcCJWmaL6GSj7Z8BbkXOQhCF1XMl/jYrgkt9XzX0gQTImlZsEklw3zhSIZ20+O6jqhG/tfVRMjmSzTHLOJBix39OU1otbExpNMREmq+a1mCNfVh9o3keeLYBK3JMFv7ctzaFePZvgIHRvM0BC32jBdJeC63LUlBOMg9G+p0CeuOfptl9UH2DxVpDkFjLMCxjEtUeeQcj2UNYUYKHlYoqAmbJgRH4XqMKIObmoI8eNrm5qaQVnD89AujGmfRFjY5mnZ464oUX9gxyImcq6MQf3p7d1nK2VVatVMiBPNduXNGb6JX0ZmUkY5M5PnawQkODWRpiJj82rXtJKNl/pGyBoqkGXwH4VWYc64cMg78EPhPhmEIY+OMNt9BmFFzXvjOKpwNUnpZTUtIqqL6JRGIOde0g6Dr4sviMOIpiDqj38oWEHCZ6BY4piJbcMnY0JN1WRwzNLXw7R0xvIDFE6dyNIRMtg4VuHN5Cs9VGiC4/egEDw27/NKqJAlL8e0jaW5dnKSrIart3j9ZZPtQkc6Iya7hPOtb4kTwaE0F+eGJPB3JAEHX0Zu/Clh0pYJckrL44sEMyUSAYCjIWLrIilRI6zR0xCyNW+gOGVzeGWUo4/K5feMsSQbY2BphJOeyqj7IYMYhkQgTcV3+8KkBvHyJPuHKQDHqQHfE5B2XNXPd4hTxULnsUtAKAmDV6p0XGWj1XO8HicxI1clntg/zRG+aYdfgr29sZUV7Ei3aLiUOhp9iOFc7X6DP2xVHQQiYHpwp8iXfQbhAs3khTquUEpInSU1I+aVwNVRLLwUsecHWgsYpTIUQyk6C//A/s0LcioNgWAa2kFAp2NWfY6Tk0Ro2NK3y1R0xeiZtgsJw6QiRkMEL/TkthywUywdGiiytDWmFxgP9WZ7qK/LeDXVs7StwTVeUvoKiK2JyKOvRFVaczrqkQqamcX72VJ6062kcwYGMS33Y1BiRPRMlWgOwqi1eLkU0LV0ZEY1ajORdJosuP+jL0Rqy2FAb4OtH01zbHtNRIlEBffh4ml+/pIFnTuf58s4BxrIlIo7DgAPr2lP89W0dtIioU8DSb7ai+DhFjHiREGed63OiWkIsa2Y87zAwWeAjT54m7HpcsqiWNyxP0S3cEeJsiaMuGATf8TpXs1/oz58GPgp83TCMQ+cymAu2KZzLoP3PzqwFlFISbXgL8PaKAzGzJ/B7m1ELCJL/m4cnuLwtimSaUgF0CeE3Dk8yVlKcKMGWWtncLY4XobHksKE9RihkkS842sn46O4xbulKcm1rROfzYwGDFyZdBrMuSwMuX+8tsDYVpKAUfcM5XfFweacgDqA5HmRRXZDj4zbDhbJglwg4pR3oHbM11XMwYPCj3jyukDxFAqxIBmi0PJ2G2D/uUHJdTqVdFqUCfHfnIN85NsnIeB4rGeUvtnRx05p6DVI1pIzjJeJeM2rMBd6ZOAiSusuUJArl8NXdI/zwVIZkwOC/Xt1Cc31cp4v8yoUFuxC+A/wHwzD6XssV+g7Ca7HaAv6MUioMtFe+RLxKog3XAJdcTCRPc3mKJeUwmCkRNxR/8swQv7axVvNF9IzbFBUsiRlam2FZY1QD0T57IMPKuEljPMCOExN01oS5ojNBb7rE93rTvHlJitN5j9U1AS2o9JPhEl1hgzCK0zmXU3mP1qDii8dyvGlFSusx9IwWWBQ1OZxXJJVLMmLpN9HvH8/SnAjw7lVJvt+TY2PS5PlJj2saQ3x73xipeJCVLTGOjNnc3Gjx0P4JPrlnlOGczYr2Gv7wunbWt8Y0T0IwaJUFneT110fXv6YlWXUQPBRHBrP83g968XIFljUn+a1rW+mojWIZZplkym8L1QJCtrRLWBqBz55N+sFfFQt1SczwdSmlhMxpXaX0UoSsJF0hX0uABS9gNcPmPKfutD6G4+Hi8aXdo1rD4B0rUgy6UBcxOTnp0DtR0gJZNy9J0DvpkhKxAk/xk9ESrUGDVXUhLfr0WE+aVDhEMmzqKMEV9UF2T3osTVqELUNrHPTmFSsaQ9gFhwPjDpcmDX5v2wQb6wPc0h5j2DOwlKI2YmkK370jNu+/pJ6so7R65Bf3jVMftbi8NcaxSZsGEYHK2Bw4nebzB8epi4e579Jm7tnUpFU7tSaX4FEEa6CliUXYw8+Nv5ZFo9eKUowXPXacHOcL+8dJ52ytBnrz6gbqIgGCIsU+XdTqtZzI/8zPtYBTJjQp03NUdt0LVE7aAwhO4YuGYex+pWnzHYRXspD//59rAaWUoAmvBN5QqaIQgGS1uuKioZU+n8tE0xI7nn7Q9I1k+cmYQ3fCojkR1AyKMXlbLBr0Z0vc3hnj2yfz3LkoxsmxIqeLUFSKOlPhlDx2p8uVBZImuLo1yqePZPmzK2oZKygePJLlyqYQjamgxhRETXj6dJ7NzRGODmSpCcKxgsdVi2oYzBTZ3l9gbUTx3LANIYuWRIi7OiL0uoaWi5aqg23HJjg5WqAYsHj68CjrmiL8yc1ddLYmtZOhwYeup3EKZRXP6lPVdxDOZo1N1/KwPUWm6PLAtgGGJwocsuH+9XVc0honGQlqzQzfQTgb657lsRUnrVTBD4mmSJnH64JXi3wb+ANg38+idPYdhLOca//wn28BpVR8mjS2sENK+aWUXkq0wW8zYIGyVoXShDaCTBdxpUKmSH+uxIr6CJFwgP3DBeKWR2vU4lQRNtUHeX6oyLUdcTzb5bsnslzbXk5BPHhokpawCbEwt7SE9GePjhWJRgPsOJ0lFrZIZ4rUJCOarnltY5hYNEguZ2vFxdZYkFTcImeYrE8FtGLnkz05ShicHityTVuYJ3qzXFoXYLQIPzw6wc6hHH93WxfrltaSiIpI6pn2ojerqliXT3x0VitnOgGZ47n0jBXoHc3x2V2jhGIh7t3YzOL6CMmQqSMIgmHx2+xYQOZCFE7/8tETZCJhPnJzp+YIMedGpZZITR8F/gH4l5emH/xVMTtrwu/1JRaokDwJGFK+VleopaX8Un6/4K70fJqw6W+HolshjIu5XInDI3mMQJCmRABVKvGj3px2Ao7lFJbrsrMvy62dcfpKBkfGClzfEac+arJv1GZRMoiyLJJBE5GZfnj/CN/vK7C8Jsyt3TEmSx6jOZfLmkKMKpPWiEl/ukQ8ZDGYdTgwWuC6riSnJ21C8TCX15o8M2CzsS7Io0cnGc7YJAKwb6RIMh7iP6yrZ0VXUst6B8IvdhDm01zM1bFOdxA8z+WhQxM8sGOIhqjFlU0x1nSmuLwjodM5Pr3y7M6ipo/fdppf+fZRPvaWldyyrFZzgwg4dI41oXQWpsZPGYbxnIzNdxDm2AxdbMNRSgkT5LUVHYrrpmlTNPiOw8uvhurDX/6rTENH4pXjUszbPDXssKQ2RL3p8s3DkyxtitIcUJwes3l63GFRKsiewTyXN0YYcOGmtgiPn8pzlcg+xwL0DBdorQlRE4IXTperF9rrIzQG4UjaIRoK8LWeAtck4VDa1Wh40YU4MGYTTUTwiiVaoyZPDNk0Bgyu7o5zpD/H3+wcYWg4z7vW1vPOS8tYA03KY5kvpku+2G6AWbre6Q5CtljikUPjfG7PKK3Ncd67LMnaphgRSS9o7YUX05/P0pAuum6rqrRCNvKuB/ay9eQ4j923kY7muE7pCRvqHG3CSvM94H/5DsIcnaGLdVgVMKRgFwTHIMyQd1e+z0mSpwsxT9MdBHm6yxughP5LJYe+tEMqZLBnuMhApsh4UfG6xTHyJUXahcdHXe5dFmVff55Rz6BYLFcgrG+OELcM/mrXJHe0hNg5VuQXFkfZPu5i5Us0NcexSx5dCUt/djhfYhyLdlXi0s44hqewMRnMuzTHLV0hcXy4SI9hcfT4KCXD4g8vb2BJZwqtQGUKVbJW4tJOgt9m1gJVCnPXMDg8mufZoxN8bd8obXVR3rm+gWu7JXpQxh5cILDczF7wHOxN5kCqS01D8cZ/3UlD0OSB964F28MIB+fDuheuVr/5FpjbFqjQSgudtJRfimCVYBsk6iAlmM1ze/QzP7rpKQYdBhQHQVc2uEK4qB9IQoy0qy+r1RybwiaHR4u6zDFnK9a0RBnJOPQWPJRpsiSKdh464qLwCKbn8dDhSRxPsaQuguk4rG2N8+UDE9y0KK6JkoS0aCzvaEGmPWMlBgseqbBFxHEZ8xTt0SADWVsj6Dc1htmyvJZYJKRzr0ZVv6tSrbAgiHkEFyIRncp3eTOX1I/efKvfXyJUNvMr40yPZSfSw1FwdDjPV/eO8OCBMf7jpiauWFrLysZIGSj3M6TXZ3NsC73vqegNUFJQKjhs+Juf8J9v6OI3rm7ThJWS2zGDUuMzt5vvIMzt+fFH9woWUEoJV8PlwGWVEkzBN8jf5v7dN8OzO91xqNa/ixLkifESlufy5LjLbQ0WOQ8+vWeCX1ydJGd7eJalN/i+sSJbumI6L/10T4Z4JEBnzOLbPTmW1QTJuYo6UYj0FM/2ZEhaJusawuQV7B/IsrIpSm08rPEOUvWQCFn8wuo6gtGgVpSsJLxfdNUL5u1VOwaKgqNwKzLd4iRIqWj5TVIRC5qY50ljRCJK4iAIsdWeoRxf3DXMsz2T/Pnti1nWEKMuHqzwS/gRhBm+DfV8U3J0GsEzTL7zXB+/98QpfvT+dTTVRct04eIsnqe1cC7X5zsI52I9/7Nz0gJKKYkqvB94X8VZEPKni8phmCLIEeGkkiJgKCxBq6PYeWKCAxmPpmiQI7bHVbUB6gMGXzhlUx9Q3NwV4/MvjHJDXYBSLKJVHKMWtKRCPHIsza2dMSiUUxnjDgRjQQ70ZQlbJlnDYNQ1eevypN6ELMPQIlHypqqFHwR3MHdz6FlxlwAAIABJREFUr699PVeqLSTqMpR3GZay0KBBrYUmn1KGQVBf+/nZkHUkQxwE5XF8tMCnftJPf87lN27sYn1TtFy1IGP2q0Ne+5z/jE9Wxed0ObLt8Quf2suK+hD/+60rypULQp2u8TdzX2/GdxBmfHn4Hc4VC1RSE6IzIekJiTK8s8LXEJkrY5zNcbw4oiBnUlr4aXdfnoOTJW7ujlOyHYoe+ns0aPFIb57r28J8a98o793cRMhT/Li/yPWtYfaOlFjZEKJou2RzDl87OE5zMsR4zuP1S+LUpkKEYyHqQtaL89paB6hCeCQphgXsIAiF9GCupMtPT4/bRCNBaoMmjYmgBnieL0CgRI5k/scyRf7+2UH2DWRYVBfl169uo7s+ilUpa1wwEZzZvJHOsm8BDEuTFNPe3jQ3/MtO/uSWRfz6li7tMAteR6Jp8+E+8B2Es5x8//D5bQGllIAfL62QO4lw1RUVNsj5fWEvM/qqg1DFKMgbozy0tDaW6+JaFuM5h1zJ1ZiFPcN5bl2U4lTGpjdt87ZVNTx7Os9QwaEtaLKyKcLOvhzPjdi8blmKOkuxuCaE53hEAwZWJFgWBESkmCsERzqWauhyRt2ECEl+X0Ctmu+X6xQHYevJNI+ezJDP2iyrC5NMxLhxcZL6eEC/uVfZ9GbTDp7j4ChPC3Z9dvsQOcdlRUuCd66po7Umiqnpq3X5woKbjwu9tKric3Jf/LfvnuCjjx3nM7+4hjdf0oLgcrWzbM2P+2Bh3akXemX455+XFlBKLQXuAe4CugApsZS0xLxu0x2E6oWIgyCOglbXLqPqdK5U8qJSpRCUt39hVpRjTFCSypYtTQmXgocRCmA4LkbARBDyervzysyH1Q1Pvk85JeIYVGW8K87CbG6MF2LCphwEoOh6PHxkkgd3DpDJ2IwZFjd1Jemqi/K65UlikSA1WmOiMtIZ3qA9eTsVcJyARYsO39o3zlNHR0haBm/Z2MxVi2sIyfmnWCp9B2Gm14xE6QScW8ravP6Te1gXC/DhN61gRWO0XNpbTbXNA0fZdxBmenX4/c1bC1RSEsLaI9oSdwC/WmGCnLfX5A/8/Fig6oyJY7W1Z5K/e/wUu/uzRAIGy+sihJJh3rmihmUtcZZJiF8wGbOAARDiLNl3pMIkYSmt8PnAjgHtsP365jZuWZbSFL+GeH6+ANasLA5J74j/9fiRMd77xQM88e5VdC+pLytmGhK4mT/b7vwZ6axMpd+pb4GfbwGlVGoa8+NNFYdByi395lvgpywgFQzfOTzOF7b1s61nEs9xiUaD3NiZZNgQ8GYtd62u1+qbslkIF8FMNh1BkIyOpI2Gc3x+5xD7xorUBE1+aXMb13QlNLWyvMXOhxz4TNrmfPUlcuwCDv3mriF+86HDfOk969m8pGZK72I+RdB8B+F8rRr/PAvGAkopKal8PbClQhUtaQmfL3jBzPDZX4jOOxuGVtncNZjjkzuG2NczTqbgMFJwiMcjbEgFuHZ1E7euqGNRqswkKQ7CbGwYmWKJnafS/NMz/XQng9y4oparOpMko6FyxmeGUxtnb7GF+wmJIOSyNr/0xQMcGi+w9YObtT7KbMzzbFvRdxBm28J+/wveAhWBqncAv1zhYhD8gq9kueBn/swFVh2Eku1yNG3TP5zhxwdGOWzDC8fHKZkWqaDi9uUNXLusTqtYttWEMM0zYLUquO1s3+x1eqOSrqimOgrFEn/+RD/9o1l2jtp85PZF3LQkKfDRslJmpc3HTWuuLaupaiEhxDJNXcFyqmeMqz+9jz+/pp33bOkmYAnuZP5tt/NvxHNtdfjj8S0wzQIVbQlhe1wHvBm4s6Ju6dtpAVug6iAIBuHYSIEXBnIMZWwG0yWeOTLKiOMh9fHxsMV/vKqNFc1xljZEdeljtZJA9yEZgrOknp7uIAhAzlAi9V3kO/tG2TVSoCkU4M3rG1jXEtfRg+nNdxDOfVFO2V+Av6ZJJm/zrs/uY1dfhiffv5bmlhShwOxEis599D+/B99BmG0L+/1f1BaoaEtsBq6p0EOLguWqi9ooC/Dip4MUJ/OOZo58ZqBAfcjgqd4smdEcn9s7RFc8yKL2JJd3JLm+K8Xyhki5Jl7osnX9aXmTOZv2IgdBMywrHjkxyaO7BjlqKz68qYFLu5PURCRi4T/yz8a2r+bYF1GfK0W26PCmf95BPB7ic7+4SkuqB0R7YR6BE6ciTK/GAP4xvgV8C8ycBZRS9ZWyyrcAyytETsLP4D+9Z87M568nKQnVTIryvcz7IJtBseSSdzwmMgX+YNsYxdMT9NkeluPwhrVNvGNdHd11UR0xMAxT0xJoB+EsN5LpIW7RwRKQ3L9tG+LBHX3UxkK8fXMbN3cnaIgHdQWD32bHAo5bJiI7OpDh9k/s4NeuaOd3bl+sy4lFvfRs53V2Rnl2vfoPpLOzl3+0b4EZtUAFv5CsRBjeA7zVl7meURPPemflN/gye17ZxxPeCLR4lo3BWN6mWHT46LZRdh8fY+94kXcuTbFlRR2rOutYUx/UZY/nUv5WFQhyAKdQ4n8/1c+Pjo5Snwrzxzd3sqg2QkJvUr6DMFsLQkpMpXrkE0+d4v//0XH+6y1Lue+yJq1FIjTkvoMwW5b3+/UtcJFYQCklNNCbKl/XA8L2KFEG35mfo2tgeg5az1I5mKDFmySakLUd+jIutQHF//jxaXYdH6U5ZNLRXccfb+nQIehw4IyD8JpSDGIbx6WoFKfHi3xy2xAnJgpc253i9tX1NMSCpF5KgT1H7TmfhlXVvDBchWMalAol7vvyIVriQT5y11JNSiVNc0/Mw/SO/9CZT6vRH+tFaQGllDgIQtx0awW/0A0kLkpjzMOLLnkeIwWP0XSRJw+NcKg/wxNDBVY0RLlvcxtLakO0JkMEZTOpIOHP5jK1g1JhrBzJ2zyyZ4RvHh5naU2I161uYGNnQjNeJudpmPtsbHG+j9UOgu3ozb/oKB4/PMr93zzC39yxjDeubySguZXL26wfQTjfs+Ofz7fARWgBpZQoU95dYXq85WJTqpxvUy6hZwkqDKcLbD+dob8/zT/uGGbMUXx0SwdNXXVc0RyZCv+fLZCwGsEoOYqRnM0ntg/x2IFh1jfGePcVrVzaEQfPJCBy02eJb5hvtj7f41Uyt0I97inySvGBB4/ARJZ/fd9GouFppY3zlHfCjyCc7xXln8+3wAxaoML0uBhYUSmpvB3onMFT+F3NkAVyBZuhSZsnj47zyX2j2NkSVtTiL25dREddlIZogEDAJHCWQEIt7e0pSp7iwEiBv336NHt7xrm0s4b7r25lVWNUsyfOFinTDJlnXnYzFUEIWgxlSvze1w4SDgX4m7eu0MJMMp+vpXR1rhjDdxDmykz44/AtMAMWqOhJCAeDYBeuq2AZ1i4E8akZMM8F7UJomB1P8Xxvmkf3DvODngmaYyFuWFzL3evqaU2Gkf3ECkiA6NU37SAoxWje5fsHx/j+kTGCnsd1S2vYsqqe5ujssja++pEuvCO1g+C4OkL08N5R7vvSXn7zxkX89s3duipF1DtFmMEIlLEI8635DsJ8mzF/vL4FztICSokuI+8DfgG4vIJf8Msqz9KO53q4OAii8ndqOMc/7hrhYO8EPVmHWDTAX97UwdqWBIm4cBWcXaWBbFIl19M8Cl/bM8rHdw3THA5w/+ZmLulKURsql13Oxxz4udp8tj8vtndsB9fz+MfHevmnbf384AMb6WhJnFE0naf4A7Gd7yDM9gry+/ctMIcsoJSSkkqRs5Yow9srbI91c2iIC3YoUiMvEQRhVDw6UuCL2wf49Asj3NGVIFIb596NjaxrjRGsvG1OJ+D5eZu7HGeXHCaLDo8fGuMTzw+xrDXBhy9vYWlzTL/JTpfiXrAGvgAXJrbX6o2uy92f2ktj0OTf37uOQOAMhfYFGNaMndJ3EGbMlH5HvgXmpwWUUsLuKGkIEZ+6EpDfffGpGZ7OakmcJKWPTTpsOzrOF3cP0Zsuagrm/3B5G69fUUsyJjIeIuT0ypoJQs6Tcz0mckUOD+b58t5Rjo3keMPqJt6xvp6GRAirrDI8ReA0w5d1UXdXjSBsPTbOL3xhHx+7czl3bmr2HYSLelX4F+9bYAFbQCnVBryxUlq5EWgBahfwJZ+XSytTKUvOWuGZBnv6cvzRcwOM945RdD1WdNTw/k1NXN+d0uyKwZ/B31+NLEjeW9SdcyWXHf1pDvZM8rX9YzTVRPjQFS10NiWoCws4UYocfQdhJia5avtqREand4ol/vKHPfz9c31svX8TbfURjMD8ZE58qY38CMJMrBq/D98CC9QCSimJJMjXjcC9lUoJSVP47SwtUNVakFSDh4HQIu/oneS/PXqc5dEQzVGTTSsbuLK7hpqwSTJkoUR/cVqKQE6p+/EUWrnBNMnZLg/sGOShfSMcG8rwvg0t3LaxiaUNMRJBw48gnOU8/azDpwixxDObFt3pGcqy/p920BEN8sR966mti+py0oWA+fAdhBlaPH43vgUuBgsopaJAF7AIeANwM3DJxXDtM3WNstGkSx4xyyCTs/ncT07zfw+nqTPh3k2NXNKd0hoNeQ9qQlL2+OLNRnllWmdxHoRjYVt/nk9v66N3JE/SMnjHphauWl5DQ7ScJdIpBp//4Jyn70WMmeUJ0K1nMMO6v9/GX92+hPdd3Y4VsLAs30E4Z4P7HfgW8C0w/y1QYXqUkkqJMghNtDA/1sz/K5udK5CSxHIkQDFZKPH53aM8uHuQkazNopoo917WzIauFIuSQZ0akFp62eCrn0MiCKahhaHyJZddvRm+tnuIcdshmoiwZUkttyxKkIoGyzX4voMwIxM5PYKgfxYFTqX40tY+fuvREzx3/yZaG6Iow/gpp25GBnABOvEjCBfA6P4pfQssdAsopUR06p4KjkFeZQV5d3b1ewvUSBqsCBQcT5PpnBjJ86mtAxyfLHBwIMe1i1Ncs7Seu1bXErJMAlbZbJKSKPsWCkk+yI8DGZvvHRjj8zsGyRrwhiW1vG5VHRvbEoTmae39XJ326REE5XqUFAyO5Ln9gX1sro/wL+9arXU1RL5bPLuFELXxHYS5uhr9cfkWWAAWqKQkRN56KfCmilqlRBgu2lZ1ECQ9YLiCR4CPPdvH6HieRw9PYIRN3rm2kQ9c0UzIChAKl4mTtAaUgvGiCD+huQ/+59P9uLki3z48wfWdcV6/roEltVGWNcY0kn4ut6kNd1r6Yy5vqmXNCxcMs8xcqRTf3TfGr31tP/df3cUfXt+GJXMlEZ6gD1Kcy2vPH5tvAd8Cc9QCSqlVFdyClFUKfmE9cNEAH6fzG1S5EXacyvDJXcPsOj1JKmCSioV5+4oaNnQkaKkT2IdBKlzWUiiVXEbzDgcGczxxZIwn+zJMlhS/uLKOS5bUcU1HTJMtnS3h0vlcLlObreeglLhIAQwJp5hzd2M9k2JQKCUgU49v7hzkz5/p4+v3rKE5KSWllZpSUW9cALgPP4JwPu8K/1y+BXwL/JQFKuRNUlYpAlQicd16MfAwlHkRXGR/zDouX90xzHePjNE3USCsFLG6BL9/YztL6yOczirWNggmwdDEPKcnijx+MstnXxgknCmQSoa5ZV0Lb15bR6Ii6zznHQS7gHJLYAX1W7lUZBjW3HUQdBRHoghCrSzSzo7Huz+7j6U1YT7ypuWYAkyUulNplu8g+I863wK+BXwLzKgFKmWVwsPw/1XooSMzeoI51Jl2ECqAxZLj8vTJNM+fTLO1L010ssALBY8bVjaxujHCHStS9OUUSxMWow70TxbZemCY7xydIO0pbu1O8StXtFCbihIJmERCZXGmudrKGgYOFDKCroBwAkpFjFhqzr55T0V+PE+ne548NM7bvriPT9yxhDdubi0DE6u5oJdUnszVeXilcfkRhFeykP9/3wK+BS6IBZRSEkm4qkIJLToSEmtfUK0ats45Hrm8zVf3jrJ/pMChU2n9Uh0JBSmZBv/l6hb2ZWFRtJxieGDXEH2TRSbzDqF4mFs6Ety6tpFrupNTSFCrAm6ciwaTtIJzYAf2w1/HWrqC4KYrMVq7MULhue0gVBy6ou3yG18+yBO9E3z+HatZ1xEnaFkYwo8g3oMfQZiLy84fk28B3wIL0QJKqWbgHZXKCKGFXhDMjtpB8DxcDEbzJY4MZXnkWJoTvZM805fGcz1qaqNc2RonEQ5wZNxGNqfBgkMmW2BRIkwiFeVXLmvm0q6kPkbC3BI8MOcwSFGu28tO4Gx/BmfbTwisXU3whrvAtFCZCYxgBMKRMj10mSmqvKylkqNCQFD+U/nvhjn7gMxqxEeIqkYmi1z/8Z3cs76JP7hjsU45WEYlrSBz6kcQFuJjyL8m3wK+BeaDBZRSvwl8GOislFDO62iocBzYrmLnUJ5sJs8zJ3M8uH+YifE8HakwsaDJ/pzDmohFf97FDph4BZt17SnuWVvH2pYkXc0xwvLmKhvUHH+DLYMUK3wOJRtcB0Ih1MQYuX/4PxihEsFrbiVw+dVlZ0EzE5o6DaFUqVwxG4prPIAhPBEBqaKd3aaFmUS5EcXJgQx3/PsL3HNVF396x+I5G/U4V4vM65vqXC/e/7xvAd8C89cCSinBJyyrlE7eByyZr1cjDoKUPfZlHRpDih+eyDIwmOHfdw4yYSty2SKpSBBTeeRdRU00gAoYvH55A7esqKOtLkZXKqhZE/W79Bx/gy1HTlxhiyoDFIV0SACLrsIb6cc7cQj3RC+hW16HkaxDpSdQuQxmcwtYITAELOhBOIhhBcvOwyw3HfUQ7YWCza9+5TA/OjrGF+5dz1VLan0HYZZt73fvW8C3gG+B12yBCt/CTcA7K4yOwrswr5pWBnQ9lONxKm3zrf1j7B/Mcng4R2YijxEO6bfX0WyR1poo69rivHFVAxtbY7TURLQok5RBVttcLrM7wykg6YMqs6RX4RnwoCDVDZLPF4/HxNm9jeI3voTZWE9wyxsIrN1YZomUY0xxEspcEbPZ9Pw4LqWSw7s/d4CQ4/LX71hDZ13EdxBm0/B+374FfAv4FphJCyil7gT+I7AZaJwvLI4SRRDcQUl5HBnM8dCRNNt6xhlJF3X6IBUOYAPNiRCvX5xgfUeK7poQWdfQyo1GFXegFMYcr2LQpEOVfL12ElwXJekGM1ROOei0gQOlvHYCVD6Ps3snZkMD1oq1KKeI+8IOzNZOrJYOiEhASZwK8RxkNb00QK4BDFN4hlfjQE3nrJAeXdfjySNjvP0zu/nQdYv4rS2dJCMSwViYwfiFeVUz+aTx+/It4Ftg3lpAKVUH3AD8ToVjYU4/86obkhAo7RkpkS64FHN5TYh0JF1iccSi17S4qjnCspqIJlFa2RCeomOe2qjmg4Mgq6qiaaAXWFWjYtpqM8o7ugYmysTpWIPjaOCil01T/OqncXbswFy8kui992MkEjr1YAjlsSEYhwDKAUMCDMrVUttGUNgOXQiEXjE1oZUzheNaRzMU+aLDPV89yguHh/je/ZeyqLlMSuU7CPP2EeEP3LeAb4GL3QJKqO/KjI2vA95ccRrmnFmqDoJ8tx1P4w8yRYfjEzZH+jLURk3aasqlgG2JIIlokPpoQDsIC3WTmj5JesN2ShqjqAwLVSyi+o+h0hnMJWsxolHcPdtwT50ksGo1ZvsSTcQkEAWVy0I0WnYK5I1fYxd+tr84XZypqno1kbG5+eM7uG5xLX9193ItpGXOcbzHuSzyOe1Nn8uF+Z/1LeBbwLfAz7KAUmpDpWRSGBxXzxXmxjMOQiVCLqA4t1zY1zNW1BiExniAkiepeYP6iIWpy+sWhjjQK61Y7SDIl8QTJEVhSWqiiJIQQeXv7rHDlH70MPI9dOdbdTUEpQJKWBol7SLHSVVEMPJz0zBlIGW5ZFHSPg7wiaf6+NNHjvAXb13D+zc16HGYc5hv4pXs+Ur/9x2EV7KQ/3/fAr4FFrQFlFJSKvknwC8Jxc1cutgycFFpB0AQ9CN5j2QQYqGADrsLRUC5SRngwn+cCzW1jiDINFVxia6NknJHnVYI4uUd/bPK5TSWwUhEoFSi8NmPY3V2E7jqNoyaWgydYniFCEKFOlmcg5Lt8t+/dpDnh3N8876NRMKWDiyYkrJYoG3hr6gFOnH+ZfkW8C0wsxaokDFdBrwHeAuQmNkznH1vU+Q8ApATAiTtCxj6u0QVphwEzROw8B/n0wWTdImkRARcR1wlnUbQTeMaTC0CpXELgiFwizg7n8PZvRXlGkTe+T7M+mZUsVDGMirhUwhpoqZqhEH/Q0cbTBwF+bzNrf+yi0gkxPfev5ZwKKC5HMzw7HMwnP3KmZlPLPwVNTN28nvxLeBb4CKyQIXm+Y4Ke+N1C4W58SKawqlLLZdUOnqzV1Ipkc9gxEQ81KP05A8pbX2SwMbNBC69ErOxpXysdg5KEBDMgovrGpwcLXDDx7fzJ7cs433XtuvUgmygc7la5Fzn23cQztWC/ud9C/gWWNAWUErFgV8DPigVhkBsQV/wQrs4LYrlVjAKJsqWjb8cKfDGBnAP7sTZuZ3gFdcQuOJmlF2EfKYcnQgGMYMWBTfEf39oP9/rLfKde9fSXB+bwn34DsJCWzD+9fgW8C3gW+AsLVBhbhSlSUlB/DKw6Cy78A+/ABao0jpr9UhJzEhqwJafKyyOwuAo0tOSsUgl8UYGyf/z32pa58DVWwjdcDuTtssVH9/HXavq+J9vXIYRCAh/k9a90GWTC7T5EYQFOrH+ZfkW8C0wexaoOAtXAm+qfK2avbP5PZ+LBaZSDOIcCKZAuBFEYlqAjZUKBCmZpORo1kapjvBGB3GPHoB8lsC1t3Ji0uVtf/0IH7y6i3tvX4cViWGKBoQM7GUJqcrskCIAXf5pflaZ+A7Cuaw8/7O+BXwLXPQWUErJK6QwN/4qsBHouOiNMocMUC4dLRMu6bJFDRyoMC6Wd+7yaLXzUN70dTml6EOI0qbn8c3dAzzysQf4k9g+IksWE37bvVitnWWHQvcvfVfcAa0+KaWY7hkdMZGCnocgUt9BmEML2R+KbwHfAvPXAhUyJuH7FTKm3wckwuC3eWoBLc7klHBKHn/87aNsHcjytbuaCE+OYLa2Y9Q2QD6Ne/QgZls3RlIUyD0IhqGQE6EIDE3/LEyM85OO2XcQ5uni9YftW8C3wNy2gFJqOXAt8P6KgNSc4liY29a78KMTB6FYLPLYkTE++NAxPnxVG/df3UTACoLnaH0Ib3QA+1tfwT34PNaqy3X5pFQ96ILUULQsva3k55/PuXDhr/blR+A7CHN1Zvxx+RbwLbBgLKCUuhT4ReB2QLgW/DbHLSA8Ck4xz989NcRHHz/B5+5Zy9XdUSzBK5gWSjALOlXhoSbG8NJjBLqX6ooJ57ln8CbGCay/FLOxCSOaxBCOhXnWfAdhnk2YP1zfAr4F5rcFlFIrKymItwMSg55/O8f8noKXHX0VdyBYgSpBlWuXuOfz+wgY8Ml3rcMyXSyhcKwyVUn6QCAIIuZUkvJJ+ayJ88Jz2N/9Ot7JHmL3fxBz/ZXl4xyhhxaMglkGN1bInMpiEYKPqG7JFVzDBSbA8h2EBbjQ/UvyLeBbYO5bQClVAywGPgS8ExD2Hr9dIAv8lIPgefT0pbnp33bzwWs7+c2buvUGLhoYP69pOmhJQTgOKj0JsbjWfXCP7Kb48DcJXnIp1vINmC2dYLqVNIRUQwQ1o6NgF6aAlOaFBTf6DsIFWoz+aX0L+BbwLVC1gFKqBRDmxrcCNwPiPPjtPFpguoMguhfK9Xhy3zC/8fAxvnfvWprqy6WN1suWNZ4ZqHKKIjWptTKkMkJXLygPL5eh9OyPcA/s0yDH8JvfgxE0UJNpkJLJcBIsoW+W1IVEGMRpCFzQ6gffQTiPC9A/lW8B3wK+BV7JAkopkQm8D/gVQIiZLrgmxCuNeSH8v+ogyLU4nmIkW+Lmj28nGbJ4/P6NhIRgScogX6FcsSxJXSzrOlRSB/pvUuFQyEAwWnYcQmGdyih+5f/iDZ7SeIXA5hswY0n9dymhNMVhuIDlkb6DsBBWtn8NvgV8Cyw4CyilBJsQrdA8/+eKs7DgrnOuXFDVQRCqBIkg9E8Wuep/P8UHtizlf9zSiaUMjR8wrJ8PGVGSXhCHoMq/YFgoUaB03YpT4JYjAxUSJZWe0JgFZ8dWQm96B4GOpXj5vKZ7NptbMaZUqM6/pXwH4fzb3D+jbwHfAr4FzsoCSqkwsBm4GxBw47Kz6sA/+BUtUH7zdxENSE95/P1jp/jvjx7lO/dt4upltZjyJi+gwVdIMQiOoOwblFUlddPsS9W/Tdt2NRmTECpVxKE0P5PCOXmU4uc+AeEYoS23E9h8nf57mbypwgjpSRpCUhhSVVHpU/iijeAUQ+QrXvQrHOA7COdqQf/zvgV8C/gWOI8WqDgLbwTeB0j5ZPd5PP2CPZUO64uAk6cYzdh84Av7qQua/M07VlGbCGPKxiwKjrMQ8peSStGDEEIlcSzEafAGTuG8sA2jpoHgVdfrFIXX04NSDmZ9E0TjGKbEIUxwsigrBobCsEIzVlLpOwgLdrn7F+ZbwLfAxWABpdT/a+/OY22r6juAf9/EpBDxIbPWCoTIoKKIUaQOtLEOKI61CmIdomgt1im2qdRqW2NjjY11RK1TqYKKaGLapFWLJg3W1kotaOkQxKZSirUaBN579/6ade95ilbgrvfevfecsz77nxfDOvus3+e34X3dZ++12jLPbeXGFhbaa5P+u74LjV9oPwFM6C75ynV57iXfyPk/d4+c+7Ajs/deW5bfNmh/Ia9KQJjcFdixLdm8eTkktA2l2iuRbTnn9nrk4kJu/sSF2XH5F7Nx69bs8+wXLr8J0eZz843JXm2T0cqGffbNho17ZgMpF9IuXEg+QoAAgWkTqKq2u+Rpk4cb25/++97RpMWF9orhhixsX8gzL7w+NMDgAAATl0lEQVQyn736hvzduSfl8EP3z8aNG5fv4q/SugTt543adnM2bN7yo30iakeqBYMNLTC0nyEWUzsq9f3/ycI1V2fz0cdnw50PyOJ//Eu2t+2qT35INt710Gy4U7uzsGeW1nABdVxAhhIgQGAWBKqqPa9w5uTVybZy4575G2MWit/FObaA0B4TuOa6G/OwC67IfpuSL/3q/bPvvluyZXPb23nyDMIq3UFoDzK2nwzapk/Z2H5mWI54G1owWFhcfvZh53MNGxZT7aHJtl/Ef34zt3zy41m8/tpseegjs9cjH7/8BkV7XXJpT+r2P7fskoqAsEtsPkSAAIHZEKiqEydvQjxu8ibErv1tMRvl7vIsF3YsZNviYi676js5+6Irc+4Dj8hvPu6obJlsCb30kOKUHUsPVm6/ZXnlxxuuW95g+qCtqZu2Z/tlf7G0lsLmE+6fzffctd3Ip6/iKWuA6RAgQGAeBKqqrafQfoZ4ZZJnJm3NYMdOgRYQtt+0LZ+/6jt55WevySeecVyOOvKAHz5zsBrPHuyu/tLrk+3nibZkc7vr0DaGarcMFrZnx1cvX3p1cuG/rs/+5//hLn2VgLBLbD5EgACB2RWoqsMnO0y2VyZPT9L2Kh76WFhczI6298KfXpUbty3kknNOyN77bFl6/mBaj2rPTbRFmdrrlDv3c1h61XFTKu2fteWeb8imQ9qK3v2HgNBv5hMECBCYG4GqOijJ0ye7TR6f5MC5Ka6jkBYQvnr1d/KYj16Vdz36XvnF4w/KlmkPCJO3G5Y3j6rUUkhYWFobYWm9hPZmRlvGeUtbRqP/EBD6zXyCAAECcylQVe01yfOSnJ+kvTc3xNF+w9++YzFv/qtr8oYvXJuLn3F8TjvmwOy9ecNU30FYXpGpvdy4/OfyYkyT91eW/nZfXqFpV1djFBCGuPwVSYAAgZULVFULB8dNVm38pcmukys/wQyMXFoY6VZbLF//3Zty6gX/mIP32ZxLzz4uB9x5r2zeNOUBYZWdBYRVBnZ6AgQIzLLA5K5Ce6ixbUt931mu5dZzX3ryf2Fx6a3C9v+0P/216/P8j/xT3vvEY/Po+x2ytLTypnZ7fgrfXlirHggIayXtewgQIDDjAlX1oiS/k+SubTPiWS5nZ0BYaPsbLCzm3Z+7Jq//8rfzDy88KYfsv9fyrfkt67vd8nr7Cgjr3QHfT4AAgRkSqKoWDtrPDu05hUNnaOo/nOrOnxeWtl9Isv2m7XnKhV/PhlrMRWcfn33awkhV2bCXgDCL/TVnAgQIEFhHgaraOnn74RWz9ozCjwJCZXGh8vVv35hHvveKnHbMQfngk47Ofnu3gNDukaxg98Z17MFqf7U7CKst7PwECBCYY4GqaiszvibJc5IcMQulLgWEhcWlp//bHYTLrrohZ13yz/nAmcfmEffemk1tk6SdAcEzCLPQUnMkQIAAgWkVqKoDJqs0vjzJvtM6zzavW99BWLhlR5564VVLey1cfNZxSw8ltocTBQS7fU3zNWxuBAgQmDmBqrp7kl9J8qokd5rWAlpIaIsjnf+pq/Pn//a/ufTZJ+aIA1uuaesG/OjmurcYprWD5kWAAAECMykwCQrtQcYnJLnbNBbx0a9clxdffGVefNo98tuP+tnpXhRpHQA9g7AO6L6SAAECowhU1SFJ3pTkqUl2bc3fVcL6+FevyzkfuiJvPPPYvOjUuw+95sFPIxYQVunCc1oCBAgQWBao5W0G2wZRv5GkraWw7se2hcW89BPfyFe+9b18+Fkn5qitw6wsvWJ7AWHFVAYSIECAwO4KVNVJk4cZz1zPhxm/9d2bc/rbvpyzHnh4XvGIn8m+Wzbtbmlz93kBYe5aqiACBAhMv0BVnZjkDUkevtYPMy5W5Y+/eG3e+vlr8qWXPygH7tdWTnT8pICA4JogQIAAgXURmPz0cGSSdyR5zFpNYtuOhTzjw1/L936wI595wUnZvGmmV41eNTYBYdVonZgAAQIEVipQVQ9K8uok7aeHVTva643/+t8/yKPe8ff55ZMPy+sefdTSxkyO/y9AxVVBgAABAlMjUFU/PwkKD1mNZxRaQHjLZd/MH/zlv+cL552Sow/ycOJtNV9AmJp/LUyEAAECBHYKVNX9klyQpP25eU/JtJ8XXnbp1fn+zTvynqcfly1+XrhNWgFhT111zkOAAAECe1Rgss/DyZN1FNodhd0+rv3uzTnlTX+T5zz4yPzeY4/Z7fPN8wkEhHnurtoIECAwBwJV1e4gPDnJryd5wK7eUVhYrHzu6hvyvI9cmbc+5d454/ipXOBxajomIExNK0yEAAECBG5PoKra31lPTPLaJMcl6Vq84KbtCzn1LZenneYDZ52Q+xy+P/DbERAQXB4ECBAgMFMCVdV2VTo9yXuStKWcV3T8YNtCnvb+K3LOKYfnyfc92NsLd6AmIKzosjKIAAECBKZNYLLF9NOTnDe5o3C7U2xvMNyyYzF7bd4oHKygmQLCCpAMIUCAAIHpFaiq9q7iOUlekuTe0zvT2ZqZgDBb/TJbAgQIELgdgap64WRlRk67KSAg7CagjxMgQIDAdAlU1aFJzp689XDYdM1udmYjIMxOr8yUAAECBDoEqqo9wPjsJO2uwj07PmpoEgHBZUCAAAECcy9QVW3nyBYU7jL3xe6hAgWEPQTpNAQIECAw3QKTOwq/Nvnpob0q6bgdAQHB5UGAAAECQwlU1b2SPCvJi5JYTvE2ui8gDPWvhWIJECBAYKdAVR2c5PeTPCHJQWR+XEBAcEUQIECAwNACVbU1yVuSnDU0xE8ULyC4GggQIEBgeIGq2pjk2MnPDs9Lss/oKALC6FeA+gkQIEDgxwSq6v5JXp3kjJGDgoDgXwwCBAgQIPBTBCYPM34wySlJtoyGJCCM1nH1EiBAgMCKBaqqBYO2v8Prkzx+xR+cg4ECwhw0UQkECBAgsLoCVdX+vnx4kpcledzqftt0nF1AmI4+mAUBAgQIzIhAVZ2e5M2Thxr3npFpd09TQOgm8wECBAgQGF2gqjYlOSnJu5K0hxrn7hAQ5q6lCiJAgACBtRKoqv0ndxOeO2/7GwkIa3UV+R4CBAgQmFuByWZQ5yWZmz0eBIS5vVwVRoAAAQJrKVBVbSXG983LK5ECwlpePb6LAAECBOZaoKoenOQz87CttIAw15eq4ggQIEBgrQWqqi2sdFGSn1nr796T3ycg7ElN5yJAgAABAkmq6qgkn0xywqyCCAiz2jnzJkCAAIGpFqiquyb5dJKHTPVEb2NyAsIsds2cCRAgQGAmBKpqc5J3JGk7RM7UISDMVLtMlgABAgRmUaCqXpfkNbM0dwFhlrplrgQIECAwswJV1RZTemeSdldh6g8BYepbZIIECBAgMA8CVbUxyWOTvCfJwdNek4Aw7R0yPwIECBCYK4GqekCSjyQ5epoLExCmuTvmRoAAAQJzKVBVRyS5PEn7cyoPAWEq22JSBAgQIDDvApPXIC9N8tBprFVAmMaumBMBAgQIDCFQVXdJ8qYk7QHGqToEhKlqh8kQIECAwGgCVbUlyeuTvDTJ3tNSv4AwLZ0wDwIECBAYWqCqzk3y9mlBEBCmpRPmQYAAAQLDC1TV05J8KMle640hIKx3B3w/AQIECBC4lUBVnTYJCeu6G6SA4LIkQIAAAQJTJlBVB05egzxmvaYmIKyXvO8lQIAAAQK3IzB5DbItqPQL6wElIKyHuu8kQIAAAQIrEJjcSXh/kjOSrOnf2Wv6ZSuwMIQAAQIECBC4lUBVbUpyQZJnruXDiwKCy5AAAQIECEy5wGSjp7aY0rvXaqoCwlpJ+x4CBAgQILCbAlX1pMkbDvvt5qnu8OMCwh0SGUCAAAECBKZHoKraQ4ttrYRDVnNWAsJq6jo3AQIECBBYBYGqaq8//nWSw1bh9EunFBBWS9Z5CRAgQIDAKgpUVVtI6WNJTl6NrxEQVkPVOQkQIECAwBoITB5e/LMkbYnmPXoICHuU08kIECBAgMDaC1TVO5O8YE9+s4CwJzWdiwABAgQIrIPAZMvolyR5Y5LNe2IKAsKeUHQOAgQIECCwzgKTnxvOSvJHSe6yu9MREHZX0OcJECBAgMAUCVTV6Uk+mOTw3ZmWgLA7ej5LgAABAgSmUKCq7pHkmt2ZmoCwO3o+S4AAAQIEplRg8hrkp5LcZ1emKCDsiprPECBAgACBGRCoqrsleXuSp/ROV0DoFTOeAAECBAjMkMBkN8j3TXaDbDtDrugQEFbEZBABAgQIEJhdgUlI+K0kr11pFQLCSqWMI0CAAAECMy5QVc9P8rYkW+6oFAHhjoT8cwIECBAgMEcCVXVGkj9JsvX2yhIQ5qjpSiFAgAABAisRqKpDk/xtkiNva7yAsBJJYwgQIECAwJwJTNZKuDjJKT+tNAFhzhquHAIECBAgsFKBqjosyUVJTk3yY5lAQFiponEECBAgQGAOBSZvOHwsyeOTbNxZooAwh81WEgECBAgQ6BGY7Ab5qiS/KyD0yBlLgAABAgQGEKiq5yV5a5J93EEYoOFKJECAAAECKxWoqjOTfEhAWKmYcQQIECBAYBCBqnqAgDBIs5VJgAABAgR6BASEHi1jCRAgQIDAIAICwiCNViYBAgQIEOgREBB6tIwlQIAAAQKDCAgIgzRamQQIECBAoEdAQOjRMpYAAQIECAwiICAM0mhlEiBAgACBHgEBoUfLWAIECBAgMIiAgDBIo5VJgAABAgR6BASEHi1jCRAgQIDAIAICwiCNViYBAgQIEOgREBB6tIwlQIAAAQKDCAgIgzRamQQIECBAoEdAQOjRMpYAAQIECAwiICAM0mhlEiBAgACBHgEBoUfLWAIECBAgMIiAgDBIo5VJgAABAgR6BASEHi1jCRAgQIDAIAICwiCNViYBAgQIEOgREBB6tIwlQIAAAQKDCAgIgzRamQQIECBAoEdAQOjRMpYAAQIECAwiICAM0mhlEiBAgACBHgEBoUfLWAIECBAgMIiAgDBIo5VJgAABAgR6BASEHi1jCRAgQIDAIAICwiCNViYBAgQIEOgREBB6tIwlQIAAAQKDCAgIgzRamQQIECBAoEdAQOjRMpYAAQIECAwiICAM0mhlEiBAgACBHgEBoUfLWAIECBAgMIiAgDBIo5VJgAABAgR6BASEHi1jCRAgQIDAIAICwiCNViYBAgQIEOgREBB6tIwlQIAAAQKDCAgIgzRamQQIECBAoEdAQOjRMpYAAQIECAwiICAM0mhlEiBAgACBHgEBoUfLWAIECBAgMIiAgDBIo5VJgAABAgR6BASEHi1jCRAgQIDAIAICwiCNViYBAgQIEOgREBB6tIwlQIAAAQKDCAgIgzRamQQIECBAoEdAQOjRMpYAAQIECAwiICAM0mhlEiBAgACBHgEBoUfLWAIECBAgMIiAgDBIo5VJgAABAgR6BASEHi1jCRAgQIDAIAICwiCNViYBAgQIEOgREBB6tIwlQIAAAQKDCAgIgzRamQQIECBAoEdAQOjRMpYAAQIECAwiICAM0mhlEiBAgACBHgEBoUfLWAIECBAgMIiAgDBIo5VJgAABAgR6BASEHi1jCRAgQIDAIAICwiCNViYBAgQIEOgREBB6tIwlQIAAAQKDCAgIgzRamQQIECBAoEdAQOjRMpYAAQIECAwiICAM0mhlEiBAgACBHgEBoUfLWAIECBAgMIiAgDBIo5VJgAABAgR6BASEHi1jCRAgQIDAIAICwiCNViYBAgQIEOgREBB6tIwlQIAAAQKDCAgIgzRamQQIECBAoEdAQOjRMpYAAQIECAwiICAM0mhlEiBAgACBHgEBoUfLWAIECBAgMIiAgDBIo5VJgAABAgR6BASEHi1jCRAgQIDAIAICwiCNViYBAgQIEOgREBB6tIwlQIAAAQKDCAgIgzRamQQIECBAoEdAQOjRMpYAAQIECAwiICAM0mhlEiBAgACBHgEBoUfLWAIECBAgMIiAgDBIo5VJgAABAgR6BASEHi1jCRAgQIDAIAICwiCNViYBAgQIEOgREBB6tIwlQIAAAQKDCAgIgzRamQQIECBAoEdAQOjRMpYAAQIECAwiICAM0mhlEiBAgACBHgEBoUfLWAIECBAgMIiAgDBIo5VJgAABAgR6BASEHi1jCRAgQIDAIAICwiCNViYBAgQIEOgREBB6tIwlQIAAAQKDCAgIgzRamQQIECBAoEdAQOjRMpYAAQIECAwiICAM0mhlEiBAgACBHgEBoUfLWAIECBAgMIiAgDBIo5VJgAABAgR6BASEHi1jCRAgQIDAIAICwiCNViYBAgQIEOgREBB6tIwlQIAAAQKDCAgIgzRamQQIECBAoEdAQOjRMpYAAQIECAwiICAM0mhlEiBAgACBHgEBoUfLWAIECBAgMIiAgDBIo5VJgAABAgR6BASEHi1jCRAgQIDAIAICwiCNViYBAgQIEOgREBB6tIwlQIAAAQKDCAgIgzRamQQIECBAoEdAQOjRMpYAAQIECAwiICAM0mhlEiBAgACBHgEBoUfLWAIECBAgMIiAgDBIo5VJgAABAgR6BASEHi1jCRAgQIDAIAICwiCNViYBAgQIEOgREBB6tIwlQIAAAQKDCAgIgzRamQQIECBAoEdAQOjRMpYAAQIECAwiICAM0mhlEiBAgACBHgEBoUfLWAIECBAgMIiAgDBIo5VJgAABAgR6BP4PAoJO9J+Pp/YAAAAASUVORK5CYII=;" vertex="1" parent="1">
                    <mxGeometry x="40" y="-2240" width="200" height="175.38" as="geometry"/>
                </mxCell>
                <mxCell id="3" value="" style="ellipse;whiteSpace=wrap;html=1;aspect=fixed;rounded=0;fontSize=10;fillColor=none;align=center;" vertex="1" parent="1">
                    <mxGeometry x="55.00142857142848" y="-2173" width="12" height="12" as="geometry"/>
                </mxCell>
                <mxCell id="4" value="" style="ellipse;whiteSpace=wrap;html=1;aspect=fixed;rounded=0;fontSize=10;fillColor=none;align=center;" vertex="1" parent="1">
                    <mxGeometry x="55.00142857142848" y="-2154" width="12" height="12" as="geometry"/>
                </mxCell>
                <mxCell id="5" value="" style="ellipse;whiteSpace=wrap;html=1;aspect=fixed;rounded=0;fontSize=10;fillColor=none;align=center;" vertex="1" parent="1">
                    <mxGeometry x="55.00142857142848" y="-2136" width="12" height="12" as="geometry"/>
                </mxCell>
                <mxCell id="6" value="" style="ellipse;whiteSpace=wrap;html=1;aspect=fixed;rounded=0;fontSize=10;fillColor=none;align=center;" vertex="1" parent="1">
                    <mxGeometry x="56.00142857142848" y="-2118" width="12" height="12" as="geometry"/>
                </mxCell>
                <mxCell id="7" value="" style="ellipse;whiteSpace=wrap;html=1;aspect=fixed;rounded=0;fontSize=10;fillColor=none;align=center;" vertex="1" parent="1">
                    <mxGeometry x="56.00142857142848" y="-2099" width="12" height="12" as="geometry"/>
                </mxCell>
                <mxCell id="8" value="" style="ellipse;whiteSpace=wrap;html=1;aspect=fixed;rounded=0;fontSize=10;fillColor=none;align=center;" vertex="1" parent="1">
                    <mxGeometry x="56.00142857142848" y="-2080" width="12" height="12" as="geometry"/>
                </mxCell>
                <mxCell id="9" value="" style="ellipse;whiteSpace=wrap;html=1;aspect=fixed;rounded=0;fontSize=10;fillColor=none;align=center;" vertex="1" parent="1">
                    <mxGeometry x="98.00142857142848" y="-2089" width="12" height="12" as="geometry"/>
                </mxCell>
                <mxCell id="10" value="" style="ellipse;whiteSpace=wrap;html=1;aspect=fixed;rounded=0;fontSize=10;fillColor=none;align=center;" vertex="1" parent="1">
                    <mxGeometry x="98.00142857142848" y="-2108" width="12" height="12" as="geometry"/>
                </mxCell>
                <mxCell id="11" value="" style="ellipse;whiteSpace=wrap;html=1;aspect=fixed;rounded=0;fontSize=10;fillColor=none;align=center;" vertex="1" parent="1">
                    <mxGeometry x="98.00142857142848" y="-2126" width="12" height="12" as="geometry"/>
                </mxCell>
                <mxCell id="12" value="" style="ellipse;whiteSpace=wrap;html=1;aspect=fixed;rounded=0;fontSize=10;fillColor=none;align=center;" vertex="1" parent="1">
                    <mxGeometry x="98.00142857142848" y="-2164" width="12" height="12" as="geometry"/>
                </mxCell>
                <mxCell id="13" value="" style="ellipse;whiteSpace=wrap;html=1;aspect=fixed;rounded=0;fontSize=10;fillColor=none;align=center;" vertex="1" parent="1">
                    <mxGeometry x="136.00142857142848" y="-2098" width="12" height="12" as="geometry"/>
                </mxCell>
                <mxCell id="14" value="" style="ellipse;whiteSpace=wrap;html=1;aspect=fixed;rounded=0;fontSize=10;fillColor=none;align=center;" vertex="1" parent="1">
                    <mxGeometry x="136.00142857142848" y="-2117" width="12" height="12" as="geometry"/>
                </mxCell>
                <mxCell id="15" value="" style="ellipse;whiteSpace=wrap;html=1;aspect=fixed;rounded=0;fontSize=10;fillColor=none;align=center;" vertex="1" parent="1">
                    <mxGeometry x="136.00142857142848" y="-2136" width="12" height="12" as="geometry"/>
                </mxCell>
                <mxCell id="16" value="" style="ellipse;whiteSpace=wrap;html=1;aspect=fixed;rounded=0;fontSize=10;fillColor=none;align=center;" vertex="1" parent="1">
                    <mxGeometry x="136.00142857142848" y="-2154" width="12" height="12" as="geometry"/>
                </mxCell>
                <mxCell id="17" value="" style="ellipse;whiteSpace=wrap;html=1;aspect=fixed;rounded=0;fontSize=10;fillColor=none;align=center;" vertex="1" parent="1">
                    <mxGeometry x="170.00142857142848" y="-2107" width="12" height="12" as="geometry"/>
                </mxCell>
                <mxCell id="18" value="" style="ellipse;whiteSpace=wrap;html=1;aspect=fixed;rounded=0;fontSize=10;fillColor=none;align=center;" vertex="1" parent="1">
                    <mxGeometry x="170.00142857142848" y="-2126" width="12" height="12" as="geometry"/>
                </mxCell>
                <mxCell id="19" value="" style="ellipse;whiteSpace=wrap;html=1;aspect=fixed;rounded=0;fontSize=10;fillColor=none;align=center;" vertex="1" parent="1">
                    <mxGeometry x="98.00142857142848" y="-2145" width="12" height="12" as="geometry"/>
                </mxCell>
                <mxCell id="20" value="" style="ellipse;whiteSpace=wrap;html=1;aspect=fixed;rounded=0;fontSize=10;fillColor=none;align=center;" vertex="1" parent="1">
                    <mxGeometry x="170.00142857142848" y="-2144" width="12" height="12" as="geometry"/>
                </mxCell>
                <mxCell id="21" value="" style="ellipse;whiteSpace=wrap;html=1;aspect=fixed;rounded=0;fontSize=10;fillColor=none;align=center;" vertex="1" parent="1">
                    <mxGeometry x="205.00142857142848" y="-2126" width="12" height="12" as="geometry"/>
                </mxCell>
                <mxCell id="22" value="" style="endArrow=none;html=1;fontSize=10;startSize=6;sourcePerimeterSpacing=0;targetPerimeterSpacing=0;strokeWidth=0.5;" edge="1" parent="1" source="3" target="12">
                    <mxGeometry x="-10" y="-700" width="32.142857142857146" height="30" as="geometry">
                        <mxPoint x="143.69471266631206" y="-2297.767863459765" as="sourcePoint"/>
                        <mxPoint x="350" y="-2210" as="targetPoint"/>
                    </mxGeometry>
                </mxCell>
                <mxCell id="23" value="" style="endArrow=none;html=1;fontSize=10;startSize=6;sourcePerimeterSpacing=0;targetPerimeterSpacing=0;strokeWidth=0.5;" edge="1" parent="1" source="3" target="19">
                    <mxGeometry x="10" y="-680" width="32.142857142857146" height="30" as="geometry">
                        <mxPoint x="86.87662870875727" y="-2145.782616187761" as="sourcePoint"/>
                        <mxPoint x="118.12868481992064" y="-2139.2291789247342" as="targetPoint"/>
                    </mxGeometry>
                </mxCell>
                <mxCell id="24" value="" style="endArrow=none;html=1;fontSize=10;startSize=6;sourcePerimeterSpacing=0;targetPerimeterSpacing=0;strokeWidth=0.5;" edge="1" parent="1" source="4" target="12">
                    <mxGeometry x="40" y="-650" width="32.142857142857146" height="30" as="geometry">
                        <mxPoint x="73.73898324859454" y="-2151.660918207266" as="sourcePoint"/>
                        <mxPoint x="111.26740191820613" y="-2078.340889276062" as="targetPoint"/>
                    </mxGeometry>
                </mxCell>
                <mxCell id="25" value="" style="endArrow=none;html=1;fontSize=10;startSize=6;sourcePerimeterSpacing=0;targetPerimeterSpacing=0;strokeWidth=0.5;" edge="1" parent="1" source="4" target="11">
                    <mxGeometry x="70" y="-620" width="32.142857142857146" height="30" as="geometry">
                        <mxPoint x="96.873987222692" y="-2116.7699370392625" as="sourcePoint"/>
                        <mxPoint x="128.1286848199062" y="-2110.2291789247374" as="targetPoint"/>
                    </mxGeometry>
                </mxCell>
                <mxCell id="26" value="" style="endArrow=none;html=1;fontSize=10;startSize=6;sourcePerimeterSpacing=0;targetPerimeterSpacing=0;strokeWidth=0.5;" edge="1" parent="1" source="5" target="19">
                    <mxGeometry x="80" y="-610" width="32.142857142857146" height="30" as="geometry">
                        <mxPoint x="106.873987222692" y="-2106.7699370392625" as="sourcePoint"/>
                        <mxPoint x="138.1286848199062" y="-2100.2291789247374" as="targetPoint"/>
                    </mxGeometry>
                </mxCell>
                <mxCell id="27" value="" style="endArrow=none;html=1;fontSize=10;startSize=6;sourcePerimeterSpacing=0;targetPerimeterSpacing=0;strokeWidth=0.5;" edge="1" parent="1" source="5" target="10">
                    <mxGeometry x="100" y="-590" width="32.142857142857146" height="30" as="geometry">
                        <mxPoint x="76.873987222692" y="-2121.2300629607375" as="sourcePoint"/>
                        <mxPoint x="108.1286848199062" y="-2127.7708210752626" as="targetPoint"/>
                    </mxGeometry>
                </mxCell>
                <mxCell id="28" value="" style="endArrow=none;html=1;fontSize=10;startSize=6;sourcePerimeterSpacing=0;targetPerimeterSpacing=0;strokeWidth=0.5;" edge="1" parent="1" source="6" target="19">
                    <mxGeometry x="130" y="-560" width="32.142857142857146" height="30" as="geometry">
                        <mxPoint x="75.04395171753697" y="-2115.5662649365263" as="sourcePoint"/>
                        <mxPoint x="109.95134779900548" y="-2077.4268324721834" as="targetPoint"/>
                    </mxGeometry>
                </mxCell>
                <mxCell id="29" value="" style="endArrow=none;html=1;fontSize=10;startSize=6;sourcePerimeterSpacing=0;targetPerimeterSpacing=0;strokeWidth=0.5;" edge="1" parent="1" source="6" target="10">
                    <mxGeometry x="140" y="-550" width="32.142857142857146" height="30" as="geometry">
                        <mxPoint x="85.04395171753697" y="-2105.5662649365263" as="sourcePoint"/>
                        <mxPoint x="119.95134779900548" y="-2067.4268324721834" as="targetPoint"/>
                    </mxGeometry>
                </mxCell>
                <mxCell id="30" value="" style="endArrow=none;html=1;fontSize=10;startSize=6;sourcePerimeterSpacing=0;targetPerimeterSpacing=0;strokeWidth=0.5;" edge="1" parent="1" source="7" target="11">
                    <mxGeometry x="150" y="-540" width="32.142857142857146" height="30" as="geometry">
                        <mxPoint x="95.04395171753697" y="-2095.5662649365263" as="sourcePoint"/>
                        <mxPoint x="70" y="-2050" as="targetPoint"/>
                    </mxGeometry>
                </mxCell>
                <mxCell id="31" value="" style="endArrow=none;html=1;fontSize=10;startSize=6;sourcePerimeterSpacing=0;targetPerimeterSpacing=0;strokeWidth=0.5;" edge="1" parent="1" source="7" target="9">
                    <mxGeometry x="160" y="-530" width="32.142857142857146" height="30" as="geometry">
                        <mxPoint x="77.04068816318386" y="-2086.2566643620185" as="sourcePoint"/>
                        <mxPoint x="100" y="-2060" as="targetPoint"/>
                    </mxGeometry>
                </mxCell>
                <mxCell id="32" value="" style="endArrow=none;html=1;fontSize=10;startSize=6;sourcePerimeterSpacing=0;targetPerimeterSpacing=0;strokeWidth=0.5;" edge="1" parent="1" source="8" target="9">
                    <mxGeometry x="170" y="-520" width="32.142857142857146" height="30" as="geometry">
                        <mxPoint x="87.04068816318386" y="-2076.2566643620185" as="sourcePoint"/>
                        <mxPoint x="118.9543577191838" y="-2096.755454452128" as="targetPoint"/>
                    </mxGeometry>
                </mxCell>
                <mxCell id="33" value="" style="endArrow=none;html=1;fontSize=10;startSize=6;sourcePerimeterSpacing=0;targetPerimeterSpacing=0;strokeWidth=0.5;" edge="1" parent="1" source="8" target="10">
                    <mxGeometry x="180" y="-510" width="32.142857142857146" height="30" as="geometry">
                        <mxPoint x="97.04068816318386" y="-2066.2566643620185" as="sourcePoint"/>
                        <mxPoint x="128.9543577191838" y="-2086.755454452128" as="targetPoint"/>
                    </mxGeometry>
                </mxCell>
                <mxCell id="34" value="" style="endArrow=none;html=1;fontSize=10;startSize=6;sourcePerimeterSpacing=0;targetPerimeterSpacing=0;strokeWidth=0.5;" edge="1" parent="1" source="12" target="16">
                    <mxGeometry y="-690" width="32.142857142857146" height="30" as="geometry">
                        <mxPoint x="76.873987222692" y="-2155.7699370392625" as="sourcePoint"/>
                        <mxPoint x="108.1286848199062" y="-2149.2291789247374" as="targetPoint"/>
                    </mxGeometry>
                </mxCell>
                <mxCell id="35" value="" style="endArrow=none;html=1;fontSize=10;startSize=6;sourcePerimeterSpacing=0;targetPerimeterSpacing=0;strokeWidth=0.5;" edge="1" parent="1" source="12" target="15">
                    <mxGeometry x="10" y="-680" width="32.142857142857146" height="30" as="geometry">
                        <mxPoint x="86.873987222692" y="-2145.7699370392625" as="sourcePoint"/>
                        <mxPoint x="118.1286848199062" y="-2139.2291789247374" as="targetPoint"/>
                    </mxGeometry>
                </mxCell>
                <mxCell id="36" value="" style="endArrow=none;html=1;fontSize=10;startSize=6;sourcePerimeterSpacing=0;targetPerimeterSpacing=0;strokeWidth=0.5;" edge="1" parent="1" source="19" target="16">
                    <mxGeometry x="20" y="-670" width="32.142857142857146" height="30" as="geometry">
                        <mxPoint x="96.873987222692" y="-2135.7699370392625" as="sourcePoint"/>
                        <mxPoint x="128.1286848199062" y="-2129.2291789247374" as="targetPoint"/>
                    </mxGeometry>
                </mxCell>
                <mxCell id="37" value="" style="endArrow=none;html=1;fontSize=10;startSize=6;sourcePerimeterSpacing=0;targetPerimeterSpacing=0;strokeWidth=0.5;" edge="1" parent="1" source="19" target="14">
                    <mxGeometry x="30" y="-660" width="32.142857142857146" height="30" as="geometry">
                        <mxPoint x="106.873987222692" y="-2125.7699370392625" as="sourcePoint"/>
                        <mxPoint x="138.1286848199062" y="-2119.2291789247374" as="targetPoint"/>
                    </mxGeometry>
                </mxCell>
                <mxCell id="38" value="" style="endArrow=none;html=1;fontSize=10;startSize=6;sourcePerimeterSpacing=0;targetPerimeterSpacing=0;strokeWidth=0.5;" edge="1" parent="1" source="11" target="15">
                    <mxGeometry x="40" y="-650" width="32.142857142857146" height="30" as="geometry">
                        <mxPoint x="116.873987222692" y="-2115.7699370392625" as="sourcePoint"/>
                        <mxPoint x="148.1286848199062" y="-2109.2291789247374" as="targetPoint"/>
                    </mxGeometry>
                </mxCell>
                <mxCell id="39" value="" style="endArrow=none;html=1;fontSize=10;startSize=6;sourcePerimeterSpacing=0;targetPerimeterSpacing=0;strokeWidth=0.5;" edge="1" parent="1" source="11" target="14">
                    <mxGeometry x="50" y="-640" width="32.142857142857146" height="30" as="geometry">
                        <mxPoint x="126.873987222692" y="-2105.7699370392625" as="sourcePoint"/>
                        <mxPoint x="158.1286848199062" y="-2099.2291789247374" as="targetPoint"/>
                    </mxGeometry>
                </mxCell>
                <mxCell id="40" value="" style="endArrow=none;html=1;fontSize=10;startSize=6;sourcePerimeterSpacing=0;targetPerimeterSpacing=0;strokeWidth=0.5;" edge="1" parent="1" source="10" target="15">
                    <mxGeometry x="60" y="-630" width="32.142857142857146" height="30" as="geometry">
                        <mxPoint x="136.873987222692" y="-2095.7699370392625" as="sourcePoint"/>
                        <mxPoint x="168.1286848199062" y="-2089.2291789247374" as="targetPoint"/>
                    </mxGeometry>
                </mxCell>
                <mxCell id="41" value="" style="endArrow=none;html=1;fontSize=10;startSize=6;sourcePerimeterSpacing=0;targetPerimeterSpacing=0;strokeWidth=0.5;" edge="1" parent="1" source="10" target="13">
                    <mxGeometry x="70" y="-620" width="32.142857142857146" height="30" as="geometry">
                        <mxPoint x="146.873987222692" y="-2085.7699370392625" as="sourcePoint"/>
                        <mxPoint x="178.1286848199062" y="-2079.2291789247374" as="targetPoint"/>
                    </mxGeometry>
                </mxCell>
                <mxCell id="42" value="" style="endArrow=none;html=1;fontSize=10;startSize=6;sourcePerimeterSpacing=0;targetPerimeterSpacing=0;strokeWidth=0.5;" edge="1" parent="1" source="9" target="14">
                    <mxGeometry x="80" y="-610" width="32.142857142857146" height="30" as="geometry">
                        <mxPoint x="156.873987222692" y="-2075.7699370392625" as="sourcePoint"/>
                        <mxPoint x="188.1286848199062" y="-2069.2291789247374" as="targetPoint"/>
                    </mxGeometry>
                </mxCell>
                <mxCell id="43" value="" style="endArrow=none;html=1;fontSize=10;startSize=6;sourcePerimeterSpacing=0;targetPerimeterSpacing=0;strokeWidth=0.5;" edge="1" parent="1" source="9" target="13">
                    <mxGeometry x="90" y="-600" width="32.142857142857146" height="30" as="geometry">
                        <mxPoint x="166.873987222692" y="-2065.7699370392625" as="sourcePoint"/>
                        <mxPoint x="198.1286848199062" y="-2059.2291789247374" as="targetPoint"/>
                    </mxGeometry>
                </mxCell>
                <mxCell id="44" value="" style="endArrow=none;html=1;fontSize=10;startSize=6;sourcePerimeterSpacing=0;targetPerimeterSpacing=0;strokeWidth=0.5;" edge="1" parent="1" source="16" target="20">
                    <mxGeometry x="100" y="-590" width="32.142857142857146" height="30" as="geometry">
                        <mxPoint x="176.873987222692" y="-2055.7699370392625" as="sourcePoint"/>
                        <mxPoint x="208.1286848199062" y="-2049.2291789247374" as="targetPoint"/>
                    </mxGeometry>
                </mxCell>
                <mxCell id="45" value="" style="endArrow=none;html=1;fontSize=10;startSize=6;sourcePerimeterSpacing=0;targetPerimeterSpacing=0;strokeWidth=0.5;" edge="1" parent="1" source="16" target="18">
                    <mxGeometry x="110" y="-580" width="32.142857142857146" height="30" as="geometry">
                        <mxPoint x="157.75680263991944" y="-2136.304220140534" as="sourcePoint"/>
                        <mxPoint x="180.2452355619988" y="-2129.69299794395" as="targetPoint"/>
                    </mxGeometry>
                </mxCell>
                <mxCell id="46" value="" style="endArrow=none;html=1;fontSize=10;startSize=6;sourcePerimeterSpacing=0;targetPerimeterSpacing=0;strokeWidth=0.5;" edge="1" parent="1" source="15" target="20">
                    <mxGeometry x="120" y="-570" width="32.142857142857146" height="30" as="geometry">
                        <mxPoint x="167.75680263991944" y="-2126.304220140534" as="sourcePoint"/>
                        <mxPoint x="190.2452355619988" y="-2119.69299794395" as="targetPoint"/>
                    </mxGeometry>
                </mxCell>
                <mxCell id="47" value="" style="endArrow=none;html=1;fontSize=10;startSize=6;sourcePerimeterSpacing=0;targetPerimeterSpacing=0;strokeWidth=0.5;" edge="1" parent="1" source="15" target="17">
                    <mxGeometry x="130" y="-560" width="32.142857142857146" height="30" as="geometry">
                        <mxPoint x="177.75680263991944" y="-2116.304220140534" as="sourcePoint"/>
                        <mxPoint x="200.2452355619988" y="-2109.69299794395" as="targetPoint"/>
                    </mxGeometry>
                </mxCell>
                <mxCell id="48" value="" style="endArrow=none;html=1;fontSize=10;startSize=6;sourcePerimeterSpacing=0;targetPerimeterSpacing=0;strokeWidth=0.5;" edge="1" parent="1" source="14" target="17">
                    <mxGeometry x="140" y="-550" width="32.142857142857146" height="30" as="geometry">
                        <mxPoint x="187.75680263991944" y="-2106.304220140534" as="sourcePoint"/>
                        <mxPoint x="210.2452355619988" y="-2099.69299794395" as="targetPoint"/>
                    </mxGeometry>
                </mxCell>
                <mxCell id="49" value="" style="endArrow=none;html=1;fontSize=10;startSize=6;sourcePerimeterSpacing=0;targetPerimeterSpacing=0;strokeWidth=0.5;" edge="1" parent="1" source="14" target="20">
                    <mxGeometry x="150" y="-540" width="32.142857142857146" height="30" as="geometry">
                        <mxPoint x="197.75680263991944" y="-2096.304220140534" as="sourcePoint"/>
                        <mxPoint x="220.2452355619988" y="-2089.69299794395" as="targetPoint"/>
                    </mxGeometry>
                </mxCell>
                <mxCell id="50" value="" style="endArrow=none;html=1;fontSize=10;startSize=6;sourcePerimeterSpacing=0;targetPerimeterSpacing=0;strokeWidth=0.5;" edge="1" parent="1" source="13" target="18">
                    <mxGeometry x="160" y="-530" width="32.142857142857146" height="30" as="geometry">
                        <mxPoint x="207.75680263991944" y="-2086.304220140534" as="sourcePoint"/>
                        <mxPoint x="230.2452355619988" y="-2079.69299794395" as="targetPoint"/>
                    </mxGeometry>
                </mxCell>
                <mxCell id="51" value="" style="endArrow=none;html=1;fontSize=10;startSize=6;sourcePerimeterSpacing=0;targetPerimeterSpacing=0;strokeWidth=0.5;" edge="1" parent="1" source="13" target="17">
                    <mxGeometry x="170" y="-520" width="32.142857142857146" height="30" as="geometry">
                        <mxPoint x="217.75680263991944" y="-2076.304220140534" as="sourcePoint"/>
                        <mxPoint x="240.2452355619988" y="-2069.69299794395" as="targetPoint"/>
                    </mxGeometry>
                </mxCell>
                <mxCell id="52" value="" style="endArrow=none;html=1;fontSize=10;startSize=6;sourcePerimeterSpacing=0;targetPerimeterSpacing=0;strokeWidth=0.5;" edge="1" parent="1" source="20" target="21">
                    <mxGeometry x="180" y="-510" width="32.142857142857146" height="30" as="geometry">
                        <mxPoint x="227.75680263991944" y="-2066.304220140534" as="sourcePoint"/>
                        <mxPoint x="250.2452355619988" y="-2059.69299794395" as="targetPoint"/>
                    </mxGeometry>
                </mxCell>
                <mxCell id="53" value="" style="endArrow=none;html=1;fontSize=10;startSize=6;sourcePerimeterSpacing=0;targetPerimeterSpacing=0;strokeWidth=0.5;" edge="1" parent="1" source="18" target="21">
                    <mxGeometry x="190" y="-500" width="32.142857142857146" height="30" as="geometry">
                        <mxPoint x="237.75680263991944" y="-2056.304220140534" as="sourcePoint"/>
                        <mxPoint x="260.2452355619988" y="-2049.69299794395" as="targetPoint"/>
                    </mxGeometry>
                </mxCell>
                <mxCell id="54" value="" style="endArrow=none;html=1;fontSize=10;startSize=6;sourcePerimeterSpacing=0;targetPerimeterSpacing=0;strokeWidth=0.5;" edge="1" parent="1" source="17" target="21">
                    <mxGeometry x="200" y="-490" width="32.142857142857146" height="30" as="geometry">
                        <mxPoint x="247.75680263991944" y="-2046.304220140534" as="sourcePoint"/>
                        <mxPoint x="270.2452355619988" y="-2039.6929979439499" as="targetPoint"/>
                    </mxGeometry>
                </mxCell>
            </root>
        </mxGraphModel>
    </diagram>
</mxfile>